<?xml version="1.0" encoding="utf-8"?>
<!-- Generator: Adobe Illustrator 21.0.1, SVG Export Plug-In . SVG Version: 6.00 Build 0)  -->
<svg version="1.1" id="Layer_1" xmlns="http://www.w3.org/2000/svg" xmlns:xlink="http://www.w3.org/1999/xlink" x="0px" y="0px"
	 viewBox="0 0 300 100" style="enable-background:new 0 0 300 100;" xml:space="preserve">
<style type="text/css">
	.st0{fill:#08425C;}
	.st1{fill:#0C0C0C;}
	.st2{fill:#FFC857;}
	.st3{fill:#34E5FF;}
	.st4{fill:#4056F4;}
	.st5{fill:#F56376;}
	.st6{fill:#40F99B;}
</style>
<g>
	<g>
		<path class="st0" d="M130,43.1c0.7,0,1.3,0,1.6,0.1c0.4,0,0.8,0.2,1.2,0.4c0.5,0.3,0.8,0.7,1,1.3c0.2,0.6,0.3,1.4,0.3,2.4
			c0,1-0.1,1.8-0.3,2.4c-0.2,0.6-0.5,1-1,1.2c-0.5,0.2-0.9,0.4-1.2,0.4c-0.4,0-0.9,0.1-1.7,0.1h-14.4v4.8h9.3c0.8,0,1.3,0,1.7,0.1
			c0.4,0,0.8,0.2,1.2,0.4c0.8,0.5,1.2,1.7,1.2,3.7c0,2.2-0.6,3.5-1.8,3.9c-0.5,0.2-1.3,0.2-2.4,0.2h-9.2v8.9c0,0.8,0,1.3-0.1,1.7
			c0,0.3-0.2,0.8-0.4,1.2c-0.4,0.8-1.7,1.3-3.7,1.3c-2.2,0-3.5-0.6-3.9-1.8c-0.2-0.5-0.3-1.3-0.3-2.4V47.3c0-1.6,0.3-2.7,0.9-3.3
			c0.6-0.6,1.7-0.9,3.4-0.9H130z"/>
		<path class="st0" d="M158.9,44.4c0.3-0.5,0.8-0.8,1.4-1c0.6-0.2,1.3-0.3,2.2-0.3c0.9,0,1.6,0.1,2.1,0.2c0.5,0.2,0.9,0.3,1.2,0.6
			c0.3,0.2,0.5,0.6,0.6,1c0.2,0.5,0.3,1.4,0.3,2.5v14.2c0,4.2-1.3,7.9-3.9,11.3c-1.3,1.6-2.9,2.9-4.9,3.9c-2,1-4.2,1.5-6.6,1.5
			c-2.4,0-4.6-0.5-6.6-1.5c-2-1-3.6-2.3-4.8-4c-2.5-3.3-3.8-7.1-3.8-11.3V47.3c0-0.8,0-1.3,0.1-1.7c0-0.4,0.2-0.8,0.4-1.2
			c0.3-0.5,0.7-0.8,1.3-1c0.6-0.2,1.4-0.3,2.4-0.3c1,0,1.8,0.1,2.4,0.3c0.6,0.2,1,0.5,1.2,1c0.4,0.7,0.6,1.7,0.6,3v14.2
			c0,1.9,0.5,3.7,1.4,5.5c0.5,0.9,1.2,1.6,2.1,2.1c0.9,0.5,2.1,0.8,3.3,0.8c2.3,0,4-0.8,5.1-2.5c1.1-1.7,1.7-3.7,1.7-5.9V47
			C158.4,45.7,158.6,44.9,158.9,44.4z"/>
		<path class="st0" d="M172.2,43.1h26.2c1,0,1.7,0.1,2.2,0.4c0.5,0.2,0.8,0.6,0.9,1.1c0.2,0.5,0.2,1.2,0.2,2c0,0.8-0.1,1.5-0.2,2
			c-0.2,0.5-0.4,0.8-0.8,1c-0.6,0.3-1.4,0.4-2.4,0.4h-9v23.7c0,0.7,0,1.3-0.1,1.6c0,0.3-0.2,0.7-0.4,1.2c-0.2,0.5-0.7,0.8-1.3,1
			c-0.6,0.2-1.4,0.3-2.4,0.3c-1,0-1.8-0.1-2.3-0.3c-0.6-0.2-1-0.5-1.2-1s-0.4-0.9-0.4-1.2c0-0.4-0.1-0.9-0.1-1.6V49.9h-9.1
			c-1,0-1.7-0.1-2.2-0.4c-0.5-0.2-0.8-0.6-0.9-1.1c-0.2-0.5-0.2-1.2-0.2-2c0-0.8,0.1-1.5,0.2-2c0.2-0.5,0.4-0.8,0.8-1
			C170.4,43.2,171.2,43.1,172.2,43.1z"/>
		<path class="st0" d="M226.3,44.4c0.3-0.5,0.8-0.8,1.4-1c0.6-0.2,1.3-0.3,2.2-0.3c0.9,0,1.6,0.1,2.1,0.2c0.5,0.2,0.9,0.3,1.2,0.6
			c0.3,0.2,0.5,0.6,0.6,1c0.2,0.5,0.3,1.4,0.3,2.5v14.2c0,4.2-1.3,7.9-3.9,11.3c-1.3,1.6-2.9,2.9-4.9,3.9c-2,1-4.2,1.5-6.6,1.5
			c-2.4,0-4.6-0.5-6.6-1.5c-2-1-3.6-2.3-4.8-4c-2.5-3.3-3.8-7.1-3.8-11.3V47.3c0-0.8,0-1.3,0.1-1.7c0-0.4,0.2-0.8,0.4-1.2
			c0.3-0.5,0.7-0.8,1.3-1c0.6-0.2,1.4-0.3,2.4-0.3c1,0,1.8,0.1,2.4,0.3c0.6,0.2,1,0.5,1.2,1c0.4,0.7,0.6,1.7,0.6,3v14.2
			c0,1.9,0.5,3.7,1.4,5.5c0.5,0.9,1.2,1.6,2.1,2.1s2.1,0.8,3.3,0.8c2.3,0,4-0.8,5.1-2.5s1.7-3.7,1.7-5.9V47
			C225.9,45.7,226,44.9,226.3,44.4z"/>
		<path class="st0" d="M265.1,71.8c0.5,1.1,0.7,2,0.7,2.5c0,1.2-1,2.2-2.9,3c-1,0.4-1.8,0.7-2.4,0.7s-1.1-0.2-1.5-0.4
			c-0.4-0.3-0.7-0.6-0.9-0.9c-0.3-0.6-1.5-3.4-3.7-8.5l-1.5,0.1h-5.9v5.3c0,0.7,0,1.3-0.1,1.6c0,0.4-0.2,0.8-0.4,1.2
			c-0.4,0.8-1.7,1.3-3.7,1.3c-2.2,0-3.5-0.6-3.9-1.7c-0.2-0.5-0.3-1.4-0.3-2.5V47.3c0-0.7,0-1.3,0.1-1.6c0-0.4,0.2-0.8,0.4-1.2
			c0.4-0.8,1.7-1.3,3.7-1.3H253c2.8,0,5.5,1,8.1,3c1.3,1,2.3,2.3,3.1,4c0.8,1.7,1.2,3.5,1.2,5.6c0,3.6-1.2,6.5-3.5,8.8
			C262.5,66.1,263.6,68.6,265.1,71.8z M246.9,59.8h6c0.9,0,1.8-0.3,2.7-1c0.9-0.7,1.4-1.7,1.4-3.1c0-1.4-0.5-2.4-1.4-3.1
			c-0.9-0.7-1.9-1.1-2.8-1.1h-5.9V59.8z"/>
		<path class="st0" d="M277.5,69.3H292c0.7,0,1.3,0,1.6,0.1c0.4,0,0.8,0.2,1.3,0.4c0.8,0.4,1.3,1.7,1.3,3.7c0,2.2-0.6,3.5-1.7,3.9
			c-0.5,0.2-1.4,0.3-2.5,0.3h-18.7c-2.2,0-3.5-0.6-3.9-1.8c-0.2-0.5-0.3-1.3-0.3-2.4V47.3c0-1.6,0.3-2.7,0.9-3.3
			c0.6-0.6,1.7-0.9,3.4-0.9H292c0.7,0,1.3,0,1.6,0.1c0.4,0,0.8,0.2,1.3,0.4c0.8,0.4,1.3,1.7,1.3,3.7c0,2.2-0.6,3.5-1.7,3.9
			c-0.5,0.2-1.4,0.3-2.5,0.3h-14.5v4.8h9.3c0.7,0,1.3,0,1.6,0.1c0.4,0,0.8,0.2,1.2,0.4c0.8,0.4,1.3,1.7,1.3,3.7
			c0,2.2-0.6,3.5-1.8,3.9c-0.5,0.2-1.4,0.3-2.5,0.3h-9.2V69.3z"/>
	</g>
	<g>
		<path class="st0" d="M115.6,19.6c0.1-0.2,0.3-0.4,0.6-0.4c0.3-0.1,0.6-0.1,1-0.1c0.4,0,0.7,0,1,0.1c0.2,0.1,0.4,0.2,0.5,0.3
			c0.1,0.1,0.2,0.2,0.3,0.4c0.1,0.2,0.1,0.6,0.1,1.1v11.7c0,0.3,0,0.6,0,0.7c0,0.2-0.1,0.3-0.2,0.6c-0.2,0.4-0.7,0.6-1.6,0.6
			c-1,0-1.6-0.3-1.7-0.8c-0.1-0.2-0.1-0.6-0.1-1.1v-4.3h-5.6v4.3c0,0.3,0,0.6,0,0.7c0,0.2-0.1,0.3-0.2,0.6c-0.2,0.4-0.7,0.6-1.6,0.6
			c-1,0-1.6-0.3-1.7-0.8c-0.1-0.2-0.1-0.6-0.1-1.1V20.9c0-0.3,0-0.6,0-0.7c0-0.2,0.1-0.3,0.2-0.6c0.2-0.4,0.7-0.6,1.6-0.6
			c1,0,1.6,0.3,1.7,0.8c0.1,0.2,0.1,0.6,0.1,1.1v4.3h5.6v-4.3c0-0.3,0-0.6,0-0.7C115.4,20,115.5,19.8,115.6,19.6z"/>
		<path class="st0" d="M128.3,18.8c2.1,0,3.9,0.7,5.4,2.2c1.5,1.5,2.3,3.4,2.3,5.6c0,2.2-0.7,4.1-2.2,5.7c-1.5,1.6-3.2,2.3-5.4,2.3
			c-2.1,0-3.9-0.8-5.4-2.3c-1.5-1.5-2.2-3.4-2.2-5.5c0-1.2,0.2-2.3,0.6-3.3c0.4-1,1-1.9,1.7-2.6c0.7-0.7,1.5-1.2,2.4-1.6
			C126.4,19,127.3,18.8,128.3,18.8z M124.4,26.8c0,1.2,0.4,2.3,1.2,3c0.8,0.8,1.7,1.2,2.7,1.2c1,0,1.9-0.4,2.7-1.1
			c0.8-0.8,1.2-1.8,1.2-3c0-1.3-0.4-2.3-1.2-3.1c-0.8-0.8-1.7-1.2-2.7-1.2c-1,0-1.9,0.4-2.7,1.2C124.8,24.5,124.4,25.5,124.4,26.8z"
			/>
		<path class="st0" d="M153.9,19.6c0.1,0.2,0.2,0.4,0.2,0.6c0,0.2,0,0.4,0,0.7v11.7c0,1-0.3,1.5-0.8,1.7c-0.3,0.1-0.6,0.1-1,0.1
			c-0.4,0-0.7,0-1-0.1c-0.2-0.1-0.4-0.2-0.5-0.3c-0.1-0.1-0.2-0.2-0.3-0.4c-0.1-0.2-0.1-0.6-0.1-1.1v-7c-0.4,0.4-0.9,1.1-1.5,2.1
			c-0.7,0.9-1.1,1.5-1.3,1.8s-0.3,0.4-0.4,0.5c-0.1,0.1-0.2,0.2-0.5,0.4c-0.3,0.2-0.6,0.2-0.9,0.2c-0.3,0-0.6-0.1-0.9-0.2
			c-0.3-0.1-0.4-0.3-0.6-0.4l-0.2-0.2c-0.3-0.4-0.8-1.1-1.7-2.2c-0.8-1.1-1.3-1.8-1.3-1.8v7.1c0,0.3,0,0.6,0,0.7
			c0,0.2-0.1,0.3-0.2,0.5c-0.2,0.4-0.8,0.6-1.6,0.6c-0.9,0-1.4-0.2-1.6-0.6c-0.1-0.2-0.2-0.4-0.2-0.5c0-0.2,0-0.4,0-0.8V20.9
			c0-0.3,0-0.6,0-0.7c0-0.2,0.1-0.3,0.2-0.6c0.2-0.4,0.8-0.5,1.6-0.5c0.4,0,0.7,0,1,0.1c0.3,0.1,0.5,0.2,0.5,0.3l0.1,0.1l4.8,6.3
			c2.4-3.2,4-5.2,4.8-6.2c0.2-0.4,0.8-0.6,1.7-0.6C153.1,19.1,153.7,19.2,153.9,19.6z"/>
		<path class="st0" d="M160,30.7h6.5c0.3,0,0.6,0,0.7,0c0.2,0,0.3,0.1,0.6,0.2c0.4,0.2,0.6,0.7,0.6,1.6c0,1-0.3,1.6-0.8,1.7
			c-0.2,0.1-0.6,0.1-1.1,0.1h-8.3c-1,0-1.6-0.3-1.7-0.8c-0.1-0.2-0.1-0.6-0.1-1.1V20.9c0-0.7,0.1-1.2,0.4-1.5
			c0.3-0.3,0.8-0.4,1.5-0.4h8.3c0.3,0,0.6,0,0.7,0c0.2,0,0.3,0.1,0.6,0.2c0.4,0.2,0.6,0.7,0.6,1.6c0,1-0.3,1.6-0.8,1.7
			c-0.2,0.1-0.6,0.1-1.1,0.1H160v2.1h4.2c0.3,0,0.6,0,0.7,0c0.2,0,0.3,0.1,0.6,0.2c0.4,0.2,0.6,0.7,0.6,1.6c0,1-0.3,1.6-0.8,1.7
			c-0.2,0.1-0.6,0.1-1.1,0.1H160V30.7z"/>
		<path class="st0" d="M169.9,32.3c-0.4-0.4-0.5-0.9-0.5-1.2s0.3-0.8,0.9-1.4c0.3-0.3,0.7-0.5,1.1-0.5c0.4,0,0.9,0.4,1.6,1.1
			c0.2,0.2,0.5,0.5,0.8,0.7c0.4,0.2,0.7,0.3,1,0.3c1.3,0,2-0.5,2-1.6c0-0.3-0.2-0.6-0.5-0.8c-0.4-0.2-0.8-0.4-1.3-0.5
			c-0.5-0.1-1.1-0.3-1.7-0.5c-0.6-0.2-1.2-0.5-1.7-0.8c-0.5-0.3-1-0.8-1.3-1.4c-0.4-0.6-0.5-1.4-0.5-2.3c0-1.2,0.5-2.3,1.4-3.2
			c0.9-0.9,2.2-1.4,3.7-1.4c0.8,0,1.6,0.1,2.3,0.3c0.7,0.2,1.2,0.4,1.4,0.7l0.5,0.4c0.4,0.4,0.7,0.7,0.7,1c0,0.3-0.2,0.7-0.5,1.2
			c-0.5,0.7-1,1.1-1.5,1.1c-0.3,0-0.7-0.1-1.1-0.4c0,0-0.1-0.1-0.2-0.2c-0.1-0.1-0.2-0.2-0.3-0.3c-0.3-0.2-0.7-0.3-1.1-0.3
			c-0.5,0-0.8,0.1-1.1,0.3c-0.3,0.2-0.5,0.5-0.5,0.9c0,0.4,0.2,0.7,0.5,0.9c0.4,0.2,0.8,0.4,1.3,0.5c0.5,0.1,1.1,0.2,1.7,0.4
			c0.6,0.2,1.2,0.4,1.7,0.6c0.5,0.3,1,0.7,1.3,1.3c0.4,0.6,0.5,1.4,0.5,2.3c0,0.9-0.2,1.7-0.5,2.4c-0.4,0.7-0.8,1.2-1.4,1.6
			c-1.1,0.7-2.3,1.1-3.6,1.1c-0.7,0-1.3-0.1-1.9-0.2c-0.6-0.2-1.1-0.4-1.4-0.6c-0.7-0.4-1.3-0.9-1.6-1.3L169.9,32.3z"/>
		<path class="st0" d="M195.7,19c0.3,0,0.6,0,0.7,0c0.2,0,0.3,0.1,0.5,0.2c0.2,0.1,0.3,0.3,0.4,0.6c0.1,0.3,0.1,0.6,0.1,1.1
			s0,0.8-0.1,1.1c-0.1,0.3-0.2,0.5-0.4,0.6s-0.4,0.2-0.6,0.2c-0.2,0-0.4,0-0.7,0h-6.4v2.1h4.1c0.3,0,0.6,0,0.7,0
			c0.2,0,0.3,0.1,0.6,0.2c0.4,0.2,0.5,0.8,0.5,1.7c0,1-0.3,1.6-0.8,1.7c-0.2,0.1-0.6,0.1-1.1,0.1h-4.1v4c0,0.3,0,0.6,0,0.7
			c0,0.2-0.1,0.3-0.2,0.5c-0.2,0.4-0.7,0.6-1.6,0.6c-1,0-1.6-0.3-1.7-0.8c-0.1-0.2-0.1-0.6-0.1-1.1V20.9c0-0.7,0.1-1.2,0.4-1.5
			c0.3-0.3,0.8-0.4,1.5-0.4H195.7z"/>
		<path class="st0" d="M210.4,31.8c0.2,0.5,0.3,0.9,0.3,1.1c0,0.5-0.4,1-1.3,1.3c-0.4,0.2-0.8,0.3-1.1,0.3s-0.5-0.1-0.7-0.2
			c-0.2-0.1-0.3-0.3-0.4-0.4c-0.1-0.3-0.7-1.5-1.6-3.8l-0.7,0h-2.6v2.4c0,0.3,0,0.6,0,0.7c0,0.2-0.1,0.3-0.2,0.6
			c-0.2,0.4-0.7,0.6-1.6,0.6c-1,0-1.6-0.3-1.7-0.8c-0.1-0.2-0.1-0.6-0.1-1.1V20.9c0-0.3,0-0.6,0-0.7c0-0.2,0.1-0.3,0.2-0.6
			c0.2-0.4,0.7-0.6,1.6-0.6h4.5c1.2,0,2.4,0.4,3.6,1.3c0.6,0.4,1,1,1.4,1.8c0.4,0.7,0.5,1.6,0.5,2.5c0,1.6-0.5,2.9-1.6,3.9
			C209.3,29.3,209.8,30.4,210.4,31.8z M202.4,26.5h2.7c0.4,0,0.8-0.2,1.2-0.5c0.4-0.3,0.6-0.8,0.6-1.4c0-0.6-0.2-1.1-0.6-1.4
			c-0.4-0.3-0.8-0.5-1.3-0.5h-2.6V26.5z"/>
		<path class="st0" d="M219.2,18.8c2.1,0,3.9,0.7,5.4,2.2c1.5,1.5,2.3,3.4,2.3,5.6c0,2.2-0.7,4.1-2.2,5.7c-1.5,1.6-3.2,2.3-5.4,2.3
			c-2.1,0-3.9-0.8-5.4-2.3c-1.5-1.5-2.2-3.4-2.2-5.5c0-1.2,0.2-2.3,0.6-3.3c0.4-1,1-1.9,1.7-2.6c0.7-0.7,1.5-1.2,2.4-1.6
			C217.3,19,218.3,18.8,219.2,18.8z M215.4,26.8c0,1.2,0.4,2.3,1.2,3c0.8,0.8,1.7,1.2,2.7,1.2c1,0,1.9-0.4,2.7-1.1
			c0.8-0.8,1.2-1.8,1.2-3c0-1.3-0.4-2.3-1.2-3.1c-0.8-0.8-1.7-1.2-2.7-1.2c-1,0-1.9,0.4-2.7,1.2C215.8,24.5,215.4,25.5,215.4,26.8z"
			/>
		<path class="st0" d="M244.8,19.6c0.1,0.2,0.2,0.4,0.2,0.6c0,0.2,0,0.4,0,0.7v11.7c0,1-0.3,1.5-0.8,1.7c-0.3,0.1-0.6,0.1-1,0.1
			c-0.4,0-0.7,0-1-0.1c-0.2-0.1-0.4-0.2-0.5-0.3c-0.1-0.1-0.2-0.2-0.3-0.4c-0.1-0.2-0.1-0.6-0.1-1.1v-7c-0.4,0.4-0.9,1.1-1.5,2.1
			s-1.1,1.5-1.3,1.8s-0.3,0.4-0.4,0.5c-0.1,0.1-0.2,0.2-0.5,0.4c-0.3,0.2-0.6,0.2-0.9,0.2c-0.3,0-0.6-0.1-0.9-0.2
			c-0.3-0.1-0.4-0.3-0.6-0.4l-0.2-0.2c-0.3-0.4-0.8-1.1-1.7-2.2c-0.8-1.1-1.3-1.8-1.3-1.8v7.1c0,0.3,0,0.6,0,0.7
			c0,0.2-0.1,0.3-0.2,0.5c-0.2,0.4-0.8,0.6-1.6,0.6c-0.9,0-1.4-0.2-1.6-0.6c-0.1-0.2-0.2-0.4-0.2-0.5c0-0.2,0-0.4,0-0.8V20.9
			c0-0.3,0-0.6,0-0.7c0-0.2,0.1-0.3,0.2-0.6c0.2-0.4,0.8-0.5,1.6-0.5c0.4,0,0.7,0,1,0.1c0.3,0.1,0.5,0.2,0.5,0.3l0.1,0.1l4.8,6.3
			c2.4-3.2,4-5.2,4.8-6.2c0.2-0.4,0.8-0.6,1.7-0.6C244.1,19.1,244.6,19.2,244.8,19.6z"/>
		<path class="st0" d="M253.1,19h11.7c0.4,0,0.8,0.1,1,0.2s0.4,0.3,0.4,0.5c0.1,0.2,0.1,0.5,0.1,0.9c0,0.4,0,0.7-0.1,0.9
			c-0.1,0.2-0.2,0.4-0.4,0.5c-0.3,0.1-0.6,0.2-1.1,0.2h-4v10.6c0,0.3,0,0.6,0,0.7c0,0.2-0.1,0.3-0.2,0.5c-0.1,0.2-0.3,0.3-0.6,0.4
			c-0.3,0.1-0.6,0.1-1.1,0.1c-0.4,0-0.8,0-1-0.1c-0.3-0.1-0.4-0.2-0.5-0.4c-0.1-0.2-0.2-0.4-0.2-0.5c0-0.2,0-0.4,0-0.7V22.1h-4
			c-0.4,0-0.8-0.1-1-0.2c-0.2-0.1-0.4-0.3-0.4-0.5c-0.1-0.2-0.1-0.5-0.1-0.9c0-0.4,0-0.7,0.1-0.9c0.1-0.2,0.2-0.4,0.4-0.5
			C252.3,19.1,252.6,19,253.1,19z"/>
		<path class="st0" d="M276.8,19.6c0.1-0.2,0.3-0.4,0.6-0.4c0.3-0.1,0.6-0.1,1-0.1c0.4,0,0.7,0,1,0.1c0.2,0.1,0.4,0.2,0.5,0.3
			c0.1,0.1,0.2,0.2,0.3,0.4c0.1,0.2,0.1,0.6,0.1,1.1v11.7c0,0.3,0,0.6,0,0.7c0,0.2-0.1,0.3-0.2,0.6c-0.2,0.4-0.7,0.6-1.6,0.6
			c-1,0-1.6-0.3-1.7-0.8c-0.1-0.2-0.1-0.6-0.1-1.1v-4.3H271v4.3c0,0.3,0,0.6,0,0.7c0,0.2-0.1,0.3-0.2,0.6c-0.2,0.4-0.7,0.6-1.6,0.6
			c-1,0-1.6-0.3-1.7-0.8c-0.1-0.2-0.1-0.6-0.1-1.1V20.9c0-0.3,0-0.6,0-0.7c0-0.2,0.1-0.3,0.2-0.6c0.2-0.4,0.7-0.6,1.6-0.6
			c1,0,1.6,0.3,1.7,0.8c0.1,0.2,0.1,0.6,0.1,1.1v4.3h5.6v-4.3c0-0.3,0-0.6,0-0.7C276.6,20,276.7,19.8,276.8,19.6z"/>
		<path class="st0" d="M286.2,30.7h6.5c0.3,0,0.6,0,0.7,0c0.2,0,0.3,0.1,0.6,0.2c0.4,0.2,0.6,0.7,0.6,1.6c0,1-0.3,1.6-0.8,1.7
			c-0.2,0.1-0.6,0.1-1.1,0.1h-8.3c-1,0-1.6-0.3-1.7-0.8c-0.1-0.2-0.1-0.6-0.1-1.1V20.9c0-0.7,0.1-1.2,0.4-1.5
			c0.3-0.3,0.8-0.4,1.5-0.4h8.3c0.3,0,0.6,0,0.7,0c0.2,0,0.3,0.1,0.6,0.2c0.4,0.2,0.6,0.7,0.6,1.6c0,1-0.3,1.6-0.8,1.7
			c-0.2,0.1-0.6,0.1-1.1,0.1h-6.4v2.1h4.2c0.3,0,0.6,0,0.7,0c0.2,0,0.3,0.1,0.6,0.2c0.4,0.2,0.6,0.7,0.6,1.6c0,1-0.3,1.6-0.8,1.7
			c-0.2,0.1-0.6,0.1-1.1,0.1h-4.1V30.7z"/>
	</g>
	<g>
		<path class="st1" d="M115.6,19.6c0.1-0.2,0.3-0.4,0.6-0.4c0.3-0.1,0.6-0.1,1-0.1c0.4,0,0.7,0,1,0.1c0.2,0.1,0.4,0.2,0.5,0.3
			c0.1,0.1,0.2,0.2,0.3,0.4c0.1,0.2,0.1,0.6,0.1,1.1v11.7c0,0.3,0,0.6,0,0.7c0,0.2-0.1,0.3-0.2,0.6c-0.2,0.4-0.7,0.6-1.6,0.6
			c-1,0-1.6-0.3-1.7-0.8c-0.1-0.2-0.1-0.6-0.1-1.1v-4.3h-5.6v4.3c0,0.3,0,0.6,0,0.7c0,0.2-0.1,0.3-0.2,0.6c-0.2,0.4-0.7,0.6-1.6,0.6
			c-1,0-1.6-0.3-1.7-0.8c-0.1-0.2-0.1-0.6-0.1-1.1V20.9c0-0.3,0-0.6,0-0.7c0-0.2,0.1-0.3,0.2-0.6c0.2-0.4,0.7-0.6,1.6-0.6
			c1,0,1.6,0.3,1.7,0.8c0.1,0.2,0.1,0.6,0.1,1.1v4.3h5.6v-4.3c0-0.3,0-0.6,0-0.7C115.4,20,115.5,19.8,115.6,19.6z"/>
		<path class="st1" d="M128.3,18.8c2.1,0,3.9,0.7,5.4,2.2c1.5,1.5,2.3,3.4,2.3,5.6c0,2.2-0.7,4.1-2.2,5.7c-1.5,1.6-3.2,2.3-5.4,2.3
			c-2.1,0-3.9-0.8-5.4-2.3c-1.5-1.5-2.2-3.4-2.2-5.5c0-1.2,0.2-2.3,0.6-3.3c0.4-1,1-1.9,1.7-2.6c0.7-0.7,1.5-1.2,2.4-1.6
			C126.4,19,127.3,18.8,128.3,18.8z M124.4,26.8c0,1.2,0.4,2.3,1.2,3c0.8,0.8,1.7,1.2,2.7,1.2c1,0,1.9-0.4,2.7-1.1
			c0.8-0.8,1.2-1.8,1.2-3c0-1.3-0.4-2.3-1.2-3.1c-0.8-0.8-1.7-1.2-2.7-1.2c-1,0-1.9,0.4-2.7,1.2C124.8,24.5,124.4,25.5,124.4,26.8z"
			/>
		<path class="st1" d="M153.9,19.6c0.1,0.2,0.2,0.4,0.2,0.6c0,0.2,0,0.4,0,0.7v11.7c0,1-0.3,1.5-0.8,1.7c-0.3,0.1-0.6,0.1-1,0.1
			c-0.4,0-0.7,0-1-0.1c-0.2-0.1-0.4-0.2-0.5-0.3c-0.1-0.1-0.2-0.2-0.3-0.4c-0.1-0.2-0.1-0.6-0.1-1.1v-7c-0.4,0.4-0.9,1.1-1.5,2.1
			c-0.7,0.9-1.1,1.5-1.3,1.8s-0.3,0.4-0.4,0.5c-0.1,0.1-0.2,0.2-0.5,0.4c-0.3,0.2-0.6,0.2-0.9,0.2c-0.3,0-0.6-0.1-0.9-0.2
			c-0.3-0.1-0.4-0.3-0.6-0.4l-0.2-0.2c-0.3-0.4-0.8-1.1-1.7-2.2c-0.8-1.1-1.3-1.8-1.3-1.8v7.1c0,0.3,0,0.6,0,0.7
			c0,0.2-0.1,0.3-0.2,0.5c-0.2,0.4-0.8,0.6-1.6,0.6c-0.9,0-1.4-0.2-1.6-0.6c-0.1-0.2-0.2-0.4-0.2-0.5c0-0.2,0-0.4,0-0.8V20.9
			c0-0.3,0-0.6,0-0.7c0-0.2,0.1-0.3,0.2-0.6c0.2-0.4,0.8-0.5,1.6-0.5c0.4,0,0.7,0,1,0.1c0.3,0.1,0.5,0.2,0.5,0.3l0.1,0.1l4.8,6.3
			c2.4-3.2,4-5.2,4.8-6.2c0.2-0.4,0.8-0.6,1.7-0.6C153.1,19.1,153.7,19.2,153.9,19.6z"/>
		<path class="st1" d="M160,30.7h6.5c0.3,0,0.6,0,0.7,0c0.2,0,0.3,0.1,0.6,0.2c0.4,0.2,0.6,0.7,0.6,1.6c0,1-0.3,1.6-0.8,1.7
			c-0.2,0.1-0.6,0.1-1.1,0.1h-8.3c-1,0-1.6-0.3-1.7-0.8c-0.1-0.2-0.1-0.6-0.1-1.1V20.9c0-0.7,0.1-1.2,0.4-1.5
			c0.3-0.3,0.8-0.4,1.5-0.4h8.3c0.3,0,0.6,0,0.7,0c0.2,0,0.3,0.1,0.6,0.2c0.4,0.2,0.6,0.7,0.6,1.6c0,1-0.3,1.6-0.8,1.7
			c-0.2,0.1-0.6,0.1-1.1,0.1H160v2.1h4.2c0.3,0,0.6,0,0.7,0c0.2,0,0.3,0.1,0.6,0.2c0.4,0.2,0.6,0.7,0.6,1.6c0,1-0.3,1.6-0.8,1.7
			c-0.2,0.1-0.6,0.1-1.1,0.1H160V30.7z"/>
		<path class="st1" d="M169.9,32.3c-0.4-0.4-0.5-0.9-0.5-1.2s0.3-0.8,0.9-1.4c0.3-0.3,0.7-0.5,1.1-0.5c0.4,0,0.9,0.4,1.6,1.1
			c0.2,0.2,0.5,0.5,0.8,0.7c0.4,0.2,0.7,0.3,1,0.3c1.3,0,2-0.5,2-1.6c0-0.3-0.2-0.6-0.5-0.8c-0.4-0.2-0.8-0.4-1.3-0.5
			c-0.5-0.1-1.1-0.3-1.7-0.5c-0.6-0.2-1.2-0.5-1.7-0.8c-0.5-0.3-1-0.8-1.3-1.4c-0.4-0.6-0.5-1.4-0.5-2.3c0-1.2,0.5-2.3,1.4-3.2
			c0.9-0.9,2.2-1.4,3.7-1.4c0.8,0,1.6,0.1,2.3,0.3c0.7,0.2,1.2,0.4,1.4,0.7l0.5,0.4c0.4,0.4,0.7,0.7,0.7,1c0,0.3-0.2,0.7-0.5,1.2
			c-0.5,0.7-1,1.1-1.5,1.1c-0.3,0-0.7-0.1-1.1-0.4c0,0-0.1-0.1-0.2-0.2c-0.1-0.1-0.2-0.2-0.3-0.3c-0.3-0.2-0.7-0.3-1.1-0.3
			c-0.5,0-0.8,0.1-1.1,0.3c-0.3,0.2-0.5,0.5-0.5,0.9c0,0.4,0.2,0.7,0.5,0.9c0.4,0.2,0.8,0.4,1.3,0.5c0.5,0.1,1.1,0.2,1.7,0.4
			c0.6,0.2,1.2,0.4,1.7,0.6c0.5,0.3,1,0.7,1.3,1.3c0.4,0.6,0.5,1.4,0.5,2.3c0,0.9-0.2,1.7-0.5,2.4c-0.4,0.7-0.8,1.2-1.4,1.6
			c-1.1,0.7-2.3,1.1-3.6,1.1c-0.7,0-1.3-0.1-1.9-0.2c-0.6-0.2-1.1-0.4-1.4-0.6c-0.7-0.4-1.3-0.9-1.6-1.3L169.9,32.3z"/>
		<path class="st1" d="M195.7,19c0.3,0,0.6,0,0.7,0c0.2,0,0.3,0.1,0.5,0.2c0.2,0.1,0.3,0.3,0.4,0.6c0.1,0.3,0.1,0.6,0.1,1.1
			s0,0.8-0.1,1.1c-0.1,0.3-0.2,0.5-0.4,0.6s-0.4,0.2-0.6,0.2c-0.2,0-0.4,0-0.7,0h-6.4v2.1h4.1c0.3,0,0.6,0,0.7,0
			c0.2,0,0.3,0.1,0.6,0.2c0.4,0.2,0.5,0.8,0.5,1.7c0,1-0.3,1.6-0.8,1.7c-0.2,0.1-0.6,0.1-1.1,0.1h-4.1v4c0,0.3,0,0.6,0,0.7
			c0,0.2-0.1,0.3-0.2,0.5c-0.2,0.4-0.7,0.6-1.6,0.6c-1,0-1.6-0.3-1.7-0.8c-0.1-0.2-0.1-0.6-0.1-1.1V20.9c0-0.7,0.1-1.2,0.4-1.5
			c0.3-0.3,0.8-0.4,1.5-0.4H195.7z"/>
		<path class="st1" d="M210.4,31.8c0.2,0.5,0.3,0.9,0.3,1.1c0,0.5-0.4,1-1.3,1.3c-0.4,0.2-0.8,0.3-1.1,0.3s-0.5-0.1-0.7-0.2
			c-0.2-0.1-0.3-0.3-0.4-0.4c-0.1-0.3-0.7-1.5-1.6-3.8l-0.7,0h-2.6v2.4c0,0.3,0,0.6,0,0.7c0,0.2-0.1,0.3-0.2,0.6
			c-0.2,0.4-0.7,0.6-1.6,0.6c-1,0-1.6-0.3-1.7-0.8c-0.1-0.2-0.1-0.6-0.1-1.1V20.9c0-0.3,0-0.6,0-0.7c0-0.2,0.1-0.3,0.2-0.6
			c0.2-0.4,0.7-0.6,1.6-0.6h4.5c1.2,0,2.4,0.4,3.6,1.3c0.6,0.4,1,1,1.4,1.8c0.4,0.7,0.5,1.6,0.5,2.5c0,1.6-0.5,2.9-1.6,3.9
			C209.3,29.3,209.8,30.4,210.4,31.8z M202.4,26.5h2.7c0.4,0,0.8-0.2,1.2-0.5c0.4-0.3,0.6-0.8,0.6-1.4c0-0.6-0.2-1.1-0.6-1.4
			c-0.4-0.3-0.8-0.5-1.3-0.5h-2.6V26.5z"/>
		<path class="st1" d="M219.2,18.8c2.1,0,3.9,0.7,5.4,2.2c1.5,1.5,2.3,3.4,2.3,5.6c0,2.2-0.7,4.1-2.2,5.7c-1.5,1.6-3.2,2.3-5.4,2.3
			c-2.1,0-3.9-0.8-5.4-2.3c-1.5-1.5-2.2-3.4-2.2-5.5c0-1.2,0.2-2.3,0.6-3.3c0.4-1,1-1.9,1.7-2.6c0.7-0.7,1.5-1.2,2.4-1.6
			C217.3,19,218.3,18.8,219.2,18.8z M215.4,26.8c0,1.2,0.4,2.3,1.2,3c0.8,0.8,1.7,1.2,2.7,1.2c1,0,1.9-0.4,2.7-1.1
			c0.8-0.8,1.2-1.8,1.2-3c0-1.3-0.4-2.3-1.2-3.1c-0.8-0.8-1.7-1.2-2.7-1.2c-1,0-1.9,0.4-2.7,1.2C215.8,24.5,215.4,25.5,215.4,26.8z"
			/>
		<path class="st1" d="M244.8,19.6c0.1,0.2,0.2,0.4,0.2,0.6c0,0.2,0,0.4,0,0.7v11.7c0,1-0.3,1.5-0.8,1.7c-0.3,0.1-0.6,0.1-1,0.1
			c-0.4,0-0.7,0-1-0.1c-0.2-0.1-0.4-0.2-0.5-0.3c-0.1-0.1-0.2-0.2-0.3-0.4c-0.1-0.2-0.1-0.6-0.1-1.1v-7c-0.4,0.4-0.9,1.1-1.5,2.1
			s-1.1,1.5-1.3,1.8s-0.3,0.4-0.4,0.5c-0.1,0.1-0.2,0.2-0.5,0.4c-0.3,0.2-0.6,0.2-0.9,0.2c-0.3,0-0.6-0.1-0.9-0.2
			c-0.3-0.1-0.4-0.3-0.6-0.4l-0.2-0.2c-0.3-0.4-0.8-1.1-1.7-2.2c-0.8-1.1-1.3-1.8-1.3-1.8v7.1c0,0.3,0,0.6,0,0.7
			c0,0.2-0.1,0.3-0.2,0.5c-0.2,0.4-0.8,0.6-1.6,0.6c-0.9,0-1.4-0.2-1.6-0.6c-0.1-0.2-0.2-0.4-0.2-0.5c0-0.2,0-0.4,0-0.8V20.9
			c0-0.3,0-0.6,0-0.7c0-0.2,0.1-0.3,0.2-0.6c0.2-0.4,0.8-0.5,1.6-0.5c0.4,0,0.7,0,1,0.1c0.3,0.1,0.5,0.2,0.5,0.3l0.1,0.1l4.8,6.3
			c2.4-3.2,4-5.2,4.8-6.2c0.2-0.4,0.8-0.6,1.7-0.6C244.1,19.1,244.6,19.2,244.8,19.6z"/>
		<path class="st1" d="M253.1,19h11.7c0.4,0,0.8,0.1,1,0.2s0.4,0.3,0.4,0.5c0.1,0.2,0.1,0.5,0.1,0.9c0,0.4,0,0.7-0.1,0.9
			c-0.1,0.2-0.2,0.4-0.4,0.5c-0.3,0.1-0.6,0.2-1.1,0.2h-4v10.6c0,0.3,0,0.6,0,0.7c0,0.2-0.1,0.3-0.2,0.5c-0.1,0.2-0.3,0.3-0.6,0.4
			c-0.3,0.1-0.6,0.1-1.1,0.1c-0.4,0-0.8,0-1-0.1c-0.3-0.1-0.4-0.2-0.5-0.4c-0.1-0.2-0.2-0.4-0.2-0.5c0-0.2,0-0.4,0-0.7V22.1h-4
			c-0.4,0-0.8-0.1-1-0.2c-0.2-0.1-0.4-0.3-0.4-0.5c-0.1-0.2-0.1-0.5-0.1-0.9c0-0.4,0-0.7,0.1-0.9c0.1-0.2,0.2-0.4,0.4-0.5
			C252.3,19.1,252.6,19,253.1,19z"/>
		<path class="st1" d="M276.8,19.6c0.1-0.2,0.3-0.4,0.6-0.4c0.3-0.1,0.6-0.1,1-0.1c0.4,0,0.7,0,1,0.1c0.2,0.1,0.4,0.2,0.5,0.3
			c0.1,0.1,0.2,0.2,0.3,0.4c0.1,0.2,0.1,0.6,0.1,1.1v11.7c0,0.3,0,0.6,0,0.7c0,0.2-0.1,0.3-0.2,0.6c-0.2,0.4-0.7,0.6-1.6,0.6
			c-1,0-1.6-0.3-1.7-0.8c-0.1-0.2-0.1-0.6-0.1-1.1v-4.3H271v4.3c0,0.3,0,0.6,0,0.7c0,0.2-0.1,0.3-0.2,0.6c-0.2,0.4-0.7,0.6-1.6,0.6
			c-1,0-1.6-0.3-1.7-0.8c-0.1-0.2-0.1-0.6-0.1-1.1V20.9c0-0.3,0-0.6,0-0.7c0-0.2,0.1-0.3,0.2-0.6c0.2-0.4,0.7-0.6,1.6-0.6
			c1,0,1.6,0.3,1.7,0.8c0.1,0.2,0.1,0.6,0.1,1.1v4.3h5.6v-4.3c0-0.3,0-0.6,0-0.7C276.6,20,276.7,19.8,276.8,19.6z"/>
		<path class="st1" d="M286.2,30.7h6.5c0.3,0,0.6,0,0.7,0c0.2,0,0.3,0.1,0.6,0.2c0.4,0.2,0.6,0.7,0.6,1.6c0,1-0.3,1.6-0.8,1.7
			c-0.2,0.1-0.6,0.1-1.1,0.1h-8.3c-1,0-1.6-0.3-1.7-0.8c-0.1-0.2-0.1-0.6-0.1-1.1V20.9c0-0.7,0.1-1.2,0.4-1.5
			c0.3-0.3,0.8-0.4,1.5-0.4h8.3c0.3,0,0.6,0,0.7,0c0.2,0,0.3,0.1,0.6,0.2c0.4,0.2,0.6,0.7,0.6,1.6c0,1-0.3,1.6-0.8,1.7
			c-0.2,0.1-0.6,0.1-1.1,0.1h-6.4v2.1h4.2c0.3,0,0.6,0,0.7,0c0.2,0,0.3,0.1,0.6,0.2c0.4,0.2,0.6,0.7,0.6,1.6c0,1-0.3,1.6-0.8,1.7
			c-0.2,0.1-0.6,0.1-1.1,0.1h-4.1V30.7z"/>
	</g>
	<g id="XMLID_9_">
		<g>
			<path class="st2" d="M80.2,17.9c2.2,0,4,1.8,4,4c0,2.2-1.8,4-4,4H69.4c-2.2,0-4-1.8-4-4c0-2.2,1.8-4,4-4H80.2z"/>
			<path class="st3" d="M73.2,56.9c0.1,1.2,0.3,2.5,0.9,3.7c-1.1,0.1-2.2,0.3-3.2,0.8c-0.1-1.2-0.4-2.5-1-3.6
				C71,57.8,72.1,57.5,73.2,56.9z"/>
			<path class="st4" d="M59.4,50.4c0.2,1,0.1,2-0.6,2.6c-0.5,0.4-1.3,0.8-2.1,1.2c-1.9,0.9-4.2,2.1-5.1,4.9
				c-0.3,0.8-0.4,1.7-0.6,2.4c-0.5,2.4-0.8,4-3.7,4.8c-2.3,0.6-3.3-0.3-4.9-2c-0.8-0.9-1.7-1.7-2.8-2.3c-1-0.5-2-0.7-3.1-0.8
				c-0.6-0.1-1.2-0.1-1.7-0.1c-1.7,0-3.4,0.3-4.8,0.6c-1.1,0.2-2.5-0.2-3.5-1.1c-0.9-0.8-1.4-1.7-1.3-2.6c0-0.8,0.2-1.6,0.4-2.4
				c0.4-2.2,0.9-4.6-0.5-7.4c-1.7-3.5-1.9-5-0.9-6.6c0.8-1.2,1.5-1.3,2.6-1.5c0.5-0.1,1-0.1,1.5-0.3l0.4-0.2
				c0.1-0.1,2.1-1.6,3.2-4.2c0.8-1.8,1.5-2.6,2.2-2.9c0.3-0.1,0.6-0.1,0.9-0.1c2.1,0.2,3.4,0.8,5,2.1c2.4,2,4.9,2.6,8.2,1.9
				c1.1-0.2,1.9-0.6,2.6-0.8c1.4-0.5,2-0.8,3.6,0c1.3,0.6,1.4,1.6,1.1,3.7c-0.1,0.5-0.1,0.9-0.1,1.4c0,0.8,0.3,1.8,0.6,2.8
				c0.6,1.7,1.6,3.5,2.6,4.6C58.8,48.6,59.2,49.5,59.4,50.4z"/>
			<path class="st1" d="M35,76.6c0.3,0.6,0.1,1.5-0.5,1.8c-1.2,0.7-2.6,1-4,1c-4.6,0-8.3-3.7-8.3-8.3c0-0.7,0.6-1.3,1.3-1.3
				c0.7,0,1.3,0.6,1.3,1.3c0,3.1,2.5,5.6,5.6,5.6c0.9,0,1.9-0.2,2.7-0.7C33.8,75.7,34.6,76,35,76.6z"/>
			<path class="st1" d="M34.3,81.7c0.3,0.6,0.1,1.5-0.5,1.8c-1.5,0.8-3.3,1.3-5.1,1.3c-5.8,0-10.5-4.7-10.5-10.5
				c0-0.7,0.6-1.3,1.3-1.3c0.7,0,1.3,0.6,1.3,1.3c0,4.3,3.5,7.9,7.9,7.9c1.3,0,2.6-0.3,3.8-1C33.2,80.8,34,81,34.3,81.7z"/>
			<ellipse class="st5" cx="31.7" cy="69.6" rx="2" ry="2"/>
			<g>
				<path class="st1" d="M9.8,54.5H6.7c-1.6,0-3,1.3-3,3v0.9c0,1.6,1.3,3,3,3h3.1c1.6,0,3-1.3,3-3v-0.9
					C12.8,55.9,11.4,54.5,9.8,54.5z M10.1,58.4c0,0.2-0.1,0.3-0.3,0.3H6.7c-0.2,0-0.3-0.1-0.3-0.3v-0.9c0-0.2,0.1-0.3,0.3-0.3h3.1
					c0.2,0,0.3,0.1,0.3,0.3V58.4z"/>
				<path class="st1" d="M9.8,43.6H6.7c-1.6,0-3,1.3-3,3v2.9c0,1.6,1.3,3,3,3h3.1c1.6,0,3-1.3,3-3v-2.9
					C12.8,44.9,11.4,43.6,9.8,43.6z M10.1,49.4c0,0.2-0.1,0.3-0.3,0.3H6.7c-0.2,0-0.3-0.1-0.3-0.3v-2.9c0-0.2,0.1-0.3,0.3-0.3h3.1
					c0.2,0,0.3,0.1,0.3,0.3V49.4z"/>
				<path class="st1" d="M38.1,64.3c0.1,0.1,0.3,0.1,0.4,0.2c0.7,0.3,1.3,1,1.9,1.7c1.3,1.3,2.9,3,5.6,3c0.6,0,1.3-0.1,2-0.3
					c4.5-1.2,5.1-4.2,5.6-6.8c0.1-0.7,0.3-1.5,0.5-2.2c0.6-1.7,2.1-2.5,3.8-3.3c0.9-0.5,1.9-0.9,2.6-1.6c1.2-1,1.7-2.5,1.6-4
					c1.2-0.3,3.1-0.7,5-0.8c1.5-0.1,2.3-0.1,2.6,0.2c0.2,0.1,0.3,0.6,0.3,1.2c0,1.5,0,2.8,0,3.6c-1.7,0.2-3.2-0.3-3.3-0.3
					c-0.7-0.2-1.4,0.1-1.6,0.7c-0.3,0.6,0,1.4,0.6,1.7c3.8,2,2.3,7.1,2.2,7.4c-0.2,0.7,0.1,1.4,0.8,1.6c0.2,0.1,0.3,0.1,0.5,0.1
					c0.5,0,0.9-0.3,1.2-0.7c1.9-3.7,6.5-2.1,6.7-2c0.7,0.2,1.4-0.1,1.7-0.7c0.3-0.6,0-1.4-0.6-1.7c-3.1-1.6-2.2-7.5-2.2-7.5
					c0.1-0.6-0.3-1.3-0.9-1.5c-0.6-0.2-1.3,0.1-1.6,0.6c-0.2,0.4-0.5,0.8-0.8,1c0-0.7,0-1.5,0-2.4c0-1.4-0.4-2.4-1.2-3.1
					c-1.1-1-2.6-1-4.6-0.9c-2,0.2-4,0.6-5.3,0.9c-0.3-0.8-0.8-1.5-1.2-2.1c-0.7-0.8-1.4-2.1-1.9-3.2c0.9-1.1,2.7-2.7,4.3-2.9
					C64,40,65.7,40,67.3,40c2.6-0.1,4.2-0.1,5.2-0.4c1.9-0.7,3.7-1.8,3.6-5.4c-0.1-1.9-0.1-4.1-0.2-5.6h4.2c3.7,0,6.6-3,6.6-6.6
					s-3-6.6-6.6-6.6H69.4c-3.7,0-6.6,3-6.6,6.6s3,6.6,6.6,6.6h3.8c0.1,1.4,0.1,3.8,0.2,5.7c0.1,2.1-0.7,2.4-1.9,2.8
					c-0.6,0.2-2.7,0.3-4.4,0.3c-1.7,0-3.4,0.1-4.8,0.2c-1.8,0.2-3.5,1.4-4.7,2.4c0-0.1,0-0.2,0.1-0.4c0.3-1.7,0.8-4.9-2.5-6.5
					c-2.6-1.3-4.1-0.7-5.7-0.1c-0.6,0.2-1.3,0.5-2.2,0.7c-3,0.7-4.6-0.2-5.9-1.3c-2-1.7-3.9-2.4-6.5-2.7h0c0.1-1.8,0.1-4.6-0.5-5.8
					c-1-2.2-4.7-2.7-7.8-2.4c-0.6,0.1-1.5,0.1-2.4,0.1c-4.1,0.1-8.8,0.3-8.9,3.3c0,0.4,0,0.9,0,1.4c0,1.1,0.1,2.8-0.3,3.3
					c0,0-0.1,0.1-0.5,0.1c-0.9,0-1.5,0-2,0v-6.2c0-2.5-2-4.5-4.5-4.5s-4.5,2-4.5,4.5v14.7c0,1.6,1.3,3,3,3h3.1c1.6,0,3-1.3,3-3v-5.9
					c0.5,0,1.1,0,2,0c1.2,0,2-0.6,2.4-1c1.2-1.3,1.1-3.4,1.1-5.2c0-0.4,0-0.8,0-1.1c0.8-0.6,4.6-0.7,6.3-0.8c1,0,1.9-0.1,2.6-0.1
					c3-0.3,4.9,0.4,5.1,0.9c0.3,0.6,0.3,3,0.2,5.2v0c-1.8,1-2.6,3-3.1,4c-0.6,1.5-1.7,2.6-2.2,2.9c-0.3,0.1-0.6,0.1-0.9,0.2
					c-1.3,0.2-3,0.4-4.5,2.6c-2,3.1-0.9,6,0.7,9.2c1,2,0.6,3.7,0.3,5.7c-0.2,0.9-0.3,1.8-0.4,2.8c-0.1,1.7,0.7,3.4,2.2,4.7
					c1.7,1.4,3.9,2.1,5.8,1.7c1.5-0.3,3.1-0.6,4.8-0.5c0.3,1.2,0.5,2.3,0.6,2.6v0c-0.2,0-0.4-0.1-0.9-0.3c-0.1,0-0.1,0-0.2-0.1
					c0,0,0,0,0,0c-0.8-0.7-1.9-1.2-3.1-1.2c-2.6,0-4.7,2.1-4.7,4.7c0,2.6,2.1,4.7,4.7,4.7c2.6,0,4.7-2.1,4.7-4.7c0-0.2,0-0.4,0-0.6
					c0.4,0,0.8-0.2,1.2-0.4c0.7-0.5,1.1-1.4,1-2.4C38.4,65.8,38.3,65.1,38.1,64.3 M10.1,38.4c0,0.2-0.1,0.3-0.3,0.3H6.7
					c-0.2,0-0.3-0.1-0.3-0.3V23.7c0-1,0.8-1.9,1.9-1.9s1.9,0.8,1.9,1.9V38.4z M31.7,71.6c-1.1,0-2-0.9-2-2c0-1.1,0.9-2,2-2
					c1.1,0,2,0.9,2,2C33.7,70.7,32.8,71.6,31.7,71.6z M73.2,56.9c0.1,1.2,0.3,2.5,0.9,3.7c-1.1,0.1-2.2,0.3-3.2,0.8
					c-0.1-1.2-0.4-2.5-1-3.6C71,57.8,72.1,57.5,73.2,56.9z M59.4,50.4c0.2,1,0.1,2-0.6,2.6c-0.5,0.4-1.3,0.8-2.1,1.2
					c-1.9,0.9-4.2,2.1-5.1,4.9c-0.3,0.8-0.4,1.7-0.6,2.4c-0.5,2.4-0.8,4-3.7,4.8c-2.3,0.6-3.3-0.3-4.9-2c-0.8-0.9-1.7-1.7-2.8-2.3
					c-1-0.5-2-0.7-3.1-0.8c-0.6-0.1-1.2-0.1-1.7-0.1c-1.7,0-3.4,0.3-4.8,0.6c-1.1,0.2-2.5-0.2-3.5-1.1c-0.9-0.8-1.4-1.7-1.3-2.6
					c0-0.8,0.2-1.6,0.4-2.4c0.4-2.2,0.9-4.6-0.5-7.4c-1.7-3.5-1.9-5-0.9-6.6c0.8-1.2,1.5-1.3,2.6-1.5c0.5-0.1,1-0.1,1.5-0.3l0.4-0.2
					c0.1-0.1,2.1-1.6,3.2-4.2c0.8-1.8,1.5-2.6,2.2-2.9c0.3-0.1,0.6-0.1,0.9-0.1c2.1,0.2,3.4,0.8,5,2.1c2.4,2,4.9,2.6,8.2,1.9
					c1.1-0.2,1.9-0.6,2.6-0.8c1.4-0.5,2-0.8,3.6,0c1.3,0.6,1.4,1.6,1.1,3.7c-0.1,0.5-0.1,0.9-0.1,1.4c0,0.8,0.3,1.8,0.6,2.8v0
					c0.6,1.7,1.6,3.5,2.6,4.6C58.8,48.6,59.2,49.5,59.4,50.4z M80.2,25.9H69.4c-2.2,0-4-1.8-4-4c0-2.2,1.8-4,4-4h10.7
					c2.2,0,4,1.8,4,4C84.2,24.1,82.4,25.9,80.2,25.9z"/>
			</g>
			<path class="st6" d="M10.1,57.5v0.9c0,0.2-0.1,0.3-0.3,0.3H6.7c-0.2,0-0.3-0.1-0.3-0.3v-0.9c0-0.2,0.1-0.3,0.3-0.3h3.1
				C10,57.2,10.1,57.3,10.1,57.5z"/>
			<path class="st5" d="M10.1,46.5v2.9c0,0.2-0.1,0.3-0.3,0.3H6.7c-0.2,0-0.3-0.1-0.3-0.3v-2.9c0-0.2,0.1-0.3,0.3-0.3h3.1
				C10,46.2,10.1,46.4,10.1,46.5z"/>
			<path class="st6" d="M10.1,23.7v14.7c0,0.2-0.1,0.3-0.3,0.3H6.7c-0.2,0-0.3-0.1-0.3-0.3V23.7c0-1,0.8-1.9,1.9-1.9
				S10.1,22.7,10.1,23.7z"/>
		</g>
	</g>
</g>
</svg>
