<?xml version="1.0" encoding="utf-8"?>
<!-- Generator: Adobe Illustrator 21.0.1, SVG Export Plug-In . SVG Version: 6.00 Build 0)  -->
<svg version="1.1" id="Layer_1" xmlns="http://www.w3.org/2000/svg" xmlns:xlink="http://www.w3.org/1999/xlink" x="0px" y="0px"
	 viewBox="0 0 300 82" style="enable-background:new 0 0 300 82;" xml:space="preserve">
<style type="text/css">
	.st0{fill:none;}
	.st1{clip-path:url(#SVGID_2_);}
	.st2{clip-path:url(#SVGID_4_);fill:#08425C;}
	.st3{clip-path:url(#SVGID_6_);}
	.st4{clip-path:url(#SVGID_8_);fill:#08425C;}
	.st5{clip-path:url(#SVGID_10_);}
	.st6{clip-path:url(#SVGID_12_);fill:#08425C;}
	.st7{clip-path:url(#SVGID_14_);}
	.st8{clip-path:url(#SVGID_16_);fill:#08425C;}
	.st9{clip-path:url(#SVGID_18_);}
	.st10{clip-path:url(#SVGID_20_);fill:#08425C;}
	.st11{clip-path:url(#SVGID_22_);}
	.st12{clip-path:url(#SVGID_24_);fill:#08425C;}
	.st13{clip-path:url(#SVGID_26_);}
	.st14{clip-path:url(#SVGID_28_);fill:#08425C;}
	.st15{clip-path:url(#SVGID_30_);}
	.st16{clip-path:url(#SVGID_32_);fill:#08425C;}
	.st17{clip-path:url(#SVGID_34_);}
	.st18{clip-path:url(#SVGID_36_);fill:#08425C;}
	.st19{clip-path:url(#SVGID_38_);}
	.st20{clip-path:url(#SVGID_40_);fill:#08425C;}
	.st21{clip-path:url(#SVGID_42_);}
	.st22{clip-path:url(#SVGID_44_);fill:#08425C;}
	.st23{clip-path:url(#SVGID_46_);}
	.st24{clip-path:url(#SVGID_48_);fill:#08425C;}
	.st25{clip-path:url(#SVGID_50_);}
	.st26{clip-path:url(#SVGID_52_);fill:#08425C;}
	.st27{clip-path:url(#SVGID_54_);}
	.st28{clip-path:url(#SVGID_56_);fill:#08425C;}
	.st29{clip-path:url(#SVGID_58_);}
	.st30{clip-path:url(#SVGID_60_);fill:#08425C;}
	.st31{clip-path:url(#SVGID_62_);}
	.st32{clip-path:url(#SVGID_64_);fill:#08425C;}
	.st33{clip-path:url(#SVGID_66_);}
	.st34{clip-path:url(#SVGID_68_);fill:#08425C;}
	.st35{clip-path:url(#SVGID_70_);}
	.st36{clip-path:url(#SVGID_72_);fill:#08425C;}
	.st37{clip-path:url(#SVGID_74_);}
	.st38{clip-path:url(#SVGID_76_);fill:#0C0C0C;}
	.st39{clip-path:url(#SVGID_78_);}
	.st40{clip-path:url(#SVGID_80_);fill:#0C0C0C;}
	.st41{clip-path:url(#SVGID_82_);}
	.st42{clip-path:url(#SVGID_84_);fill:#0C0C0C;}
	.st43{clip-path:url(#SVGID_86_);}
	.st44{clip-path:url(#SVGID_88_);fill:#0C0C0C;}
	.st45{clip-path:url(#SVGID_90_);}
	.st46{clip-path:url(#SVGID_92_);fill:#0C0C0C;}
	.st47{clip-path:url(#SVGID_94_);}
	.st48{clip-path:url(#SVGID_96_);fill:#0C0C0C;}
	.st49{clip-path:url(#SVGID_98_);}
	.st50{clip-path:url(#SVGID_100_);fill:#0C0C0C;}
	.st51{clip-path:url(#SVGID_102_);}
	.st52{clip-path:url(#SVGID_104_);fill:#0C0C0C;}
	.st53{clip-path:url(#SVGID_106_);}
	.st54{clip-path:url(#SVGID_108_);fill:#0C0C0C;}
	.st55{clip-path:url(#SVGID_110_);}
	.st56{clip-path:url(#SVGID_112_);fill:#0C0C0C;}
	.st57{clip-path:url(#SVGID_114_);}
	.st58{clip-path:url(#SVGID_116_);fill:#0C0C0C;}
	.st59{clip-path:url(#SVGID_118_);}
	.st60{clip-path:url(#SVGID_120_);fill:#0C0C0C;}
	.st61{clip-path:url(#SVGID_122_);}
	.st62{clip-path:url(#SVGID_124_);enable-background:new    ;}
	.st63{clip-path:url(#SVGID_126_);}
	.st64{clip-path:url(#SVGID_128_);}
	.st65{clip-path:url(#SVGID_130_);fill:#0C0C0C;}
	.st66{clip-path:url(#SVGID_132_);}
	.st67{clip-path:url(#SVGID_134_);fill:#FFC857;}
	.st68{clip-path:url(#SVGID_136_);}
	.st69{clip-path:url(#SVGID_138_);fill:#0C0C0C;}
	.st70{clip-path:url(#SVGID_140_);}
	.st71{clip-path:url(#SVGID_142_);fill:#0C0C0C;}
	.st72{clip-path:url(#SVGID_144_);}
	.st73{clip-path:url(#SVGID_146_);fill:#0C0C0C;}
	.st74{clip-path:url(#SVGID_148_);}
	.st75{clip-path:url(#SVGID_150_);fill:#34E5FF;}
	.st76{clip-path:url(#SVGID_152_);}
	.st77{clip-path:url(#SVGID_154_);fill:#0C0C0C;}
	.st78{clip-path:url(#SVGID_156_);}
	.st79{clip-path:url(#SVGID_158_);}
	.st80{clip-path:url(#SVGID_160_);}
	.st81{clip-path:url(#SVGID_162_);fill:#0C0C0C;}
	.st82{clip-path:url(#SVGID_164_);}
	.st83{clip-path:url(#SVGID_166_);}
	.st84{clip-path:url(#SVGID_168_);}
	.st85{clip-path:url(#SVGID_170_);}
	.st86{clip-path:url(#SVGID_172_);}
	.st87{clip-path:url(#SVGID_174_);fill:#4056F4;}
	.st88{clip-path:url(#SVGID_176_);}
	.st89{clip-path:url(#SVGID_178_);}
	.st90{clip-path:url(#SVGID_180_);}
	.st91{clip-path:url(#SVGID_182_);fill:#0C0C0C;}
	.st92{clip-path:url(#SVGID_184_);}
	.st93{clip-path:url(#SVGID_186_);fill:#0C0C0C;}
	.st94{clip-path:url(#SVGID_188_);}
	.st95{clip-path:url(#SVGID_190_);fill:#0C0C0C;}
	.st96{clip-path:url(#SVGID_192_);}
	.st97{clip-path:url(#SVGID_194_);fill:#0C0C0C;}
	.st98{clip-path:url(#SVGID_196_);}
	.st99{clip-path:url(#SVGID_198_);fill:#0C0C0C;}
	.st100{clip-path:url(#SVGID_200_);}
	.st101{clip-path:url(#SVGID_202_);fill:#0C0C0C;}
	.st102{clip-path:url(#SVGID_204_);}
	.st103{clip-path:url(#SVGID_206_);fill:#0C0C0C;}
	.st104{clip-path:url(#SVGID_208_);}
	.st105{clip-path:url(#SVGID_210_);}
	.st106{clip-path:url(#SVGID_212_);}
	.st107{clip-path:url(#SVGID_214_);fill:#0C0C0C;}
	.st108{clip-path:url(#SVGID_216_);}
	.st109{clip-path:url(#SVGID_218_);enable-background:new    ;}
	.st110{clip-path:url(#SVGID_220_);}
	.st111{clip-path:url(#SVGID_222_);}
	.st112{clip-path:url(#SVGID_224_);fill:#0C0C0C;}
	.st113{clip-path:url(#SVGID_226_);}
	.st114{clip-path:url(#SVGID_228_);fill:#F56376;}
	.st115{clip-path:url(#SVGID_230_);}
	.st116{clip-path:url(#SVGID_232_);enable-background:new    ;}
	.st117{clip-path:url(#SVGID_234_);}
	.st118{clip-path:url(#SVGID_236_);}
	.st119{clip-path:url(#SVGID_238_);fill:#0C0C0C;}
	.st120{clip-path:url(#SVGID_240_);}
	.st121{clip-path:url(#SVGID_242_);enable-background:new    ;}
	.st122{clip-path:url(#SVGID_244_);}
	.st123{clip-path:url(#SVGID_246_);}
	.st124{clip-path:url(#SVGID_248_);fill:#0C0C0C;}
	.st125{clip-path:url(#SVGID_250_);}
	.st126{clip-path:url(#SVGID_252_);enable-background:new    ;}
	.st127{clip-path:url(#SVGID_254_);}
	.st128{clip-path:url(#SVGID_256_);}
	.st129{clip-path:url(#SVGID_258_);fill:#0C0C0C;}
	.st130{clip-path:url(#SVGID_260_);}
	.st131{clip-path:url(#SVGID_262_);fill:#0C0C0C;}
	.st132{clip-path:url(#SVGID_264_);}
	.st133{clip-path:url(#SVGID_266_);fill:#40F99B;}
	.st134{clip-path:url(#SVGID_268_);}
	.st135{clip-path:url(#SVGID_270_);fill:#F56376;}
	.st136{clip-path:url(#SVGID_272_);}
	.st137{clip-path:url(#SVGID_274_);fill:#40F99B;}
</style>
<rect x="-76.4" y="-3075.5" class="st0" width="2328.9" height="3444.9"/>
<g>
	<g>
		<defs>
			<path id="SVGID_1_" d="M128.9,34.2c0.7,0,1.3,0,1.6,0.1c0.4,0,0.8,0.2,1.2,0.4c0.5,0.2,0.8,0.7,1,1.3c0.2,0.6,0.3,1.4,0.3,2.4
				c0,1-0.1,1.8-0.3,2.4c-0.2,0.6-0.5,1-1,1.2c-0.5,0.2-0.9,0.4-1.2,0.4c-0.4,0-0.9,0.1-1.7,0.1h-14.3v4.7h9.2c0.7,0,1.3,0,1.7,0.1
				c0.4,0,0.8,0.2,1.2,0.4c0.8,0.5,1.2,1.7,1.2,3.7c0,2.2-0.6,3.5-1.8,3.9c-0.5,0.2-1.3,0.2-2.4,0.2h-9.2v8.8c0,0.7,0,1.3-0.1,1.6
				c0,0.3-0.2,0.7-0.4,1.2c-0.4,0.8-1.7,1.3-3.7,1.3c-2.2,0-3.5-0.6-3.8-1.8c-0.2-0.5-0.3-1.3-0.3-2.4V38.3c0-1.6,0.3-2.7,0.9-3.2
				c0.6-0.6,1.7-0.9,3.4-0.9H128.9z"/>
		</defs>
		<clipPath id="SVGID_2_">
			<use xlink:href="#SVGID_1_"  style="overflow:visible;"/>
		</clipPath>
		<g class="st1">
			<defs>
				<rect id="SVGID_3_" x="-1375.3" y="-16.8" width="1813.2" height="1289.4"/>
			</defs>
			<clipPath id="SVGID_4_">
				<use xlink:href="#SVGID_3_"  style="overflow:visible;"/>
			</clipPath>
			<rect x="99.9" y="27.9" class="st2" width="39.4" height="46.7"/>
		</g>
	</g>
	<g>
		<defs>
			<path id="SVGID_5_" d="M157.6,35.4c0.3-0.5,0.8-0.8,1.4-1c0.6-0.2,1.3-0.3,2.2-0.3c0.9,0,1.6,0.1,2.1,0.2
				c0.5,0.2,0.9,0.3,1.2,0.6c0.3,0.2,0.5,0.5,0.6,1c0.2,0.5,0.3,1.3,0.3,2.4v14c0,4.1-1.3,7.8-3.8,11.2c-1.2,1.6-2.9,2.9-4.8,3.8
				c-2,1-4.1,1.5-6.5,1.5c-2.4,0-4.6-0.5-6.5-1.5c-2-1-3.5-2.3-4.8-3.9c-2.5-3.3-3.8-7-3.8-11.2v-14c0-0.7,0-1.3,0.1-1.7
				c0-0.4,0.2-0.8,0.4-1.2c0.2-0.5,0.7-0.8,1.3-1c0.6-0.2,1.4-0.3,2.4-0.3c1,0,1.8,0.1,2.4,0.3c0.6,0.2,1,0.5,1.2,1
				c0.4,0.7,0.6,1.7,0.6,2.9v14c0,1.9,0.5,3.7,1.4,5.4c0.5,0.9,1.2,1.6,2.1,2.1c0.9,0.5,2,0.8,3.3,0.8c2.3,0,4-0.8,5.1-2.5
				c1.1-1.7,1.7-3.6,1.7-5.8V38C157.2,36.8,157.3,35.9,157.6,35.4"/>
		</defs>
		<clipPath id="SVGID_6_">
			<use xlink:href="#SVGID_5_"  style="overflow:visible;"/>
		</clipPath>
		<g class="st3">
			<defs>
				<rect id="SVGID_7_" x="-1375.3" y="-16.8" width="1813.2" height="1289.4"/>
			</defs>
			<clipPath id="SVGID_8_">
				<use xlink:href="#SVGID_7_"  style="overflow:visible;"/>
			</clipPath>
			<rect x="128.9" y="27.8" class="st4" width="42.9" height="47.3"/>
		</g>
	</g>
	<g>
		<defs>
			<path id="SVGID_9_" d="M170.8,34.1h26c1,0,1.7,0.1,2.2,0.3c0.5,0.2,0.8,0.6,0.9,1.1c0.2,0.5,0.2,1.1,0.2,2c0,0.8-0.1,1.5-0.2,1.9
				c-0.2,0.5-0.4,0.8-0.8,1c-0.6,0.3-1.4,0.4-2.4,0.4h-8.9v23.4c0,0.7,0,1.2-0.1,1.6c0,0.3-0.2,0.7-0.4,1.2c-0.2,0.4-0.6,0.8-1.2,1
				c-0.6,0.2-1.4,0.3-2.3,0.3c-1,0-1.7-0.1-2.3-0.3c-0.6-0.2-1-0.5-1.2-1c-0.2-0.4-0.4-0.9-0.4-1.2c0-0.4-0.1-0.9-0.1-1.6V40.9h-9
				c-1,0-1.7-0.1-2.2-0.3c-0.5-0.2-0.8-0.6-0.9-1.1c-0.2-0.5-0.2-1.1-0.2-2s0.1-1.4,0.2-1.9c0.2-0.5,0.4-0.8,0.8-1
				C169,34.3,169.8,34.1,170.8,34.1"/>
		</defs>
		<clipPath id="SVGID_10_">
			<use xlink:href="#SVGID_9_"  style="overflow:visible;"/>
		</clipPath>
		<g class="st5">
			<defs>
				<rect id="SVGID_11_" x="-1375.3" y="-16.8" width="1813.2" height="1289.4"/>
			</defs>
			<clipPath id="SVGID_12_">
				<use xlink:href="#SVGID_11_"  style="overflow:visible;"/>
			</clipPath>
			<rect x="161.1" y="27.8" class="st6" width="45.4" height="46.7"/>
		</g>
	</g>
	<g>
		<defs>
			<path id="SVGID_13_" d="M224.6,35.4c0.3-0.5,0.8-0.8,1.4-1c0.6-0.2,1.3-0.3,2.2-0.3c0.9,0,1.6,0.1,2.1,0.2
				c0.5,0.2,0.9,0.3,1.2,0.6c0.3,0.2,0.5,0.5,0.6,1c0.2,0.5,0.3,1.3,0.3,2.4v14c0,4.1-1.3,7.8-3.8,11.2c-1.2,1.6-2.9,2.9-4.8,3.8
				c-2,1-4.1,1.5-6.5,1.5c-2.4,0-4.6-0.5-6.5-1.5c-2-1-3.5-2.3-4.8-3.9c-2.5-3.3-3.8-7-3.8-11.2v-14c0-0.7,0-1.3,0.1-1.7
				c0-0.4,0.2-0.8,0.4-1.2c0.2-0.5,0.7-0.8,1.3-1c0.6-0.2,1.4-0.3,2.4-0.3c1,0,1.8,0.1,2.4,0.3c0.6,0.2,1,0.5,1.2,1
				c0.4,0.7,0.6,1.7,0.6,2.9v14c0,1.9,0.5,3.7,1.4,5.4c0.5,0.9,1.2,1.6,2.1,2.1c0.9,0.5,2,0.8,3.3,0.8c2.3,0,4-0.8,5.1-2.5
				c1.1-1.7,1.7-3.6,1.7-5.8V38C224.1,36.8,224.3,35.9,224.6,35.4"/>
		</defs>
		<clipPath id="SVGID_14_">
			<use xlink:href="#SVGID_13_"  style="overflow:visible;"/>
		</clipPath>
		<g class="st7">
			<defs>
				<rect id="SVGID_15_" x="-1375.3" y="-16.8" width="1813.2" height="1289.4"/>
			</defs>
			<clipPath id="SVGID_16_">
				<use xlink:href="#SVGID_15_"  style="overflow:visible;"/>
			</clipPath>
			<rect x="195.9" y="27.8" class="st8" width="42.9" height="47.3"/>
		</g>
	</g>
	<g>
		<defs>
			<path id="SVGID_17_" d="M263,62.5c0.5,1.1,0.7,1.9,0.7,2.4c0,1.2-1,2.2-2.9,3c-1,0.4-1.8,0.7-2.4,0.7c-0.6,0-1.1-0.1-1.5-0.4
				c-0.4-0.3-0.7-0.6-0.9-0.9c-0.3-0.6-1.5-3.4-3.7-8.4l-1.5,0.1h-5.9v5.3c0,0.7,0,1.2-0.1,1.6c0,0.4-0.2,0.8-0.4,1.2
				c-0.4,0.8-1.7,1.3-3.7,1.3c-2.2,0-3.5-0.6-3.8-1.7c-0.2-0.5-0.3-1.3-0.3-2.4V38.3c0-0.7,0-1.2,0.1-1.6c0-0.4,0.2-0.8,0.4-1.2
				c0.4-0.8,1.7-1.3,3.7-1.3h10.1c2.7,0,5.4,1,8,3c1.2,1,2.3,2.3,3.1,3.9c0.8,1.6,1.2,3.5,1.2,5.5c0,3.5-1.2,6.4-3.5,8.7
				C260.6,56.8,261.6,59.3,263,62.5z M245.1,50.6h6c0.9,0,1.8-0.3,2.7-1c0.9-0.7,1.4-1.7,1.4-3.1c0-1.4-0.5-2.4-1.4-3.1
				c-0.9-0.7-1.8-1-2.8-1h-5.9V50.6z"/>
		</defs>
		<clipPath id="SVGID_18_">
			<use xlink:href="#SVGID_17_"  style="overflow:visible;"/>
		</clipPath>
		<g class="st9">
			<defs>
				<rect id="SVGID_19_" x="-1375.3" y="-16.8" width="1813.2" height="1289.4"/>
			</defs>
			<clipPath id="SVGID_20_">
				<use xlink:href="#SVGID_19_"  style="overflow:visible;"/>
			</clipPath>
			<rect x="230.5" y="27.9" class="st10" width="39.6" height="47"/>
		</g>
	</g>
	<g>
		<defs>
			<path id="SVGID_21_" d="M275.4,60h14.4c0.7,0,1.3,0,1.6,0.1c0.4,0,0.8,0.2,1.2,0.4c0.8,0.4,1.3,1.6,1.3,3.6
				c0,2.2-0.6,3.4-1.7,3.8c-0.5,0.2-1.3,0.3-2.4,0.3h-18.6c-2.2,0-3.5-0.6-3.8-1.8c-0.2-0.5-0.3-1.3-0.3-2.4V38.3
				c0-1.6,0.3-2.7,0.9-3.2c0.6-0.6,1.7-0.9,3.4-0.9h18.5c0.7,0,1.3,0,1.6,0.1c0.4,0,0.8,0.2,1.2,0.4c0.8,0.4,1.3,1.6,1.3,3.6
				c0,2.2-0.6,3.4-1.7,3.8c-0.5,0.2-1.3,0.3-2.4,0.3h-14.4v4.7h9.3c0.7,0,1.3,0,1.6,0.1c0.4,0,0.8,0.2,1.2,0.4
				c0.8,0.4,1.3,1.6,1.3,3.6c0,2.2-0.6,3.4-1.8,3.8c-0.5,0.2-1.3,0.3-2.4,0.3h-9.2V60z"/>
		</defs>
		<clipPath id="SVGID_22_">
			<use xlink:href="#SVGID_21_"  style="overflow:visible;"/>
		</clipPath>
		<g class="st11">
			<defs>
				<rect id="SVGID_23_" x="-1375.3" y="-16.8" width="1813.2" height="1289.4"/>
			</defs>
			<clipPath id="SVGID_24_">
				<use xlink:href="#SVGID_23_"  style="overflow:visible;"/>
			</clipPath>
			<rect x="260.8" y="27.9" class="st12" width="39.4" height="46.7"/>
		</g>
	</g>
	<g>
		<defs>
			<path id="SVGID_25_" d="M114.6,11c0.1-0.2,0.3-0.4,0.6-0.4c0.3-0.1,0.6-0.1,1-0.1c0.4,0,0.7,0,1,0.1c0.2,0.1,0.4,0.2,0.5,0.2
				c0.1,0.1,0.2,0.2,0.3,0.4c0.1,0.2,0.1,0.6,0.1,1.1v11.5c0,0.3,0,0.6,0,0.7c0,0.2-0.1,0.3-0.2,0.5c-0.2,0.4-0.7,0.6-1.6,0.6
				c-1,0-1.5-0.3-1.7-0.8c-0.1-0.2-0.1-0.6-0.1-1.1v-4.2h-5.5v4.2c0,0.3,0,0.6,0,0.7c0,0.2-0.1,0.3-0.2,0.5
				c-0.2,0.4-0.7,0.6-1.6,0.6c-1,0-1.5-0.3-1.7-0.8c-0.1-0.2-0.1-0.6-0.1-1.1V12.2c0-0.3,0-0.6,0-0.7c0-0.2,0.1-0.3,0.2-0.5
				c0.2-0.4,0.7-0.6,1.6-0.6c1,0,1.6,0.3,1.7,0.8c0.1,0.2,0.1,0.6,0.1,1.1v4.2h5.5v-4.2c0-0.3,0-0.6,0-0.7
				C114.5,11.4,114.5,11.2,114.6,11"/>
		</defs>
		<clipPath id="SVGID_26_">
			<use xlink:href="#SVGID_25_"  style="overflow:visible;"/>
		</clipPath>
		<g class="st13">
			<defs>
				<rect id="SVGID_27_" x="-1375.3" y="-16.8" width="1813.2" height="1289.4"/>
			</defs>
			<clipPath id="SVGID_28_">
				<use xlink:href="#SVGID_27_"  style="overflow:visible;"/>
			</clipPath>
			<rect x="98.9" y="4.1" class="st14" width="25.5" height="27.7"/>
		</g>
	</g>
	<g>
		<defs>
			<path id="SVGID_29_" d="M127.2,10.2c2.1,0,3.8,0.7,5.4,2.2c1.5,1.5,2.3,3.3,2.3,5.5c0,2.2-0.7,4.1-2.2,5.6
				c-1.4,1.5-3.2,2.3-5.3,2.3c-2.1,0-3.9-0.8-5.4-2.3c-1.5-1.5-2.2-3.3-2.2-5.4c0-1.1,0.2-2.2,0.6-3.2c0.4-1,1-1.8,1.7-2.5
				c0.7-0.7,1.5-1.2,2.4-1.6C125.3,10.4,126.2,10.2,127.2,10.2 M123.4,18c0,1.2,0.4,2.2,1.2,3c0.8,0.8,1.7,1.1,2.7,1.1
				c1,0,1.9-0.4,2.7-1.1c0.8-0.7,1.2-1.7,1.2-3c0-1.3-0.4-2.3-1.2-3c-0.8-0.8-1.7-1.1-2.7-1.1c-1,0-1.9,0.4-2.7,1.1
				C123.8,15.8,123.4,16.8,123.4,18"/>
		</defs>
		<clipPath id="SVGID_30_">
			<use xlink:href="#SVGID_29_"  style="overflow:visible;"/>
		</clipPath>
		<g class="st15">
			<defs>
				<rect id="SVGID_31_" x="-1375.3" y="-16.8" width="1813.2" height="1289.4"/>
			</defs>
			<clipPath id="SVGID_32_">
				<use xlink:href="#SVGID_31_"  style="overflow:visible;"/>
			</clipPath>
			<rect x="113.4" y="3.9" class="st16" width="27.7" height="28.2"/>
		</g>
	</g>
	<g>
		<defs>
			<path id="SVGID_33_" d="M152.6,11c0.1,0.2,0.2,0.4,0.2,0.6c0,0.2,0,0.4,0,0.7v11.5c0,1-0.3,1.5-0.8,1.7c-0.3,0.1-0.6,0.1-1,0.1
				c-0.4,0-0.7,0-1-0.1c-0.2-0.1-0.4-0.2-0.5-0.2c-0.1-0.1-0.2-0.2-0.3-0.4c-0.1-0.2-0.1-0.6-0.1-1.1v-6.9c-0.3,0.4-0.9,1.1-1.5,2
				c-0.7,0.9-1.1,1.5-1.3,1.7c-0.2,0.2-0.3,0.4-0.4,0.5c-0.1,0.1-0.2,0.2-0.5,0.4c-0.3,0.2-0.6,0.2-0.9,0.2c-0.3,0-0.6-0.1-0.9-0.2
				c-0.3-0.1-0.4-0.3-0.6-0.4l-0.2-0.2c-0.3-0.3-0.8-1.1-1.6-2.2c-0.8-1.1-1.3-1.7-1.3-1.8v7c0,0.3,0,0.6,0,0.7
				c0,0.2-0.1,0.3-0.2,0.5c-0.2,0.4-0.8,0.6-1.6,0.6c-0.8,0-1.4-0.2-1.6-0.6c-0.1-0.2-0.2-0.4-0.2-0.5c0-0.2,0-0.4,0-0.7V12.2
				c0-0.3,0-0.6,0-0.7c0-0.2,0.1-0.3,0.2-0.5c0.2-0.4,0.8-0.5,1.6-0.5c0.4,0,0.7,0,1,0.1c0.3,0.1,0.4,0.2,0.5,0.3l0.1,0.1l4.7,6.2
				c2.4-3.1,3.9-5.2,4.7-6.1c0.2-0.4,0.8-0.6,1.7-0.6C151.9,10.4,152.4,10.6,152.6,11"/>
		</defs>
		<clipPath id="SVGID_34_">
			<use xlink:href="#SVGID_33_"  style="overflow:visible;"/>
		</clipPath>
		<g class="st17">
			<defs>
				<rect id="SVGID_35_" x="-1375.3" y="-16.8" width="1813.2" height="1289.4"/>
			</defs>
			<clipPath id="SVGID_36_">
				<use xlink:href="#SVGID_35_"  style="overflow:visible;"/>
			</clipPath>
			<rect x="130.1" y="4.2" class="st18" width="29.1" height="27.7"/>
		</g>
	</g>
	<g>
		<defs>
			<path id="SVGID_37_" d="M158.7,21.9h6.4c0.3,0,0.6,0,0.7,0c0.2,0,0.3,0.1,0.6,0.2c0.4,0.2,0.6,0.7,0.6,1.6c0,1-0.3,1.5-0.8,1.7
				c-0.2,0.1-0.6,0.1-1.1,0.1h-8.3c-1,0-1.5-0.3-1.7-0.8c-0.1-0.2-0.1-0.6-0.1-1.1V12.2c0-0.7,0.1-1.2,0.4-1.4
				c0.3-0.3,0.8-0.4,1.5-0.4h8.2c0.3,0,0.6,0,0.7,0c0.2,0,0.3,0.1,0.6,0.2c0.4,0.2,0.6,0.7,0.6,1.6c0,1-0.3,1.5-0.8,1.7
				c-0.2,0.1-0.6,0.1-1.1,0.1h-6.4v2.1h4.1c0.3,0,0.6,0,0.7,0c0.2,0,0.3,0.1,0.6,0.2c0.4,0.2,0.6,0.7,0.6,1.6c0,1-0.3,1.5-0.8,1.7
				c-0.2,0.1-0.6,0.1-1.1,0.1h-4.1V21.9z"/>
		</defs>
		<clipPath id="SVGID_38_">
			<use xlink:href="#SVGID_37_"  style="overflow:visible;"/>
		</clipPath>
		<g class="st19">
			<defs>
				<rect id="SVGID_39_" x="-1375.3" y="-16.8" width="1813.2" height="1289.4"/>
			</defs>
			<clipPath id="SVGID_40_">
				<use xlink:href="#SVGID_39_"  style="overflow:visible;"/>
			</clipPath>
			<rect x="148.7" y="4.1" class="st20" width="24.5" height="27.8"/>
		</g>
	</g>
	<g>
		<defs>
			<path id="SVGID_41_" d="M168.5,23.5c-0.4-0.4-0.5-0.8-0.5-1.2c0-0.4,0.3-0.8,0.9-1.4c0.3-0.3,0.7-0.5,1.1-0.5
				c0.4,0,0.9,0.3,1.6,1c0.2,0.2,0.5,0.5,0.8,0.7c0.4,0.2,0.7,0.3,1,0.3c1.3,0,1.9-0.5,1.9-1.6c0-0.3-0.2-0.6-0.5-0.8
				c-0.4-0.2-0.8-0.4-1.3-0.5c-0.5-0.1-1.1-0.3-1.7-0.5c-0.6-0.2-1.2-0.5-1.7-0.8c-0.5-0.3-1-0.7-1.3-1.4c-0.4-0.6-0.5-1.4-0.5-2.3
				c0-1.2,0.5-2.3,1.4-3.2c0.9-0.9,2.2-1.4,3.7-1.4c0.8,0,1.6,0.1,2.3,0.3c0.7,0.2,1.2,0.4,1.4,0.7l0.5,0.4c0.4,0.4,0.6,0.7,0.6,1
				c0,0.3-0.2,0.7-0.5,1.1c-0.5,0.7-1,1-1.5,1c-0.3,0-0.7-0.1-1.1-0.4c0,0-0.1-0.1-0.2-0.2c-0.1-0.1-0.2-0.2-0.3-0.3
				c-0.3-0.2-0.7-0.3-1.1-0.3c-0.5,0-0.8,0.1-1.1,0.3c-0.3,0.2-0.4,0.5-0.4,0.9c0,0.4,0.2,0.7,0.5,0.9c0.4,0.2,0.8,0.4,1.3,0.5
				c0.5,0.1,1.1,0.2,1.7,0.4c0.6,0.2,1.2,0.4,1.7,0.6c0.5,0.2,1,0.7,1.3,1.3c0.4,0.6,0.5,1.4,0.5,2.3c0,0.9-0.2,1.7-0.5,2.4
				c-0.4,0.7-0.8,1.2-1.4,1.6c-1.1,0.7-2.3,1.1-3.6,1.1c-0.7,0-1.3-0.1-1.9-0.2c-0.6-0.2-1.1-0.4-1.4-0.6c-0.7-0.4-1.3-0.9-1.5-1.3
				L168.5,23.5z"/>
		</defs>
		<clipPath id="SVGID_42_">
			<use xlink:href="#SVGID_41_"  style="overflow:visible;"/>
		</clipPath>
		<g class="st21">
			<defs>
				<rect id="SVGID_43_" x="-1375.3" y="-16.8" width="1813.2" height="1289.4"/>
			</defs>
			<clipPath id="SVGID_44_">
				<use xlink:href="#SVGID_43_"  style="overflow:visible;"/>
			</clipPath>
			<rect x="161.7" y="3.9" class="st22" width="23.7" height="28.2"/>
		</g>
	</g>
	<g>
		<defs>
			<path id="SVGID_45_" d="M194.1,10.4c0.3,0,0.6,0,0.7,0c0.2,0,0.3,0.1,0.5,0.2c0.2,0.1,0.3,0.3,0.4,0.6c0.1,0.3,0.1,0.6,0.1,1.1
				c0,0.4,0,0.8-0.1,1.1c-0.1,0.3-0.2,0.4-0.4,0.5c-0.2,0.1-0.4,0.2-0.6,0.2c-0.2,0-0.4,0-0.7,0h-6.4v2.1h4.1c0.3,0,0.6,0,0.7,0
				c0.2,0,0.3,0.1,0.6,0.2c0.4,0.2,0.5,0.8,0.5,1.6c0,1-0.3,1.5-0.8,1.7c-0.2,0.1-0.6,0.1-1.1,0.1h-4.1v3.9c0,0.3,0,0.6,0,0.7
				c0,0.2-0.1,0.3-0.2,0.5c-0.2,0.4-0.7,0.6-1.6,0.6c-1,0-1.5-0.3-1.7-0.8c-0.1-0.2-0.1-0.6-0.1-1.1V12.2c0-0.7,0.1-1.2,0.4-1.4
				c0.3-0.3,0.8-0.4,1.5-0.4H194.1z"/>
		</defs>
		<clipPath id="SVGID_46_">
			<use xlink:href="#SVGID_45_"  style="overflow:visible;"/>
		</clipPath>
		<g class="st23">
			<defs>
				<rect id="SVGID_47_" x="-1375.3" y="-16.8" width="1813.2" height="1289.4"/>
			</defs>
			<clipPath id="SVGID_48_">
				<use xlink:href="#SVGID_47_"  style="overflow:visible;"/>
			</clipPath>
			<rect x="177.7" y="4.1" class="st24" width="24.5" height="27.8"/>
		</g>
	</g>
	<g>
		<defs>
			<path id="SVGID_49_" d="M208.8,23c0.2,0.5,0.3,0.9,0.3,1.1c0,0.5-0.4,1-1.3,1.3c-0.4,0.2-0.8,0.3-1.1,0.3c-0.3,0-0.5-0.1-0.7-0.2
				c-0.2-0.1-0.3-0.3-0.4-0.4c-0.1-0.3-0.7-1.5-1.6-3.7l-0.6,0h-2.6v2.3c0,0.3,0,0.6,0,0.7c0,0.2-0.1,0.3-0.2,0.5
				c-0.2,0.4-0.7,0.6-1.6,0.6c-1,0-1.5-0.3-1.7-0.8c-0.1-0.2-0.1-0.6-0.1-1.1V12.2c0-0.3,0-0.6,0-0.7c0-0.2,0.1-0.3,0.2-0.5
				c0.2-0.4,0.7-0.6,1.6-0.6h4.5c1.2,0,2.4,0.4,3.6,1.3c0.6,0.4,1,1,1.4,1.7c0.4,0.7,0.5,1.5,0.5,2.4c0,1.6-0.5,2.8-1.6,3.9
				C207.7,20.5,208.2,21.6,208.8,23z M200.8,17.8h2.7c0.4,0,0.8-0.2,1.2-0.5c0.4-0.3,0.6-0.8,0.6-1.4c0-0.6-0.2-1.1-0.6-1.4
				c-0.4-0.3-0.8-0.5-1.3-0.5h-2.6V17.8z"/>
		</defs>
		<clipPath id="SVGID_50_">
			<use xlink:href="#SVGID_49_"  style="overflow:visible;"/>
		</clipPath>
		<g class="st25">
			<defs>
				<rect id="SVGID_51_" x="-1375.3" y="-16.8" width="1813.2" height="1289.4"/>
			</defs>
			<clipPath id="SVGID_52_">
				<use xlink:href="#SVGID_51_"  style="overflow:visible;"/>
			</clipPath>
			<rect x="190.8" y="4.1" class="st26" width="24.6" height="27.9"/>
		</g>
	</g>
	<g>
		<defs>
			<path id="SVGID_53_" d="M217.5,10.2c2.1,0,3.8,0.7,5.4,2.2c1.5,1.5,2.3,3.3,2.3,5.5c0,2.2-0.7,4.1-2.2,5.6
				c-1.4,1.5-3.2,2.3-5.3,2.3c-2.1,0-3.9-0.8-5.4-2.3c-1.5-1.5-2.2-3.3-2.2-5.4c0-1.1,0.2-2.2,0.6-3.2c0.4-1,1-1.8,1.7-2.5
				c0.7-0.7,1.5-1.2,2.4-1.6C215.6,10.4,216.6,10.2,217.5,10.2 M213.7,18c0,1.2,0.4,2.2,1.2,3c0.8,0.8,1.7,1.1,2.7,1.1
				c1,0,1.9-0.4,2.7-1.1c0.8-0.7,1.2-1.7,1.2-3c0-1.3-0.4-2.3-1.2-3c-0.8-0.8-1.7-1.1-2.7-1.1s-1.9,0.4-2.7,1.1
				C214.1,15.8,213.7,16.8,213.7,18"/>
		</defs>
		<clipPath id="SVGID_54_">
			<use xlink:href="#SVGID_53_"  style="overflow:visible;"/>
		</clipPath>
		<g class="st27">
			<defs>
				<rect id="SVGID_55_" x="-1375.3" y="-16.8" width="1813.2" height="1289.4"/>
			</defs>
			<clipPath id="SVGID_56_">
				<use xlink:href="#SVGID_55_"  style="overflow:visible;"/>
			</clipPath>
			<rect x="203.7" y="3.9" class="st28" width="27.7" height="28.2"/>
		</g>
	</g>
	<g>
		<defs>
			<path id="SVGID_57_" d="M243,11c0.1,0.2,0.2,0.4,0.2,0.6c0,0.2,0,0.4,0,0.7v11.5c0,1-0.3,1.5-0.8,1.7c-0.3,0.1-0.6,0.1-1,0.1
				c-0.4,0-0.7,0-1-0.1c-0.2-0.1-0.4-0.2-0.5-0.2c-0.1-0.1-0.2-0.2-0.3-0.4c-0.1-0.2-0.1-0.6-0.1-1.1v-6.9c-0.3,0.4-0.9,1.1-1.5,2
				c-0.7,0.9-1.1,1.5-1.3,1.7c-0.2,0.2-0.3,0.4-0.4,0.5c-0.1,0.1-0.2,0.2-0.5,0.4c-0.3,0.2-0.6,0.2-0.9,0.2c-0.3,0-0.6-0.1-0.9-0.2
				c-0.3-0.1-0.4-0.3-0.6-0.4l-0.2-0.2c-0.3-0.3-0.8-1.1-1.6-2.2c-0.8-1.1-1.3-1.7-1.3-1.8v7c0,0.3,0,0.6,0,0.7
				c0,0.2-0.1,0.3-0.2,0.5c-0.2,0.4-0.8,0.6-1.6,0.6c-0.8,0-1.4-0.2-1.6-0.6c-0.1-0.2-0.2-0.4-0.2-0.5c0-0.2,0-0.4,0-0.7V12.2
				c0-0.3,0-0.6,0-0.7c0-0.2,0.1-0.3,0.2-0.5c0.2-0.4,0.8-0.5,1.6-0.5c0.4,0,0.7,0,1,0.1c0.3,0.1,0.4,0.2,0.5,0.3l0.1,0.1l4.7,6.2
				c2.4-3.1,3.9-5.2,4.7-6.1c0.2-0.4,0.8-0.6,1.7-0.6C242.2,10.4,242.8,10.6,243,11"/>
		</defs>
		<clipPath id="SVGID_58_">
			<use xlink:href="#SVGID_57_"  style="overflow:visible;"/>
		</clipPath>
		<g class="st29">
			<defs>
				<rect id="SVGID_59_" x="-1375.3" y="-16.8" width="1813.2" height="1289.4"/>
			</defs>
			<clipPath id="SVGID_60_">
				<use xlink:href="#SVGID_59_"  style="overflow:visible;"/>
			</clipPath>
			<rect x="220.4" y="4.2" class="st30" width="29.1" height="27.7"/>
		</g>
	</g>
	<g>
		<defs>
			<path id="SVGID_61_" d="M251.1,10.4h11.6c0.4,0,0.8,0.1,1,0.2c0.2,0.1,0.3,0.3,0.4,0.5c0.1,0.2,0.1,0.5,0.1,0.9
				c0,0.4,0,0.6-0.1,0.9c-0.1,0.2-0.2,0.4-0.4,0.4c-0.3,0.1-0.6,0.2-1.1,0.2h-4v10.4c0,0.3,0,0.6,0,0.7c0,0.2-0.1,0.3-0.2,0.5
				c-0.1,0.2-0.3,0.3-0.6,0.4c-0.3,0.1-0.6,0.1-1,0.1c-0.4,0-0.8,0-1-0.1c-0.3-0.1-0.4-0.2-0.5-0.4c-0.1-0.2-0.2-0.4-0.2-0.5
				c0-0.2,0-0.4,0-0.7V13.4h-4c-0.4,0-0.8-0.1-1-0.2c-0.2-0.1-0.3-0.3-0.4-0.5c-0.1-0.2-0.1-0.5-0.1-0.9c0-0.4,0-0.6,0.1-0.9
				c0.1-0.2,0.2-0.4,0.4-0.4C250.3,10.5,250.7,10.4,251.1,10.4"/>
		</defs>
		<clipPath id="SVGID_62_">
			<use xlink:href="#SVGID_61_"  style="overflow:visible;"/>
		</clipPath>
		<g class="st31">
			<defs>
				<rect id="SVGID_63_" x="-1375.3" y="-16.8" width="1813.2" height="1289.4"/>
			</defs>
			<clipPath id="SVGID_64_">
				<use xlink:href="#SVGID_63_"  style="overflow:visible;"/>
			</clipPath>
			<rect x="243.3" y="4.1" class="st32" width="27.2" height="27.8"/>
		</g>
	</g>
	<g>
		<defs>
			<path id="SVGID_65_" d="M274.7,11c0.1-0.2,0.3-0.4,0.6-0.4c0.3-0.1,0.6-0.1,1-0.1c0.4,0,0.7,0,1,0.1c0.2,0.1,0.4,0.2,0.5,0.2
				c0.1,0.1,0.2,0.2,0.3,0.4c0.1,0.2,0.1,0.6,0.1,1.1v11.5c0,0.3,0,0.6,0,0.7c0,0.2-0.1,0.3-0.2,0.5c-0.2,0.4-0.7,0.6-1.6,0.6
				c-1,0-1.5-0.3-1.7-0.8c-0.1-0.2-0.1-0.6-0.1-1.1v-4.2h-5.5v4.2c0,0.3,0,0.6,0,0.7c0,0.2-0.1,0.3-0.2,0.5
				c-0.2,0.4-0.7,0.6-1.6,0.6c-1,0-1.5-0.3-1.7-0.8c-0.1-0.2-0.1-0.6-0.1-1.1V12.2c0-0.3,0-0.6,0-0.7c0-0.2,0.1-0.3,0.2-0.5
				c0.2-0.4,0.7-0.6,1.6-0.6c1,0,1.6,0.3,1.7,0.8c0.1,0.2,0.1,0.6,0.1,1.1v4.2h5.5v-4.2c0-0.3,0-0.6,0-0.7
				C274.5,11.4,274.6,11.2,274.7,11"/>
		</defs>
		<clipPath id="SVGID_66_">
			<use xlink:href="#SVGID_65_"  style="overflow:visible;"/>
		</clipPath>
		<g class="st33">
			<defs>
				<rect id="SVGID_67_" x="-1375.3" y="-16.8" width="1813.2" height="1289.4"/>
			</defs>
			<clipPath id="SVGID_68_">
				<use xlink:href="#SVGID_67_"  style="overflow:visible;"/>
			</clipPath>
			<rect x="259" y="4.1" class="st34" width="25.5" height="27.7"/>
		</g>
	</g>
	<g>
		<defs>
			<path id="SVGID_69_" d="M284,21.9h6.4c0.3,0,0.6,0,0.7,0c0.2,0,0.3,0.1,0.6,0.2c0.4,0.2,0.6,0.7,0.6,1.6c0,1-0.3,1.5-0.8,1.7
				c-0.2,0.1-0.6,0.1-1.1,0.1h-8.3c-1,0-1.5-0.3-1.7-0.8c-0.1-0.2-0.1-0.6-0.1-1.1V12.2c0-0.7,0.1-1.2,0.4-1.4
				c0.3-0.3,0.8-0.4,1.5-0.4h8.2c0.3,0,0.6,0,0.7,0s0.3,0.1,0.6,0.2c0.4,0.2,0.6,0.7,0.6,1.6c0,1-0.3,1.5-0.8,1.7
				c-0.2,0.1-0.6,0.1-1.1,0.1H284v2.1h4.1c0.3,0,0.6,0,0.7,0c0.2,0,0.3,0.1,0.6,0.2c0.4,0.2,0.6,0.7,0.6,1.6c0,1-0.3,1.5-0.8,1.7
				c-0.2,0.1-0.6,0.1-1.1,0.1H284V21.9z"/>
		</defs>
		<clipPath id="SVGID_70_">
			<use xlink:href="#SVGID_69_"  style="overflow:visible;"/>
		</clipPath>
		<g class="st35">
			<defs>
				<rect id="SVGID_71_" x="-1375.3" y="-16.8" width="1813.2" height="1289.4"/>
			</defs>
			<clipPath id="SVGID_72_">
				<use xlink:href="#SVGID_71_"  style="overflow:visible;"/>
			</clipPath>
			<rect x="274" y="4.1" class="st36" width="24.5" height="27.8"/>
		</g>
	</g>
	<g>
		<defs>
			<path id="SVGID_73_" d="M114.6,11c0.1-0.2,0.3-0.4,0.6-0.4c0.3-0.1,0.6-0.1,1-0.1c0.4,0,0.7,0,1,0.1c0.2,0.1,0.4,0.2,0.5,0.2
				c0.1,0.1,0.2,0.2,0.3,0.4c0.1,0.2,0.1,0.6,0.1,1.1v11.5c0,0.3,0,0.6,0,0.7c0,0.2-0.1,0.3-0.2,0.5c-0.2,0.4-0.7,0.6-1.6,0.6
				c-1,0-1.5-0.3-1.7-0.8c-0.1-0.2-0.1-0.6-0.1-1.1v-4.2h-5.5v4.2c0,0.3,0,0.6,0,0.7c0,0.2-0.1,0.3-0.2,0.5
				c-0.2,0.4-0.7,0.6-1.6,0.6c-1,0-1.5-0.3-1.7-0.8c-0.1-0.2-0.1-0.6-0.1-1.1V12.2c0-0.3,0-0.6,0-0.7c0-0.2,0.1-0.3,0.2-0.5
				c0.2-0.4,0.7-0.6,1.6-0.6c1,0,1.6,0.3,1.7,0.8c0.1,0.2,0.1,0.6,0.1,1.1v4.2h5.5v-4.2c0-0.3,0-0.6,0-0.7
				C114.5,11.4,114.5,11.2,114.6,11"/>
		</defs>
		<clipPath id="SVGID_74_">
			<use xlink:href="#SVGID_73_"  style="overflow:visible;"/>
		</clipPath>
		<g class="st37">
			<defs>
				<rect id="SVGID_75_" x="-1375.3" y="-16.8" width="1813.2" height="1289.4"/>
			</defs>
			<clipPath id="SVGID_76_">
				<use xlink:href="#SVGID_75_"  style="overflow:visible;"/>
			</clipPath>
			<rect x="98.9" y="4.1" class="st38" width="25.5" height="27.7"/>
		</g>
	</g>
	<g>
		<defs>
			<path id="SVGID_77_" d="M127.2,10.2c2.1,0,3.8,0.7,5.4,2.2c1.5,1.5,2.3,3.3,2.3,5.5c0,2.2-0.7,4.1-2.2,5.6
				c-1.4,1.5-3.2,2.3-5.3,2.3c-2.1,0-3.9-0.8-5.4-2.3c-1.5-1.5-2.2-3.3-2.2-5.4c0-1.1,0.2-2.2,0.6-3.2c0.4-1,1-1.8,1.7-2.5
				c0.7-0.7,1.5-1.2,2.4-1.6C125.3,10.4,126.2,10.2,127.2,10.2 M123.4,18c0,1.2,0.4,2.2,1.2,3c0.8,0.8,1.7,1.1,2.7,1.1
				c1,0,1.9-0.4,2.7-1.1c0.8-0.7,1.2-1.7,1.2-3c0-1.3-0.4-2.3-1.2-3c-0.8-0.8-1.7-1.1-2.7-1.1c-1,0-1.9,0.4-2.7,1.1
				C123.8,15.8,123.4,16.8,123.4,18"/>
		</defs>
		<clipPath id="SVGID_78_">
			<use xlink:href="#SVGID_77_"  style="overflow:visible;"/>
		</clipPath>
		<g class="st39">
			<defs>
				<rect id="SVGID_79_" x="-1375.3" y="-16.8" width="1813.2" height="1289.4"/>
			</defs>
			<clipPath id="SVGID_80_">
				<use xlink:href="#SVGID_79_"  style="overflow:visible;"/>
			</clipPath>
			<rect x="113.4" y="3.9" class="st40" width="27.7" height="28.2"/>
		</g>
	</g>
	<g>
		<defs>
			<path id="SVGID_81_" d="M152.6,11c0.1,0.2,0.2,0.4,0.2,0.6c0,0.2,0,0.4,0,0.7v11.5c0,1-0.3,1.5-0.8,1.7c-0.3,0.1-0.6,0.1-1,0.1
				c-0.4,0-0.7,0-1-0.1c-0.2-0.1-0.4-0.2-0.5-0.2c-0.1-0.1-0.2-0.2-0.3-0.4c-0.1-0.2-0.1-0.6-0.1-1.1v-6.9c-0.3,0.4-0.9,1.1-1.5,2
				c-0.7,0.9-1.1,1.5-1.3,1.7c-0.2,0.2-0.3,0.4-0.4,0.5c-0.1,0.1-0.2,0.2-0.5,0.4c-0.3,0.2-0.6,0.2-0.9,0.2c-0.3,0-0.6-0.1-0.9-0.2
				c-0.3-0.1-0.4-0.3-0.6-0.4l-0.2-0.2c-0.3-0.3-0.8-1.1-1.6-2.2c-0.8-1.1-1.3-1.7-1.3-1.8v7c0,0.3,0,0.6,0,0.7
				c0,0.2-0.1,0.3-0.2,0.5c-0.2,0.4-0.8,0.6-1.6,0.6c-0.8,0-1.4-0.2-1.6-0.6c-0.1-0.2-0.2-0.4-0.2-0.5c0-0.2,0-0.4,0-0.7V12.2
				c0-0.3,0-0.6,0-0.7c0-0.2,0.1-0.3,0.2-0.5c0.2-0.4,0.8-0.5,1.6-0.5c0.4,0,0.7,0,1,0.1c0.3,0.1,0.4,0.2,0.5,0.3l0.1,0.1l4.7,6.2
				c2.4-3.1,3.9-5.2,4.7-6.1c0.2-0.4,0.8-0.6,1.7-0.6C151.9,10.4,152.4,10.6,152.6,11"/>
		</defs>
		<clipPath id="SVGID_82_">
			<use xlink:href="#SVGID_81_"  style="overflow:visible;"/>
		</clipPath>
		<g class="st41">
			<defs>
				<rect id="SVGID_83_" x="-1375.3" y="-16.8" width="1813.2" height="1289.4"/>
			</defs>
			<clipPath id="SVGID_84_">
				<use xlink:href="#SVGID_83_"  style="overflow:visible;"/>
			</clipPath>
			<rect x="130.1" y="4.2" class="st42" width="29.1" height="27.7"/>
		</g>
	</g>
	<g>
		<defs>
			<path id="SVGID_85_" d="M158.7,21.9h6.4c0.3,0,0.6,0,0.7,0c0.2,0,0.3,0.1,0.6,0.2c0.4,0.2,0.6,0.7,0.6,1.6c0,1-0.3,1.5-0.8,1.7
				c-0.2,0.1-0.6,0.1-1.1,0.1h-8.3c-1,0-1.5-0.3-1.7-0.8c-0.1-0.2-0.1-0.6-0.1-1.1V12.2c0-0.7,0.1-1.2,0.4-1.4
				c0.3-0.3,0.8-0.4,1.5-0.4h8.2c0.3,0,0.6,0,0.7,0c0.2,0,0.3,0.1,0.6,0.2c0.4,0.2,0.6,0.7,0.6,1.6c0,1-0.3,1.5-0.8,1.7
				c-0.2,0.1-0.6,0.1-1.1,0.1h-6.4v2.1h4.1c0.3,0,0.6,0,0.7,0c0.2,0,0.3,0.1,0.6,0.2c0.4,0.2,0.6,0.7,0.6,1.6c0,1-0.3,1.5-0.8,1.7
				c-0.2,0.1-0.6,0.1-1.1,0.1h-4.1V21.9z"/>
		</defs>
		<clipPath id="SVGID_86_">
			<use xlink:href="#SVGID_85_"  style="overflow:visible;"/>
		</clipPath>
		<g class="st43">
			<defs>
				<rect id="SVGID_87_" x="-1375.3" y="-16.8" width="1813.2" height="1289.4"/>
			</defs>
			<clipPath id="SVGID_88_">
				<use xlink:href="#SVGID_87_"  style="overflow:visible;"/>
			</clipPath>
			<rect x="148.7" y="4.1" class="st44" width="24.5" height="27.8"/>
		</g>
	</g>
	<g>
		<defs>
			<path id="SVGID_89_" d="M168.5,23.5c-0.4-0.4-0.5-0.8-0.5-1.2c0-0.4,0.3-0.8,0.9-1.4c0.3-0.3,0.7-0.5,1.1-0.5
				c0.4,0,0.9,0.3,1.6,1c0.2,0.2,0.5,0.5,0.8,0.7c0.4,0.2,0.7,0.3,1,0.3c1.3,0,1.9-0.5,1.9-1.6c0-0.3-0.2-0.6-0.5-0.8
				c-0.4-0.2-0.8-0.4-1.3-0.5c-0.5-0.1-1.1-0.3-1.7-0.5c-0.6-0.2-1.2-0.5-1.7-0.8c-0.5-0.3-1-0.7-1.3-1.4c-0.4-0.6-0.5-1.4-0.5-2.3
				c0-1.2,0.5-2.3,1.4-3.2c0.9-0.9,2.2-1.4,3.7-1.4c0.8,0,1.6,0.1,2.3,0.3c0.7,0.2,1.2,0.4,1.4,0.7l0.5,0.4c0.4,0.4,0.6,0.7,0.6,1
				c0,0.3-0.2,0.7-0.5,1.1c-0.5,0.7-1,1-1.5,1c-0.3,0-0.7-0.1-1.1-0.4c0,0-0.1-0.1-0.2-0.2c-0.1-0.1-0.2-0.2-0.3-0.3
				c-0.3-0.2-0.7-0.3-1.1-0.3c-0.5,0-0.8,0.1-1.1,0.3c-0.3,0.2-0.4,0.5-0.4,0.9c0,0.4,0.2,0.7,0.5,0.9c0.4,0.2,0.8,0.4,1.3,0.5
				c0.5,0.1,1.1,0.2,1.7,0.4c0.6,0.2,1.2,0.4,1.7,0.6c0.5,0.2,1,0.7,1.3,1.3c0.4,0.6,0.5,1.4,0.5,2.3c0,0.9-0.2,1.7-0.5,2.4
				c-0.4,0.7-0.8,1.2-1.4,1.6c-1.1,0.7-2.3,1.1-3.6,1.1c-0.7,0-1.3-0.1-1.9-0.2c-0.6-0.2-1.1-0.4-1.4-0.6c-0.7-0.4-1.3-0.9-1.5-1.3
				L168.5,23.5z"/>
		</defs>
		<clipPath id="SVGID_90_">
			<use xlink:href="#SVGID_89_"  style="overflow:visible;"/>
		</clipPath>
		<g class="st45">
			<defs>
				<rect id="SVGID_91_" x="-1375.3" y="-16.8" width="1813.2" height="1289.4"/>
			</defs>
			<clipPath id="SVGID_92_">
				<use xlink:href="#SVGID_91_"  style="overflow:visible;"/>
			</clipPath>
			<rect x="161.7" y="3.9" class="st46" width="23.7" height="28.2"/>
		</g>
	</g>
	<g>
		<defs>
			<path id="SVGID_93_" d="M194.1,10.4c0.3,0,0.6,0,0.7,0c0.2,0,0.3,0.1,0.5,0.2c0.2,0.1,0.3,0.3,0.4,0.6c0.1,0.3,0.1,0.6,0.1,1.1
				c0,0.4,0,0.8-0.1,1.1c-0.1,0.3-0.2,0.4-0.4,0.5c-0.2,0.1-0.4,0.2-0.6,0.2c-0.2,0-0.4,0-0.7,0h-6.4v2.1h4.1c0.3,0,0.6,0,0.7,0
				c0.2,0,0.3,0.1,0.6,0.2c0.4,0.2,0.5,0.8,0.5,1.6c0,1-0.3,1.5-0.8,1.7c-0.2,0.1-0.6,0.1-1.1,0.1h-4.1v3.9c0,0.3,0,0.6,0,0.7
				c0,0.2-0.1,0.3-0.2,0.5c-0.2,0.4-0.7,0.6-1.6,0.6c-1,0-1.5-0.3-1.7-0.8c-0.1-0.2-0.1-0.6-0.1-1.1V12.2c0-0.7,0.1-1.2,0.4-1.4
				c0.3-0.3,0.8-0.4,1.5-0.4H194.1z"/>
		</defs>
		<clipPath id="SVGID_94_">
			<use xlink:href="#SVGID_93_"  style="overflow:visible;"/>
		</clipPath>
		<g class="st47">
			<defs>
				<rect id="SVGID_95_" x="-1375.3" y="-16.8" width="1813.2" height="1289.4"/>
			</defs>
			<clipPath id="SVGID_96_">
				<use xlink:href="#SVGID_95_"  style="overflow:visible;"/>
			</clipPath>
			<rect x="177.7" y="4.1" class="st48" width="24.5" height="27.8"/>
		</g>
	</g>
	<g>
		<defs>
			<path id="SVGID_97_" d="M208.8,23c0.2,0.5,0.3,0.9,0.3,1.1c0,0.5-0.4,1-1.3,1.3c-0.4,0.2-0.8,0.3-1.1,0.3c-0.3,0-0.5-0.1-0.7-0.2
				c-0.2-0.1-0.3-0.3-0.4-0.4c-0.1-0.3-0.7-1.5-1.6-3.7l-0.6,0h-2.6v2.3c0,0.3,0,0.6,0,0.7c0,0.2-0.1,0.3-0.2,0.5
				c-0.2,0.4-0.7,0.6-1.6,0.6c-1,0-1.5-0.3-1.7-0.8c-0.1-0.2-0.1-0.6-0.1-1.1V12.2c0-0.3,0-0.6,0-0.7c0-0.2,0.1-0.3,0.2-0.5
				c0.2-0.4,0.7-0.6,1.6-0.6h4.5c1.2,0,2.4,0.4,3.6,1.3c0.6,0.4,1,1,1.4,1.7c0.4,0.7,0.5,1.5,0.5,2.4c0,1.6-0.5,2.8-1.6,3.9
				C207.7,20.5,208.2,21.6,208.8,23z M200.8,17.8h2.7c0.4,0,0.8-0.2,1.2-0.5c0.4-0.3,0.6-0.8,0.6-1.4c0-0.6-0.2-1.1-0.6-1.4
				c-0.4-0.3-0.8-0.5-1.3-0.5h-2.6V17.8z"/>
		</defs>
		<clipPath id="SVGID_98_">
			<use xlink:href="#SVGID_97_"  style="overflow:visible;"/>
		</clipPath>
		<g class="st49">
			<defs>
				<rect id="SVGID_99_" x="-1375.3" y="-16.8" width="1813.2" height="1289.4"/>
			</defs>
			<clipPath id="SVGID_100_">
				<use xlink:href="#SVGID_99_"  style="overflow:visible;"/>
			</clipPath>
			<rect x="190.8" y="4.1" class="st50" width="24.6" height="27.9"/>
		</g>
	</g>
	<g>
		<defs>
			<path id="SVGID_101_" d="M217.5,10.2c2.1,0,3.8,0.7,5.4,2.2c1.5,1.5,2.3,3.3,2.3,5.5c0,2.2-0.7,4.1-2.2,5.6
				c-1.4,1.5-3.2,2.3-5.3,2.3c-2.1,0-3.9-0.8-5.4-2.3c-1.5-1.5-2.2-3.3-2.2-5.4c0-1.1,0.2-2.2,0.6-3.2c0.4-1,1-1.8,1.7-2.5
				c0.7-0.7,1.5-1.2,2.4-1.6C215.6,10.4,216.6,10.2,217.5,10.2 M213.7,18c0,1.2,0.4,2.2,1.2,3c0.8,0.8,1.7,1.1,2.7,1.1
				c1,0,1.9-0.4,2.7-1.1c0.8-0.7,1.2-1.7,1.2-3c0-1.3-0.4-2.3-1.2-3c-0.8-0.8-1.7-1.1-2.7-1.1s-1.9,0.4-2.7,1.1
				C214.1,15.8,213.7,16.8,213.7,18"/>
		</defs>
		<clipPath id="SVGID_102_">
			<use xlink:href="#SVGID_101_"  style="overflow:visible;"/>
		</clipPath>
		<g class="st51">
			<defs>
				<rect id="SVGID_103_" x="-1375.3" y="-16.8" width="1813.2" height="1289.4"/>
			</defs>
			<clipPath id="SVGID_104_">
				<use xlink:href="#SVGID_103_"  style="overflow:visible;"/>
			</clipPath>
			<rect x="203.7" y="3.9" class="st52" width="27.7" height="28.2"/>
		</g>
	</g>
	<g>
		<defs>
			<path id="SVGID_105_" d="M243,11c0.1,0.2,0.2,0.4,0.2,0.6c0,0.2,0,0.4,0,0.7v11.5c0,1-0.3,1.5-0.8,1.7c-0.3,0.1-0.6,0.1-1,0.1
				c-0.4,0-0.7,0-1-0.1c-0.2-0.1-0.4-0.2-0.5-0.2c-0.1-0.1-0.2-0.2-0.3-0.4c-0.1-0.2-0.1-0.6-0.1-1.1v-6.9c-0.3,0.4-0.9,1.1-1.5,2
				c-0.7,0.9-1.1,1.5-1.3,1.7c-0.2,0.2-0.3,0.4-0.4,0.5c-0.1,0.1-0.2,0.2-0.5,0.4c-0.3,0.2-0.6,0.2-0.9,0.2c-0.3,0-0.6-0.1-0.9-0.2
				c-0.3-0.1-0.4-0.3-0.6-0.4l-0.2-0.2c-0.3-0.3-0.8-1.1-1.6-2.2c-0.8-1.1-1.3-1.7-1.3-1.8v7c0,0.3,0,0.6,0,0.7
				c0,0.2-0.1,0.3-0.2,0.5c-0.2,0.4-0.8,0.6-1.6,0.6c-0.8,0-1.4-0.2-1.6-0.6c-0.1-0.2-0.2-0.4-0.2-0.5c0-0.2,0-0.4,0-0.7V12.2
				c0-0.3,0-0.6,0-0.7c0-0.2,0.1-0.3,0.2-0.5c0.2-0.4,0.8-0.5,1.6-0.5c0.4,0,0.7,0,1,0.1c0.3,0.1,0.4,0.2,0.5,0.3l0.1,0.1l4.7,6.2
				c2.4-3.1,3.9-5.2,4.7-6.1c0.2-0.4,0.8-0.6,1.7-0.6C242.2,10.4,242.8,10.6,243,11"/>
		</defs>
		<clipPath id="SVGID_106_">
			<use xlink:href="#SVGID_105_"  style="overflow:visible;"/>
		</clipPath>
		<g class="st53">
			<defs>
				<rect id="SVGID_107_" x="-1375.3" y="-16.8" width="1813.2" height="1289.4"/>
			</defs>
			<clipPath id="SVGID_108_">
				<use xlink:href="#SVGID_107_"  style="overflow:visible;"/>
			</clipPath>
			<rect x="220.4" y="4.2" class="st54" width="29.1" height="27.7"/>
		</g>
	</g>
	<g>
		<defs>
			<path id="SVGID_109_" d="M251.1,10.4h11.6c0.4,0,0.8,0.1,1,0.2c0.2,0.1,0.3,0.3,0.4,0.5c0.1,0.2,0.1,0.5,0.1,0.9
				c0,0.4,0,0.6-0.1,0.9c-0.1,0.2-0.2,0.4-0.4,0.4c-0.3,0.1-0.6,0.2-1.1,0.2h-4v10.4c0,0.3,0,0.6,0,0.7c0,0.2-0.1,0.3-0.2,0.5
				c-0.1,0.2-0.3,0.3-0.6,0.4c-0.3,0.1-0.6,0.1-1,0.1c-0.4,0-0.8,0-1-0.1c-0.3-0.1-0.4-0.2-0.5-0.4c-0.1-0.2-0.2-0.4-0.2-0.5
				c0-0.2,0-0.4,0-0.7V13.4h-4c-0.4,0-0.8-0.1-1-0.2c-0.2-0.1-0.3-0.3-0.4-0.5c-0.1-0.2-0.1-0.5-0.1-0.9c0-0.4,0-0.6,0.1-0.9
				c0.1-0.2,0.2-0.4,0.4-0.4C250.3,10.5,250.7,10.4,251.1,10.4"/>
		</defs>
		<clipPath id="SVGID_110_">
			<use xlink:href="#SVGID_109_"  style="overflow:visible;"/>
		</clipPath>
		<g class="st55">
			<defs>
				<rect id="SVGID_111_" x="-1375.3" y="-16.8" width="1813.2" height="1289.4"/>
			</defs>
			<clipPath id="SVGID_112_">
				<use xlink:href="#SVGID_111_"  style="overflow:visible;"/>
			</clipPath>
			<rect x="243.3" y="4.1" class="st56" width="27.2" height="27.8"/>
		</g>
	</g>
	<g>
		<defs>
			<path id="SVGID_113_" d="M274.7,11c0.1-0.2,0.3-0.4,0.6-0.4c0.3-0.1,0.6-0.1,1-0.1c0.4,0,0.7,0,1,0.1c0.2,0.1,0.4,0.2,0.5,0.2
				c0.1,0.1,0.2,0.2,0.3,0.4c0.1,0.2,0.1,0.6,0.1,1.1v11.5c0,0.3,0,0.6,0,0.7c0,0.2-0.1,0.3-0.2,0.5c-0.2,0.4-0.7,0.6-1.6,0.6
				c-1,0-1.5-0.3-1.7-0.8c-0.1-0.2-0.1-0.6-0.1-1.1v-4.2h-5.5v4.2c0,0.3,0,0.6,0,0.7c0,0.2-0.1,0.3-0.2,0.5
				c-0.2,0.4-0.7,0.6-1.6,0.6c-1,0-1.5-0.3-1.7-0.8c-0.1-0.2-0.1-0.6-0.1-1.1V12.2c0-0.3,0-0.6,0-0.7c0-0.2,0.1-0.3,0.2-0.5
				c0.2-0.4,0.7-0.6,1.6-0.6c1,0,1.6,0.3,1.7,0.8c0.1,0.2,0.1,0.6,0.1,1.1v4.2h5.5v-4.2c0-0.3,0-0.6,0-0.7
				C274.5,11.4,274.6,11.2,274.7,11"/>
		</defs>
		<clipPath id="SVGID_114_">
			<use xlink:href="#SVGID_113_"  style="overflow:visible;"/>
		</clipPath>
		<g class="st57">
			<defs>
				<rect id="SVGID_115_" x="-1375.3" y="-16.8" width="1813.2" height="1289.4"/>
			</defs>
			<clipPath id="SVGID_116_">
				<use xlink:href="#SVGID_115_"  style="overflow:visible;"/>
			</clipPath>
			<rect x="259" y="4.1" class="st58" width="25.5" height="27.7"/>
		</g>
	</g>
	<g>
		<defs>
			<path id="SVGID_117_" d="M284,21.9h6.4c0.3,0,0.6,0,0.7,0c0.2,0,0.3,0.1,0.6,0.2c0.4,0.2,0.6,0.7,0.6,1.6c0,1-0.3,1.5-0.8,1.7
				c-0.2,0.1-0.6,0.1-1.1,0.1h-8.3c-1,0-1.5-0.3-1.7-0.8c-0.1-0.2-0.1-0.6-0.1-1.1V12.2c0-0.7,0.1-1.2,0.4-1.4
				c0.3-0.3,0.8-0.4,1.5-0.4h8.2c0.3,0,0.6,0,0.7,0s0.3,0.1,0.6,0.2c0.4,0.2,0.6,0.7,0.6,1.6c0,1-0.3,1.5-0.8,1.7
				c-0.2,0.1-0.6,0.1-1.1,0.1H284v2.1h4.1c0.3,0,0.6,0,0.7,0c0.2,0,0.3,0.1,0.6,0.2c0.4,0.2,0.6,0.7,0.6,1.6c0,1-0.3,1.5-0.8,1.7
				c-0.2,0.1-0.6,0.1-1.1,0.1H284V21.9z"/>
		</defs>
		<clipPath id="SVGID_118_">
			<use xlink:href="#SVGID_117_"  style="overflow:visible;"/>
		</clipPath>
		<g class="st59">
			<defs>
				<rect id="SVGID_119_" x="-1375.3" y="-16.8" width="1813.2" height="1289.4"/>
			</defs>
			<clipPath id="SVGID_120_">
				<use xlink:href="#SVGID_119_"  style="overflow:visible;"/>
			</clipPath>
			<rect x="274" y="4.1" class="st60" width="24.5" height="27.8"/>
		</g>
	</g>
	<g>
		<defs>
			<rect id="SVGID_121_" x="62.2" y="6.7" width="23.9" height="13.1"/>
		</defs>
		<clipPath id="SVGID_122_">
			<use xlink:href="#SVGID_121_"  style="overflow:visible;"/>
		</clipPath>
		<g class="st61">
			<defs>
				<rect id="SVGID_123_" x="-1375.3" y="-16.8" width="1813.2" height="1289.4"/>
			</defs>
			<clipPath id="SVGID_124_">
				<use xlink:href="#SVGID_123_"  style="overflow:visible;"/>
			</clipPath>
			<g class="st62">
				<g>
					<defs>
						<rect id="SVGID_125_" x="61.4" y="5.8" width="25.2" height="15.1"/>
					</defs>
					<clipPath id="SVGID_126_">
						<use xlink:href="#SVGID_125_"  style="overflow:visible;"/>
					</clipPath>
					<g class="st63">
						<defs>
							<path id="SVGID_127_" d="M79.4,6.7c3.6,0,6.6,2.9,6.6,6.6c0,3.6-3,6.5-6.6,6.5h-4.2c0-0.8,0-1.4,0-1.4l-2.6,0.1
								c0,0,0,0.5,0,1.3h-3.8c-3.6,0-6.6-2.9-6.6-6.5c0-3.6,3-6.6,6.6-6.6H79.4z M83.4,13.2c0-2.2-1.8-3.9-4-3.9H68.8
								c-2.2,0-4,1.8-4,3.9c0,2.2,1.8,3.9,4,3.9h10.7C81.6,17.2,83.4,15.4,83.4,13.2z"/>
						</defs>
						<clipPath id="SVGID_128_">
							<use xlink:href="#SVGID_127_"  style="overflow:visible;"/>
						</clipPath>
						<g class="st64">
							<defs>
								<rect id="SVGID_129_" x="61.4" y="5.8" width="25.2" height="15.1"/>
							</defs>
							<clipPath id="SVGID_130_">
								<use xlink:href="#SVGID_129_"  style="overflow:visible;"/>
							</clipPath>
							<rect x="55.9" y="0.4" class="st65" width="36.5" height="25.7"/>
						</g>
					</g>
				</g>
			</g>
		</g>
	</g>
	<g>
		<defs>
			<path id="SVGID_131_" d="M79.4,9.3c2.2,0,4,1.8,4,3.9c0,2.2-1.8,3.9-4,3.9H68.8c-2.2,0-4-1.8-4-3.9c0-2.2,1.8-3.9,4-3.9H79.4z"/>
		</defs>
		<clipPath id="SVGID_132_">
			<use xlink:href="#SVGID_131_"  style="overflow:visible;"/>
		</clipPath>
		<g class="st66">
			<defs>
				<rect id="SVGID_133_" x="-1375.3" y="-16.8" width="1813.2" height="1289.4"/>
			</defs>
			<clipPath id="SVGID_134_">
				<use xlink:href="#SVGID_133_"  style="overflow:visible;"/>
			</clipPath>
			<rect x="58.5" y="3" class="st67" width="31.2" height="20.5"/>
		</g>
	</g>
	<g>
		<defs>
			<path id="SVGID_135_" d="M77.3,52.1c0.6,0.3,0.9,1.1,0.6,1.7c-0.3,0.6-1,0.9-1.7,0.7c-0.2-0.1-4.7-1.7-6.7,2
				c-0.2,0.4-0.7,0.7-1.2,0.7c-0.2,0-0.3,0-0.5-0.1c-0.6-0.3-1-1-0.8-1.6c0.1-0.2,1.6-5.3-2.2-7.2c-0.6-0.3-0.9-1-0.6-1.7
				c0.3-0.6,1-0.9,1.6-0.7c0.1,0,1.7,0.5,3.3,0.3c0,0.6,0,0.9,0,0.9c0,0.7,0.6,1.3,1.3,1.3h0c0.7,0,1.3-0.6,1.3-1.3c0-0.1,0-1,0-2.3
				c0.3-0.3,0.5-0.6,0.7-1c0.3-0.6,1-0.8,1.6-0.6c0.6,0.2,1,0.8,0.9,1.5C75.2,44.7,74.3,50.5,77.3,52.1 M73.4,51.4
				c-0.6-1.2-0.8-2.5-0.9-3.7c-1,0.6-2.2,0.9-3.3,1c0.6,1.1,0.9,2.4,1,3.5C71.2,51.7,72.3,51.5,73.4,51.4"/>
		</defs>
		<clipPath id="SVGID_136_">
			<use xlink:href="#SVGID_135_"  style="overflow:visible;"/>
		</clipPath>
		<g class="st68">
			<defs>
				<rect id="SVGID_137_" x="-1375.3" y="-16.8" width="1813.2" height="1289.4"/>
			</defs>
			<clipPath id="SVGID_138_">
				<use xlink:href="#SVGID_137_"  style="overflow:visible;"/>
			</clipPath>
			<rect x="58" y="36.8" class="st69" width="26.3" height="26.6"/>
		</g>
	</g>
	<g>
		<defs>
			<path id="SVGID_139_" d="M75.4,25.3c0.1,3.5-1.7,4.7-3.6,5.3c-1,0.3-2.6,0.4-5.2,0.4c-1.6,0-3.3,0.1-4.5,0.2
				c-1.6,0.2-3.4,1.8-4.3,2.9c-0.4-1-0.7-1.9-0.7-2.5c0-0.2,0-0.4,0.1-0.6c1.2-1.1,2.8-2.2,4.6-2.4c1.4-0.2,3.1-0.2,4.8-0.2
				c1.7,0,3.7-0.1,4.3-0.3c1.1-0.4,1.9-0.7,1.8-2.8c-0.1-1.9-0.1-4.2-0.2-5.6h2.6C75.3,21.2,75.4,23.4,75.4,25.3"/>
		</defs>
		<clipPath id="SVGID_140_">
			<use xlink:href="#SVGID_139_"  style="overflow:visible;"/>
		</clipPath>
		<g class="st70">
			<defs>
				<rect id="SVGID_141_" x="-1375.3" y="-16.8" width="1813.2" height="1289.4"/>
			</defs>
			<clipPath id="SVGID_142_">
				<use xlink:href="#SVGID_141_"  style="overflow:visible;"/>
			</clipPath>
			<rect x="50.9" y="13.5" class="st71" width="30.9" height="27"/>
		</g>
	</g>
	<g>
		<defs>
			<path id="SVGID_143_" d="M75.2,19.8h-2.6c0-0.8,0-1.3,0-1.3l2.6-0.1C75.2,18.4,75.2,19,75.2,19.8"/>
		</defs>
		<clipPath id="SVGID_144_">
			<use xlink:href="#SVGID_143_"  style="overflow:visible;"/>
		</clipPath>
		<g class="st72">
			<defs>
				<rect id="SVGID_145_" x="-1375.3" y="-16.8" width="1813.2" height="1289.4"/>
			</defs>
			<clipPath id="SVGID_146_">
				<use xlink:href="#SVGID_145_"  style="overflow:visible;"/>
			</clipPath>
			<rect x="66.3" y="12.1" class="st73" width="15.3" height="13.9"/>
		</g>
	</g>
	<g>
		<defs>
			<path id="SVGID_147_" d="M72.5,47.8c0.1,1.2,0.3,2.5,0.9,3.7c-1.1,0.1-2.2,0.3-3.2,0.8c-0.1-1.2-0.4-2.4-1-3.5
				C70.3,48.6,71.4,48.4,72.5,47.8"/>
		</defs>
		<clipPath id="SVGID_148_">
			<use xlink:href="#SVGID_147_"  style="overflow:visible;"/>
		</clipPath>
		<g class="st74">
			<defs>
				<rect id="SVGID_149_" x="-1375.3" y="-16.8" width="1813.2" height="1289.4"/>
			</defs>
			<clipPath id="SVGID_150_">
				<use xlink:href="#SVGID_149_"  style="overflow:visible;"/>
			</clipPath>
			<rect x="62.9" y="41.5" class="st75" width="16.8" height="17.1"/>
		</g>
	</g>
	<g>
		<defs>
			<path id="SVGID_151_" d="M72,42.5c0,0.9,0,1.7,0,2.4c-0.8,0.8-1.7,1.1-2.6,1.2c0-0.8,0-2.1,0-3.6c0-0.6-0.1-1-0.3-1.2
				c-0.3-0.3-1.2-0.3-2.6-0.2c-1.8,0.2-3.7,0.5-4.9,0.8c0-0.9-0.2-1.7-0.6-2.6c1.3-0.3,3.3-0.7,5.3-0.9c2-0.2,3.5-0.1,4.6,0.9
				C71.5,40.1,71.9,41.1,72,42.5"/>
		</defs>
		<clipPath id="SVGID_152_">
			<use xlink:href="#SVGID_151_"  style="overflow:visible;"/>
		</clipPath>
		<g class="st76">
			<defs>
				<rect id="SVGID_153_" x="-1375.3" y="-16.8" width="1813.2" height="1289.4"/>
			</defs>
			<clipPath id="SVGID_154_">
				<use xlink:href="#SVGID_153_"  style="overflow:visible;"/>
			</clipPath>
			<rect x="54.6" y="32.2" class="st77" width="23.6" height="20.2"/>
		</g>
	</g>
	<g>
		<defs>
			<path id="SVGID_155_" d="M72,44.9c0,1.3,0,2.2,0,2.2c0,0.7-0.6,1.3-1.3,1.3h0c-0.7,0-1.3-0.6-1.3-1.3c0,0,0-0.4,0-0.9
				C70.3,46,71.2,45.6,72,44.9"/>
		</defs>
		<clipPath id="SVGID_156_">
			<use xlink:href="#SVGID_155_"  style="overflow:visible;"/>
		</clipPath>
		<g class="st78">
			<defs>
				<rect id="SVGID_157_" x="-1375.3" y="-16.8" width="1813.2" height="1289.4"/>
			</defs>
			<clipPath id="SVGID_158_">
				<use xlink:href="#SVGID_157_"  style="overflow:visible;"/>
			</clipPath>
			<rect x="63" y="38.6" class="st79" width="15.3" height="16.1"/>
		</g>
	</g>
	<g>
		<defs>
			<path id="SVGID_159_" d="M61.5,42c0.1,1.4-0.4,2.9-1.6,3.9c-0.8,0.6-1.7,1.1-2.6,1.6c-1.6,0.8-3.2,1.6-3.7,3.3
				c-0.2,0.7-0.4,1.4-0.5,2.1c-0.5,2.6-1.1,5.5-5.6,6.7c-0.7,0.2-1.4,0.3-2,0.3c-2.7,0-4.3-1.7-5.5-3c-0.7-0.7-1.3-1.4-1.9-1.6
				c-0.1-0.1-0.3-0.1-0.4-0.2c-0.2-0.8-0.4-1.6-0.5-2.1c-0.1-0.5-0.6-0.9-1.1-1c1,0.1,2.1,0.4,3,0.8c1.1,0.5,2,1.4,2.8,2.2
				c1.6,1.7,2.6,2.6,4.9,2c2.9-0.8,3.2-2.3,3.7-4.7c0.2-0.8,0.3-1.6,0.6-2.4c0.9-2.7,3.2-3.9,5.1-4.8c0.8-0.4,1.6-0.8,2.1-1.2
				c0.7-0.6,0.8-1.6,0.6-2.6h0c0.2,0.7,0.9,1.1,1.6,0.9C60.4,42.2,60.8,42.1,61.5,42"/>
		</defs>
		<clipPath id="SVGID_160_">
			<use xlink:href="#SVGID_159_"  style="overflow:visible;"/>
		</clipPath>
		<g class="st80">
			<defs>
				<rect id="SVGID_161_" x="-1375.3" y="-16.8" width="1813.2" height="1289.4"/>
			</defs>
			<clipPath id="SVGID_162_">
				<use xlink:href="#SVGID_161_"  style="overflow:visible;"/>
			</clipPath>
			<rect x="29.8" y="35" class="st81" width="38" height="31.1"/>
		</g>
	</g>
	<g>
		<defs>
			<path id="SVGID_163_" d="M60.9,39.4c0.3,0.8,0.5,1.7,0.6,2.6c-0.7,0.2-1.1,0.3-1.1,0.3c-0.7,0.2-1.4-0.2-1.6-0.9
				c-0.2-0.7,0.2-1.4,0.9-1.6C59.8,39.7,60.2,39.6,60.9,39.4"/>
		</defs>
		<clipPath id="SVGID_164_">
			<use xlink:href="#SVGID_163_"  style="overflow:visible;"/>
		</clipPath>
		<g class="st82">
			<defs>
				<rect id="SVGID_165_" x="-1375.3" y="-16.8" width="1813.2" height="1289.4"/>
			</defs>
			<clipPath id="SVGID_166_">
				<use xlink:href="#SVGID_165_"  style="overflow:visible;"/>
			</clipPath>
			<rect x="52.4" y="33.1" class="st83" width="15.4" height="15.5"/>
		</g>
	</g>
	<g>
		<defs>
			<path id="SVGID_167_" d="M59.7,37.3c0.5,0.6,0.9,1.3,1.2,2.1c-0.7,0.2-1.2,0.3-1.2,0.3c-0.7,0.2-1.1,0.9-0.9,1.6h0
				c-0.2-0.9-0.6-1.7-1.1-2.3c-0.9-1.1-1.9-2.9-2.5-4.5l0,0c0.1,0.2,0.2,0.3,0.4,0.5c0.2,0.2,0.5,0.3,0.8,0.3c0.4,0,0.8-0.2,1.1-0.5
				c0.1-0.1,0.3-0.3,0.5-0.6C58.3,35.3,59,36.5,59.7,37.3"/>
		</defs>
		<clipPath id="SVGID_168_">
			<use xlink:href="#SVGID_167_"  style="overflow:visible;"/>
		</clipPath>
		<g class="st84">
			<defs>
				<rect id="SVGID_169_" x="-1375.3" y="-16.8" width="1813.2" height="1289.4"/>
			</defs>
			<clipPath id="SVGID_170_">
				<use xlink:href="#SVGID_169_"  style="overflow:visible;"/>
			</clipPath>
			<rect x="48.9" y="27.8" class="st85" width="18.4" height="19.8"/>
		</g>
	</g>
	<g>
		<defs>
			<path id="SVGID_171_" d="M58.8,41.3c0.2,1,0.1,2-0.6,2.6c-0.5,0.4-1.3,0.8-2.1,1.2c-1.9,0.9-4.2,2.1-5.1,4.8
				c-0.3,0.8-0.4,1.6-0.6,2.4c-0.5,2.4-0.8,3.9-3.7,4.7c-2.3,0.6-3.3-0.3-4.9-2c-0.8-0.9-1.6-1.7-2.8-2.2c-1-0.4-2-0.7-3-0.8
				c-0.6-0.1-1.2-0.1-1.7-0.1c-1.7,0-3.4,0.3-4.8,0.6c-1.1,0.2-2.5-0.2-3.5-1.1c-0.9-0.8-1.4-1.7-1.3-2.5c0-0.8,0.2-1.6,0.4-2.4
				c0.4-2.1,0.9-4.5-0.5-7.3c-1.7-3.5-1.9-4.9-0.9-6.5c0.8-1.2,1.5-1.3,2.6-1.4c0.5-0.1,1-0.1,1.5-0.3l0.4-0.2
				c0.1-0.1,2.1-1.6,3.2-4.1c0.8-1.8,1.4-2.6,2.2-2.8c0.3-0.1,0.6-0.1,0.9-0.1c2,0.2,3.4,0.8,5,2.1c2.4,2,4.9,2.6,8.1,1.8
				c1.1-0.2,1.9-0.6,2.5-0.8c1.4-0.5,2-0.7,3.6,0c1.3,0.6,1.4,1.6,1.1,3.6c-0.1,0.5-0.1,0.9-0.1,1.3c0,0.8,0.3,1.8,0.6,2.8
				c0.6,1.7,1.6,3.5,2.5,4.5C58.2,39.6,58.6,40.4,58.8,41.3"/>
		</defs>
		<clipPath id="SVGID_172_">
			<use xlink:href="#SVGID_171_"  style="overflow:visible;"/>
		</clipPath>
		<g class="st86">
			<defs>
				<rect id="SVGID_173_" x="-1375.3" y="-16.8" width="1813.2" height="1289.4"/>
			</defs>
			<clipPath id="SVGID_174_">
				<use xlink:href="#SVGID_173_"  style="overflow:visible;"/>
			</clipPath>
			<rect x="16.8" y="17.3" class="st87" width="48.4" height="46.2"/>
		</g>
	</g>
	<g>
		<defs>
			<path id="SVGID_175_" d="M57.9,34.1c-0.2,0.2-0.4,0.4-0.5,0.6c-0.3,0.3-0.7,0.5-1.1,0.5c-0.3,0-0.6-0.1-0.8-0.3
				c-0.2-0.1-0.3-0.3-0.4-0.5c-0.2-0.4-0.2-1,0.1-1.4c0.1-0.2,0.9-1.1,1.9-2c0,0.2-0.1,0.4-0.1,0.6C57.1,32.2,57.4,33.1,57.9,34.1"
				/>
		</defs>
		<clipPath id="SVGID_176_">
			<use xlink:href="#SVGID_175_"  style="overflow:visible;"/>
		</clipPath>
		<g class="st88">
			<defs>
				<rect id="SVGID_177_" x="-1375.3" y="-16.8" width="1813.2" height="1289.4"/>
			</defs>
			<clipPath id="SVGID_178_">
				<use xlink:href="#SVGID_177_"  style="overflow:visible;"/>
			</clipPath>
			<rect x="48.7" y="24.8" class="st89" width="15.4" height="16.7"/>
		</g>
	</g>
	<g>
		<defs>
			<path id="SVGID_179_" d="M54.7,24.4c3.3,1.5,2.8,4.7,2.5,6.4c0,0.1,0,0.2-0.1,0.4c-1.1,0.9-1.8,1.8-1.9,2
				C55,33.5,55,34,55.2,34.5l0,0c-0.4-1-0.6-2-0.6-2.8c0-0.4,0.1-0.9,0.1-1.3c0.3-2.1,0.2-3-1.1-3.6c-1.6-0.7-2.2-0.5-3.6,0
				c-0.7,0.3-1.5,0.6-2.5,0.8c-3.2,0.7-5.7,0.2-8.1-1.8c-1.6-1.3-2.9-1.9-5-2.1c-0.3,0-0.6,0-0.9,0.1v0c0.6-0.1,1-0.6,1.1-1.2
				c0-0.3,0.1-0.9,0.1-1.5h0c2.6,0.2,4.4,1,6.4,2.7c1.3,1.1,2.9,2,5.8,1.3c0.9-0.2,1.5-0.5,2.2-0.7C50.7,23.7,52.1,23.1,54.7,24.4"
				/>
		</defs>
		<clipPath id="SVGID_180_">
			<use xlink:href="#SVGID_179_"  style="overflow:visible;"/>
		</clipPath>
		<g class="st90">
			<defs>
				<rect id="SVGID_181_" x="-1375.3" y="-16.8" width="1813.2" height="1289.4"/>
			</defs>
			<clipPath id="SVGID_182_">
				<use xlink:href="#SVGID_181_"  style="overflow:visible;"/>
			</clipPath>
			<rect x="27.2" y="14.7" class="st91" width="36.5" height="26"/>
		</g>
	</g>
	<g>
		<defs>
			<path id="SVGID_183_" d="M38,56.9c0.1,1-0.3,1.9-1,2.4c-0.3,0.2-0.7,0.4-1.1,0.4c-0.1-1.2-0.7-2.2-1.5-2.9c0.1,0,0.1,0,0.2,0.1
				c0.4,0.2,0.7,0.2,0.9,0.2v0c0-0.2-0.3-1.4-0.6-2.6c1,0,1.9,0.2,2.8,0.5C37.8,55.8,38,56.6,38,56.9"/>
		</defs>
		<clipPath id="SVGID_184_">
			<use xlink:href="#SVGID_183_"  style="overflow:visible;"/>
		</clipPath>
		<g class="st92">
			<defs>
				<rect id="SVGID_185_" x="-1375.3" y="-16.8" width="1813.2" height="1289.4"/>
			</defs>
			<clipPath id="SVGID_186_">
				<use xlink:href="#SVGID_185_"  style="overflow:visible;"/>
			</clipPath>
			<rect x="28" y="48.2" class="st93" width="16.3" height="17.7"/>
		</g>
	</g>
	<g>
		<defs>
			<path id="SVGID_187_" d="M37.1,53c0.1,0.5,0.3,1.3,0.5,2.1c-0.9-0.3-1.8-0.5-2.8-0.5c-0.1-0.3-0.1-0.6-0.2-0.9
				c-0.2-0.7,0.3-1.4,1-1.6c0.2,0,0.4,0,0.5,0C36.6,52.1,37,52.4,37.1,53"/>
		</defs>
		<clipPath id="SVGID_188_">
			<use xlink:href="#SVGID_187_"  style="overflow:visible;"/>
		</clipPath>
		<g class="st94">
			<defs>
				<rect id="SVGID_189_" x="-1375.3" y="-16.8" width="1813.2" height="1289.4"/>
			</defs>
			<clipPath id="SVGID_190_">
				<use xlink:href="#SVGID_189_"  style="overflow:visible;"/>
			</clipPath>
			<rect x="28.3" y="45.7" class="st95" width="15.7" height="15.7"/>
		</g>
	</g>
	<g>
		<defs>
			<path id="SVGID_191_" d="M36.1,52c-0.2,0-0.3,0-0.5,0c-0.7,0.2-1.1,0.9-1,1.6c0.1,0.3,0.2,0.6,0.2,0.9c-1.6-0.1-3.3,0.2-4.7,0.5
				c-1.9,0.4-4.1-0.3-5.7-1.7c-1.5-1.3-2.3-3-2.2-4.6c0.1-1,0.2-1.9,0.4-2.8c0.4-2,0.7-3.7-0.3-5.6c-1.6-3.2-2.7-6.1-0.7-9.1
				c1.4-2.2,3.2-2.4,4.4-2.6c0.3,0,0.6-0.1,0.9-0.2c0.4-0.4,1.5-1.4,2.1-2.9c0.4-1,1.3-3,3-4c0,0.3,0,0.5,0,0.8
				c-0.1,0.7,0.5,1.3,1.2,1.4c0.1,0,0.2,0,0.4,0v0c-0.7,0.2-1.4,1-2.2,2.8c-1.1,2.5-3.1,4-3.2,4.1l-0.4,0.2c-0.5,0.2-1,0.2-1.5,0.3
				c-1.1,0.2-1.8,0.3-2.6,1.4c-1,1.6-0.8,3,0.9,6.5c1.3,2.7,0.9,5.2,0.5,7.3c-0.2,0.8-0.3,1.6-0.4,2.4c0,0.9,0.4,1.8,1.3,2.5
				c1.1,0.9,2.4,1.3,3.5,1.1c1.4-0.3,3.1-0.6,4.8-0.6C34.9,51.9,35.5,51.9,36.1,52"/>
		</defs>
		<clipPath id="SVGID_192_">
			<use xlink:href="#SVGID_191_"  style="overflow:visible;"/>
		</clipPath>
		<g class="st96">
			<defs>
				<rect id="SVGID_193_" x="-1375.3" y="-16.8" width="1813.2" height="1289.4"/>
			</defs>
			<clipPath id="SVGID_194_">
				<use xlink:href="#SVGID_193_"  style="overflow:visible;"/>
			</clipPath>
			<rect x="14.2" y="15.3" class="st97" width="28.2" height="46.2"/>
		</g>
	</g>
	<g>
		<defs>
			<path id="SVGID_195_" d="M35.9,59.7c0,0.2,0,0.4,0,0.6c0,2.5-2.1,4.6-4.6,4.6c-2.6,0-4.7-2.1-4.7-4.6c0-2.6,2.1-4.6,4.7-4.6
				c1.2,0,2.2,0.4,3,1.1c-0.6-0.2-1.3,0.2-1.5,0.8c-0.3,0.7,0,1.4,0.7,1.7c0.7,0.3,1.4,0.5,2,0.5C35.6,59.7,35.8,59.7,35.9,59.7
				 M33.3,60.2c0-1.1-0.9-2-2-2c-1.1,0-2,0.9-2,2c0,1.1,0.9,2,2,2C32.4,62.2,33.3,61.3,33.3,60.2"/>
		</defs>
		<clipPath id="SVGID_196_">
			<use xlink:href="#SVGID_195_"  style="overflow:visible;"/>
		</clipPath>
		<g class="st98">
			<defs>
				<rect id="SVGID_197_" x="-1375.3" y="-16.8" width="1813.2" height="1289.4"/>
			</defs>
			<clipPath id="SVGID_198_">
				<use xlink:href="#SVGID_197_"  style="overflow:visible;"/>
			</clipPath>
			<rect x="20.3" y="49.3" class="st99" width="21.9" height="21.8"/>
		</g>
	</g>
	<g>
		<defs>
			<path id="SVGID_199_" d="M35.9,59.7c-0.1,0-0.2,0-0.4,0c-0.6,0-1.3-0.1-2-0.5c-0.7-0.3-1-1-0.7-1.7c0.3-0.6,0.9-0.9,1.5-0.8
				c0,0,0,0,0,0C35.2,57.5,35.7,58.5,35.9,59.7"/>
		</defs>
		<clipPath id="SVGID_200_">
			<use xlink:href="#SVGID_199_"  style="overflow:visible;"/>
		</clipPath>
		<g class="st100">
			<defs>
				<rect id="SVGID_201_" x="-1375.3" y="-16.8" width="1813.2" height="1289.4"/>
			</defs>
			<clipPath id="SVGID_202_">
				<use xlink:href="#SVGID_201_"  style="overflow:visible;"/>
			</clipPath>
			<rect x="26.4" y="50.4" class="st101" width="15.8" height="15.6"/>
		</g>
	</g>
	<g>
		<defs>
			<path id="SVGID_203_" d="M34.2,15.4c0.6,1.2,0.6,3.9,0.5,5.7c-1.1-0.1-1.9,0.1-2.7,0.5c0.1-2.1,0.1-4.5-0.2-5.1
				c-0.2-0.5-2.1-1.2-5.1-0.9c-0.7,0.1-1.6,0.1-2.6,0.1c-1.6,0.1-5.5,0.2-6.3,0.8c0,0.3,0,0.7,0,1.1c0.1,1.8,0.2,3.9-1.1,5.2
				c-0.4,0.4-1.2,0.9-2.4,1c-0.9,0-1.5,0-2,0v-2.6c0.4,0,1.1,0,2,0c0.4,0,0.5-0.1,0.5-0.1c0.5-0.5,0.4-2.2,0.3-3.3c0-0.5,0-1,0-1.4
				c0.1-2.9,4.7-3.1,8.8-3.2c0.9,0,1.8-0.1,2.4-0.1C29.5,12.7,33.1,13.1,34.2,15.4"/>
		</defs>
		<clipPath id="SVGID_204_">
			<use xlink:href="#SVGID_203_"  style="overflow:visible;"/>
		</clipPath>
		<g class="st102">
			<defs>
				<rect id="SVGID_205_" x="-1375.3" y="-16.8" width="1813.2" height="1289.4"/>
			</defs>
			<clipPath id="SVGID_206_">
				<use xlink:href="#SVGID_205_"  style="overflow:visible;"/>
			</clipPath>
			<rect x="6.2" y="6.6" class="st103" width="34.8" height="23.5"/>
		</g>
	</g>
	<g>
		<defs>
			<path id="SVGID_207_" d="M34.7,21c0,0.6-0.1,1.2-0.1,1.5c0,0.6-0.5,1.1-1.1,1.2c-0.1,0-0.2,0-0.4,0c-0.7-0.1-1.3-0.7-1.2-1.4
				c0-0.3,0-0.5,0-0.8C32.7,21.2,33.6,20.9,34.7,21"/>
		</defs>
		<clipPath id="SVGID_208_">
			<use xlink:href="#SVGID_207_"  style="overflow:visible;"/>
		</clipPath>
		<g class="st104">
			<defs>
				<rect id="SVGID_209_" x="-1375.3" y="-16.8" width="1813.2" height="1289.4"/>
			</defs>
			<clipPath id="SVGID_210_">
				<use xlink:href="#SVGID_209_"  style="overflow:visible;"/>
			</clipPath>
			<rect x="25.7" y="14.7" class="st105" width="15.3" height="15.3"/>
		</g>
	</g>
	<g>
		<defs>
			<path id="SVGID_211_" d="M34.5,67.2c0.3,0.6,0.1,1.4-0.5,1.8c-1.2,0.7-2.6,1-4,1c-4.5,0-8.2-3.7-8.2-8.2c0-0.7,0.6-1.3,1.3-1.3
				c0.7,0,1.3,0.6,1.3,1.3c0,3.1,2.5,5.6,5.6,5.6c0.9,0,1.9-0.2,2.7-0.7C33.4,66.3,34.2,66.5,34.5,67.2"/>
		</defs>
		<clipPath id="SVGID_212_">
			<use xlink:href="#SVGID_211_"  style="overflow:visible;"/>
		</clipPath>
		<g class="st106">
			<defs>
				<rect id="SVGID_213_" x="-1375.3" y="-16.8" width="1813.2" height="1289.4"/>
			</defs>
			<clipPath id="SVGID_214_">
				<use xlink:href="#SVGID_213_"  style="overflow:visible;"/>
			</clipPath>
			<rect x="15.5" y="54.2" class="st107" width="25.5" height="22.1"/>
		</g>
	</g>
	<g>
		<defs>
			<rect id="SVGID_215_" x="17.9" y="63.6" width="16.1" height="11.7"/>
		</defs>
		<clipPath id="SVGID_216_">
			<use xlink:href="#SVGID_215_"  style="overflow:visible;"/>
		</clipPath>
		<g class="st108">
			<defs>
				<rect id="SVGID_217_" x="-1375.3" y="-16.8" width="1813.2" height="1289.4"/>
			</defs>
			<clipPath id="SVGID_218_">
				<use xlink:href="#SVGID_217_"  style="overflow:visible;"/>
			</clipPath>
			<g class="st109">
				<g>
					<defs>
						<rect id="SVGID_219_" x="17.4" y="62.5" width="17.6" height="13.9"/>
					</defs>
					<clipPath id="SVGID_220_">
						<use xlink:href="#SVGID_219_"  style="overflow:visible;"/>
					</clipPath>
					<g class="st110">
						<defs>
							<path id="SVGID_221_" d="M33.9,72.2c0.3,0.6,0.1,1.4-0.5,1.8c-1.5,0.8-3.3,1.3-5,1.3c-5.7,0-10.4-4.6-10.4-10.4
								c0-0.7,0.6-1.3,1.3-1.3c0.7,0,1.3,0.6,1.3,1.3c0,4.3,3.5,7.7,7.8,7.7c1.3,0,2.6-0.3,3.8-1C32.7,71.3,33.5,71.5,33.9,72.2"/>
						</defs>
						<clipPath id="SVGID_222_">
							<use xlink:href="#SVGID_221_"  style="overflow:visible;"/>
						</clipPath>
						<g class="st111">
							<defs>
								<rect id="SVGID_223_" x="17.4" y="62.5" width="17.6" height="13.9"/>
							</defs>
							<clipPath id="SVGID_224_">
								<use xlink:href="#SVGID_223_"  style="overflow:visible;"/>
							</clipPath>
							<rect x="11.6" y="57.3" class="st112" width="28.7" height="24.3"/>
						</g>
					</g>
				</g>
			</g>
		</g>
	</g>
	<g>
		<defs>
			<path id="SVGID_225_" d="M31.3,58.2c1.1,0,2,0.9,2,2c0,1.1-0.9,2-2,2c-1.1,0-2-0.9-2-2C29.3,59.1,30.2,58.2,31.3,58.2"/>
		</defs>
		<clipPath id="SVGID_226_">
			<use xlink:href="#SVGID_225_"  style="overflow:visible;"/>
		</clipPath>
		<g class="st113">
			<defs>
				<rect id="SVGID_227_" x="-1375.3" y="-16.8" width="1813.2" height="1289.4"/>
			</defs>
			<clipPath id="SVGID_228_">
				<use xlink:href="#SVGID_227_"  style="overflow:visible;"/>
			</clipPath>
			<rect x="23" y="51.9" class="st114" width="16.6" height="16.6"/>
		</g>
	</g>
	<g>
		<defs>
			<rect id="SVGID_229_" x="3.5" y="45.4" width="9" height="6.7"/>
		</defs>
		<clipPath id="SVGID_230_">
			<use xlink:href="#SVGID_229_"  style="overflow:visible;"/>
		</clipPath>
		<g class="st115">
			<defs>
				<rect id="SVGID_231_" x="-1375.3" y="-16.8" width="1813.2" height="1289.4"/>
			</defs>
			<clipPath id="SVGID_232_">
				<use xlink:href="#SVGID_231_"  style="overflow:visible;"/>
			</clipPath>
			<g class="st116">
				<g>
					<defs>
						<rect id="SVGID_233_" x="3.5" y="44.9" width="10.1" height="7.6"/>
					</defs>
					<clipPath id="SVGID_234_">
						<use xlink:href="#SVGID_233_"  style="overflow:visible;"/>
					</clipPath>
					<g class="st117">
						<defs>
							<path id="SVGID_235_" d="M12.5,48.3v0.9c0,1.6-1.3,2.9-2.9,2.9H6.4c-1.6,0-2.9-1.3-2.9-2.9v-0.9c0-1.6,1.3-2.9,2.9-2.9h3.1
								C11.2,45.4,12.5,46.7,12.5,48.3 M9.9,49.2v-0.9c0-0.2-0.1-0.3-0.3-0.3H6.4c-0.2,0-0.3,0.1-0.3,0.3v0.9c0,0.2,0.1,0.3,0.3,0.3
								h3.1C9.7,49.5,9.9,49.4,9.9,49.2"/>
						</defs>
						<clipPath id="SVGID_236_">
							<use xlink:href="#SVGID_235_"  style="overflow:visible;"/>
						</clipPath>
						<g class="st118">
							<defs>
								<rect id="SVGID_237_" x="3.5" y="44.9" width="10.1" height="7.6"/>
							</defs>
							<clipPath id="SVGID_238_">
								<use xlink:href="#SVGID_237_"  style="overflow:visible;"/>
							</clipPath>
							<rect x="-2.8" y="39.1" class="st119" width="21.6" height="19.3"/>
						</g>
					</g>
				</g>
			</g>
		</g>
	</g>
	<g>
		<defs>
			<rect id="SVGID_239_" x="3.5" y="34.6" width="9" height="8.7"/>
		</defs>
		<clipPath id="SVGID_240_">
			<use xlink:href="#SVGID_239_"  style="overflow:visible;"/>
		</clipPath>
		<g class="st120">
			<defs>
				<rect id="SVGID_241_" x="-1375.3" y="-16.8" width="1813.2" height="1289.4"/>
			</defs>
			<clipPath id="SVGID_242_">
				<use xlink:href="#SVGID_241_"  style="overflow:visible;"/>
			</clipPath>
			<g class="st121">
				<g>
					<defs>
						<rect id="SVGID_243_" x="3.5" y="33.5" width="10.1" height="10.1"/>
					</defs>
					<clipPath id="SVGID_244_">
						<use xlink:href="#SVGID_243_"  style="overflow:visible;"/>
					</clipPath>
					<g class="st122">
						<defs>
							<path id="SVGID_245_" d="M12.5,37.5v2.8c0,1.6-1.3,2.9-2.9,2.9H6.4c-1.6,0-2.9-1.3-2.9-2.9v-2.8c0-1.6,1.3-2.9,2.9-2.9h3.1
								C11.2,34.6,12.5,35.9,12.5,37.5 M9.9,40.4v-2.8c0-0.2-0.1-0.3-0.3-0.3H6.4c-0.2,0-0.3,0.1-0.3,0.3v2.8c0,0.2,0.1,0.3,0.3,0.3
								h3.1C9.7,40.7,9.9,40.5,9.9,40.4"/>
						</defs>
						<clipPath id="SVGID_246_">
							<use xlink:href="#SVGID_245_"  style="overflow:visible;"/>
						</clipPath>
						<g class="st123">
							<defs>
								<rect id="SVGID_247_" x="3.5" y="33.5" width="10.1" height="10.1"/>
							</defs>
							<clipPath id="SVGID_248_">
								<use xlink:href="#SVGID_247_"  style="overflow:visible;"/>
							</clipPath>
							<rect x="-2.8" y="28.3" class="st124" width="21.6" height="21.2"/>
						</g>
					</g>
				</g>
			</g>
		</g>
	</g>
	<g>
		<defs>
			<rect id="SVGID_249_" x="3.5" y="10.6" width="9" height="21.9"/>
		</defs>
		<clipPath id="SVGID_250_">
			<use xlink:href="#SVGID_249_"  style="overflow:visible;"/>
		</clipPath>
		<g class="st125">
			<defs>
				<rect id="SVGID_251_" x="-1375.3" y="-16.8" width="1813.2" height="1289.4"/>
			</defs>
			<clipPath id="SVGID_252_">
				<use xlink:href="#SVGID_251_"  style="overflow:visible;"/>
			</clipPath>
			<g class="st126">
				<g>
					<defs>
						<rect id="SVGID_253_" x="3.5" y="9.6" width="10.1" height="23.9"/>
					</defs>
					<clipPath id="SVGID_254_">
						<use xlink:href="#SVGID_253_"  style="overflow:visible;"/>
					</clipPath>
					<g class="st127">
						<defs>
							<path id="SVGID_255_" d="M12.5,23.8v5.8c0,1.6-1.3,2.9-2.9,2.9H6.4c-1.6,0-2.9-1.3-2.9-2.9V15.1c0-2.5,2-4.5,4.5-4.5
								c2.5,0,4.5,2,4.5,4.5v6.1h-0.3c-0.4,0-0.6,0-0.6,0c-0.7-0.1-1.4,0.3-1.5,1c-0.1,0.7,0.3,1.4,1,1.5
								C11.2,23.7,11.4,23.8,12.5,23.8L12.5,23.8z M9.9,29.6V15.1c0-1-0.8-1.8-1.9-1.8c-1,0-1.9,0.8-1.9,1.8v14.5
								c0,0.2,0.1,0.3,0.3,0.3h3.1C9.7,29.9,9.9,29.7,9.9,29.6z"/>
						</defs>
						<clipPath id="SVGID_256_">
							<use xlink:href="#SVGID_255_"  style="overflow:visible;"/>
						</clipPath>
						<g class="st128">
							<defs>
								<rect id="SVGID_257_" x="3.5" y="9.6" width="10.1" height="23.9"/>
							</defs>
							<clipPath id="SVGID_258_">
								<use xlink:href="#SVGID_257_"  style="overflow:visible;"/>
							</clipPath>
							<rect x="-2.8" y="4.3" class="st129" width="21.6" height="34.5"/>
						</g>
					</g>
				</g>
			</g>
		</g>
	</g>
	<g>
		<defs>
			<path id="SVGID_259_" d="M12.5,21.1v2.6h-0.1c-1.1,0-1.2,0-1.3,0c-0.7-0.1-1.2-0.8-1-1.5c0.1-0.7,0.8-1.2,1.5-1c0,0,0.1,0,0.6,0
				H12.5z"/>
		</defs>
		<clipPath id="SVGID_260_">
			<use xlink:href="#SVGID_259_"  style="overflow:visible;"/>
		</clipPath>
		<g class="st130">
			<defs>
				<rect id="SVGID_261_" x="-1375.3" y="-16.8" width="1813.2" height="1289.4"/>
			</defs>
			<clipPath id="SVGID_262_">
				<use xlink:href="#SVGID_261_"  style="overflow:visible;"/>
			</clipPath>
			<rect x="3.8" y="14.8" class="st131" width="15" height="15.2"/>
		</g>
	</g>
	<g>
		<defs>
			<path id="SVGID_263_" d="M9.9,48.3v0.9c0,0.2-0.1,0.3-0.3,0.3H6.4c-0.2,0-0.3-0.1-0.3-0.3v-0.9c0-0.2,0.1-0.3,0.3-0.3h3.1
				C9.7,48,9.9,48.2,9.9,48.3"/>
		</defs>
		<clipPath id="SVGID_264_">
			<use xlink:href="#SVGID_263_"  style="overflow:visible;"/>
		</clipPath>
		<g class="st132">
			<defs>
				<rect id="SVGID_265_" x="-1375.3" y="-16.8" width="1813.2" height="1289.4"/>
			</defs>
			<clipPath id="SVGID_266_">
				<use xlink:href="#SVGID_265_"  style="overflow:visible;"/>
			</clipPath>
			<rect x="-0.2" y="41.7" class="st133" width="16.3" height="14.1"/>
		</g>
	</g>
	<g>
		<defs>
			<path id="SVGID_267_" d="M9.9,37.5v2.8c0,0.2-0.1,0.3-0.3,0.3H6.4c-0.2,0-0.3-0.1-0.3-0.3v-2.8c0-0.2,0.1-0.3,0.3-0.3h3.1
				C9.7,37.2,9.9,37.4,9.9,37.5"/>
		</defs>
		<clipPath id="SVGID_268_">
			<use xlink:href="#SVGID_267_"  style="overflow:visible;"/>
		</clipPath>
		<g class="st134">
			<defs>
				<rect id="SVGID_269_" x="-1375.3" y="-16.8" width="1813.2" height="1289.4"/>
			</defs>
			<clipPath id="SVGID_270_">
				<use xlink:href="#SVGID_269_"  style="overflow:visible;"/>
			</clipPath>
			<rect x="-0.2" y="30.9" class="st135" width="16.3" height="16"/>
		</g>
	</g>
	<g>
		<defs>
			<path id="SVGID_271_" d="M9.9,15.1v14.5c0,0.2-0.1,0.3-0.3,0.3H6.4c-0.2,0-0.3-0.1-0.3-0.3V15.1c0-1,0.8-1.8,1.9-1.8
				C9,13.2,9.9,14,9.9,15.1"/>
		</defs>
		<clipPath id="SVGID_272_">
			<use xlink:href="#SVGID_271_"  style="overflow:visible;"/>
		</clipPath>
		<g class="st136">
			<defs>
				<rect id="SVGID_273_" x="-1375.3" y="-16.8" width="1813.2" height="1289.4"/>
			</defs>
			<clipPath id="SVGID_274_">
				<use xlink:href="#SVGID_273_"  style="overflow:visible;"/>
			</clipPath>
			<rect x="-0.2" y="6.9" class="st137" width="16.3" height="29.2"/>
		</g>
	</g>
</g>
</svg>
