<?xml version="1.0" encoding="utf-8"?>
<!-- Generator: Adobe Illustrator 21.0.0, SVG Export Plug-In . SVG Version: 6.00 Build 0)  -->
<svg version="1.1" id="Layer_1" xmlns="http://www.w3.org/2000/svg" xmlns:xlink="http://www.w3.org/1999/xlink" x="0px" y="0px"
	 viewBox="0 0 300 82" style="enable-background:new 0 0 300 82;" xml:space="preserve">
<style type="text/css">
	.st0{clip-path:url(#SVGID_2_);}
	.st1{clip-path:url(#SVGID_4_);fill:#F7F6F9;}
	.st2{clip-path:url(#SVGID_6_);}
	.st3{clip-path:url(#SVGID_8_);fill:#F7F6F9;}
	.st4{clip-path:url(#SVGID_10_);}
	.st5{clip-path:url(#SVGID_12_);fill:#F7F6F9;}
	.st6{clip-path:url(#SVGID_14_);}
	.st7{clip-path:url(#SVGID_16_);fill:#F7F6F9;}
	.st8{clip-path:url(#SVGID_18_);}
	.st9{clip-path:url(#SVGID_20_);fill:#F7F6F9;}
	.st10{clip-path:url(#SVGID_22_);}
	.st11{clip-path:url(#SVGID_24_);enable-background:new    ;}
	.st12{clip-path:url(#SVGID_26_);}
	.st13{clip-path:url(#SVGID_28_);}
	.st14{clip-path:url(#SVGID_30_);fill:#F7F6F9;}
	.st15{clip-path:url(#SVGID_32_);}
	.st16{clip-path:url(#SVGID_34_);fill:#F7F6F9;}
	.st17{clip-path:url(#SVGID_36_);}
	.st18{clip-path:url(#SVGID_38_);fill:#F7F6F9;}
	.st19{clip-path:url(#SVGID_40_);}
	.st20{clip-path:url(#SVGID_42_);fill:#F7F6F9;}
	.st21{clip-path:url(#SVGID_44_);}
	.st22{clip-path:url(#SVGID_46_);fill:#F7F6F9;}
	.st23{clip-path:url(#SVGID_48_);}
	.st24{clip-path:url(#SVGID_50_);fill:#F7F6F9;}
	.st25{clip-path:url(#SVGID_52_);}
	.st26{clip-path:url(#SVGID_54_);fill:#F7F6F9;}
	.st27{clip-path:url(#SVGID_56_);}
	.st28{clip-path:url(#SVGID_58_);fill:#F7F6F9;}
	.st29{clip-path:url(#SVGID_60_);}
	.st30{clip-path:url(#SVGID_62_);fill:#F7F6F9;}
	.st31{clip-path:url(#SVGID_64_);}
	.st32{clip-path:url(#SVGID_66_);fill:#F7F6F9;}
	.st33{clip-path:url(#SVGID_68_);}
	.st34{clip-path:url(#SVGID_70_);fill:#F7F6F9;}
	.st35{clip-path:url(#SVGID_72_);}
	.st36{clip-path:url(#SVGID_74_);fill:#F7F6F9;}
	.st37{clip-path:url(#SVGID_76_);}
	.st38{clip-path:url(#SVGID_78_);fill:#F7F6F9;}
	.st39{clip-path:url(#SVGID_80_);}
	.st40{clip-path:url(#SVGID_82_);fill:#F7F6F9;}
	.st41{clip-path:url(#SVGID_84_);}
	.st42{clip-path:url(#SVGID_86_);fill:#F7F6F9;}
	.st43{clip-path:url(#SVGID_88_);}
	.st44{clip-path:url(#SVGID_90_);fill:#F7F6F9;}
	.st45{clip-path:url(#SVGID_92_);}
	.st46{clip-path:url(#SVGID_94_);fill:#F7F6F9;}
	.st47{clip-path:url(#SVGID_96_);}
	.st48{clip-path:url(#SVGID_98_);fill:#F7F6F9;}
	.st49{clip-path:url(#SVGID_100_);}
	.st50{clip-path:url(#SVGID_102_);fill:#F7F6F9;}
	.st51{clip-path:url(#SVGID_104_);}
	.st52{clip-path:url(#SVGID_106_);fill:#F7F6F9;}
	.st53{clip-path:url(#SVGID_108_);}
	.st54{clip-path:url(#SVGID_110_);fill:#F7F6F9;}
	.st55{clip-path:url(#SVGID_112_);}
	.st56{clip-path:url(#SVGID_114_);fill:#F7F6F9;}
	.st57{clip-path:url(#SVGID_116_);}
	.st58{clip-path:url(#SVGID_118_);fill:#F7F6F9;}
	.st59{clip-path:url(#SVGID_120_);}
	.st60{clip-path:url(#SVGID_122_);fill:#F7F6F9;}
	.st61{clip-path:url(#SVGID_124_);}
	.st62{clip-path:url(#SVGID_126_);fill:#F7F6F9;}
	.st63{clip-path:url(#SVGID_128_);}
	.st64{clip-path:url(#SVGID_130_);fill:#F7F6F9;}
</style>
<g>
	<g>
		<defs>
			<path id="SVGID_1_" d="M121.1,34.1c0.7,0,1.3,0,1.7,0.1c0.4,0,0.8,0.2,1.3,0.5c0.5,0.3,0.8,0.7,1,1.3c0.2,0.6,0.3,1.4,0.3,2.5
				c0,1-0.1,1.9-0.3,2.5c-0.2,0.6-0.5,1-1,1.3c-0.5,0.2-0.9,0.4-1.3,0.4c-0.4,0-1,0.1-1.7,0.1H106v4.9h9.6c0.8,0,1.4,0,1.7,0.1
				c0.4,0,0.8,0.2,1.3,0.5c0.8,0.5,1.3,1.8,1.3,3.8c0,2.3-0.6,3.6-1.9,4c-0.5,0.2-1.3,0.2-2.5,0.2H106v9.2c0,0.8,0,1.3-0.1,1.7
				c0,0.4-0.2,0.8-0.5,1.3c-0.5,0.9-1.7,1.3-3.8,1.3c-2.3,0-3.6-0.6-4-1.8c-0.2-0.5-0.3-1.3-0.3-2.5V38.4c0-1.6,0.3-2.8,0.9-3.4
				c0.6-0.6,1.8-0.9,3.5-0.9H121.1z"/>
		</defs>
		<clipPath id="SVGID_2_">
			<use xlink:href="#SVGID_1_"  style="overflow:visible;"/>
		</clipPath>
		<g class="st0">
			<defs>
				<rect id="SVGID_3_" x="-76.4" y="-3075.5" width="2328.9" height="3444.9"/>
			</defs>
			<clipPath id="SVGID_4_">
				<use xlink:href="#SVGID_3_"  style="overflow:visible;"/>
			</clipPath>
			<rect x="89.3" y="26" class="st1" width="44.1" height="51.7"/>
		</g>
	</g>
	<g>
		<defs>
			<path id="SVGID_5_" d="M151.2,35.4c0.3-0.5,0.8-0.9,1.4-1.1c0.6-0.2,1.4-0.3,2.3-0.3c0.9,0,1.7,0.1,2.2,0.2
				c0.6,0.2,1,0.4,1.3,0.6c0.3,0.2,0.5,0.6,0.6,1c0.2,0.5,0.3,1.4,0.3,2.5v14.6c0,4.3-1.3,8.1-4,11.6c-1.3,1.6-3,3-5,4
				c-2.1,1-4.3,1.5-6.8,1.5c-2.5,0-4.7-0.5-6.8-1.5c-2-1-3.7-2.4-5-4.1c-2.6-3.4-4-7.3-4-11.6V38.4c0-0.8,0-1.3,0.1-1.7
				c0-0.4,0.2-0.8,0.5-1.3c0.3-0.5,0.7-0.8,1.3-1c0.6-0.2,1.4-0.3,2.5-0.3s1.9,0.1,2.5,0.3c0.6,0.2,1,0.5,1.3,1
				c0.4,0.7,0.6,1.8,0.6,3V53c0,2,0.5,3.8,1.5,5.6c0.5,0.9,1.2,1.6,2.2,2.2c1,0.5,2.1,0.8,3.5,0.8c2.4,0,4.1-0.9,5.3-2.6
				c1.2-1.7,1.8-3.8,1.8-6.1V38.1C150.7,36.8,150.9,36,151.2,35.4"/>
		</defs>
		<clipPath id="SVGID_6_">
			<use xlink:href="#SVGID_5_"  style="overflow:visible;"/>
		</clipPath>
		<g class="st2">
			<defs>
				<rect id="SVGID_7_" x="-76.4" y="-3075.5" width="2328.9" height="3444.9"/>
			</defs>
			<clipPath id="SVGID_8_">
				<use xlink:href="#SVGID_7_"  style="overflow:visible;"/>
			</clipPath>
			<rect x="119.7" y="26" class="st3" width="47.7" height="52.3"/>
		</g>
	</g>
	<g>
		<defs>
			<path id="SVGID_9_" d="M165.2,34.1h27.1c1,0,1.8,0.1,2.3,0.4c0.5,0.2,0.8,0.6,1,1.1c0.2,0.5,0.2,1.2,0.2,2c0,0.8-0.1,1.5-0.2,2
				c-0.2,0.5-0.4,0.8-0.8,1c-0.6,0.3-1.4,0.4-2.5,0.4h-9.3v24.4c0,0.7,0,1.3-0.1,1.6c0,0.4-0.2,0.8-0.4,1.2c-0.2,0.5-0.7,0.8-1.3,1
				c-0.6,0.2-1.4,0.3-2.4,0.3c-1,0-1.8-0.1-2.4-0.3c-0.6-0.2-1-0.5-1.3-1c-0.2-0.5-0.4-0.9-0.4-1.3c0-0.4-0.1-0.9-0.1-1.7V41.1h-9.4
				c-1,0-1.8-0.1-2.3-0.4c-0.5-0.2-0.8-0.6-1-1.1c-0.2-0.5-0.2-1.2-0.2-2c0-0.8,0.1-1.5,0.2-2c0.2-0.5,0.4-0.8,0.8-1
				C163.3,34.2,164.1,34.1,165.2,34.1"/>
		</defs>
		<clipPath id="SVGID_10_">
			<use xlink:href="#SVGID_9_"  style="overflow:visible;"/>
		</clipPath>
		<g class="st4">
			<defs>
				<rect id="SVGID_11_" x="-76.4" y="-3075.5" width="2328.9" height="3444.9"/>
			</defs>
			<clipPath id="SVGID_12_">
				<use xlink:href="#SVGID_11_"  style="overflow:visible;"/>
			</clipPath>
			<rect x="153.5" y="26" class="st5" width="50.4" height="51.7"/>
		</g>
	</g>
	<g>
		<defs>
			<path id="SVGID_13_" d="M221.4,35.4c0.3-0.5,0.8-0.9,1.4-1.1c0.6-0.2,1.4-0.3,2.3-0.3c0.9,0,1.7,0.1,2.2,0.2
				c0.6,0.2,1,0.4,1.3,0.6c0.3,0.2,0.5,0.6,0.6,1c0.2,0.5,0.3,1.4,0.3,2.5v14.6c0,4.3-1.3,8.1-4,11.6c-1.3,1.6-3,3-5,4
				c-2.1,1-4.3,1.5-6.8,1.5c-2.5,0-4.7-0.5-6.8-1.5c-2-1-3.7-2.4-5-4.1c-2.6-3.4-4-7.3-4-11.6V38.4c0-0.8,0-1.3,0.1-1.7
				c0-0.4,0.2-0.8,0.5-1.3c0.3-0.5,0.7-0.8,1.3-1c0.6-0.2,1.4-0.3,2.5-0.3c1,0,1.9,0.1,2.5,0.3c0.6,0.2,1,0.5,1.3,1
				c0.4,0.7,0.6,1.8,0.6,3V53c0,2,0.5,3.8,1.5,5.6c0.5,0.9,1.2,1.6,2.2,2.2c1,0.5,2.1,0.8,3.5,0.8c2.4,0,4.1-0.9,5.3-2.6
				c1.2-1.7,1.8-3.8,1.8-6.1V38.1C220.9,36.8,221.1,36,221.4,35.4"/>
		</defs>
		<clipPath id="SVGID_14_">
			<use xlink:href="#SVGID_13_"  style="overflow:visible;"/>
		</clipPath>
		<g class="st6">
			<defs>
				<rect id="SVGID_15_" x="-76.4" y="-3075.5" width="2328.9" height="3444.9"/>
			</defs>
			<clipPath id="SVGID_16_">
				<use xlink:href="#SVGID_15_"  style="overflow:visible;"/>
			</clipPath>
			<rect x="190" y="26" class="st7" width="47.7" height="52.3"/>
		</g>
	</g>
	<g>
		<defs>
			<path id="SVGID_17_" d="M261.7,63.6c0.5,1.2,0.7,2,0.7,2.5c0,1.2-1,2.3-3,3.1c-1,0.5-1.9,0.7-2.5,0.7c-0.6,0-1.2-0.2-1.6-0.5
				c-0.4-0.3-0.7-0.6-0.9-0.9c-0.3-0.6-1.6-3.5-3.8-8.8l-1.5,0.1h-6.1v5.5c0,0.7,0,1.3-0.1,1.7c0,0.4-0.2,0.8-0.5,1.3
				c-0.5,0.9-1.7,1.3-3.8,1.3c-2.3,0-3.6-0.6-4-1.8c-0.2-0.5-0.3-1.4-0.3-2.5V38.4c0-0.7,0-1.3,0.1-1.7c0-0.4,0.2-0.8,0.5-1.3
				c0.5-0.9,1.7-1.3,3.8-1.3h10.5c2.9,0,5.6,1,8.3,3.1c1.3,1,2.4,2.4,3.2,4.1c0.8,1.7,1.3,3.6,1.3,5.7c0,3.6-1.2,6.6-3.7,9
				C259,57.7,260.2,60.3,261.7,63.6z M242.9,51.3h6.2c0.9,0,1.9-0.4,2.8-1.1c0.9-0.7,1.4-1.8,1.4-3.2c0-1.4-0.5-2.5-1.4-3.2
				c-0.9-0.7-1.9-1.1-2.9-1.1h-6.1V51.3z"/>
		</defs>
		<clipPath id="SVGID_18_">
			<use xlink:href="#SVGID_17_"  style="overflow:visible;"/>
		</clipPath>
		<g class="st8">
			<defs>
				<rect id="SVGID_19_" x="-76.4" y="-3075.5" width="2328.9" height="3444.9"/>
			</defs>
			<clipPath id="SVGID_20_">
				<use xlink:href="#SVGID_19_"  style="overflow:visible;"/>
			</clipPath>
			<rect x="226.2" y="26" class="st9" width="44.3" height="51.9"/>
		</g>
	</g>
	<g>
		<defs>
			<rect id="SVGID_21_" x="266" y="34.1" width="28" height="35.5"/>
		</defs>
		<clipPath id="SVGID_22_">
			<use xlink:href="#SVGID_21_"  style="overflow:visible;"/>
		</clipPath>
		<g class="st10">
			<defs>
				<rect id="SVGID_23_" x="-76.4" y="-3075.5" width="2328.9" height="3444.9"/>
			</defs>
			<clipPath id="SVGID_24_">
				<use xlink:href="#SVGID_23_"  style="overflow:visible;"/>
			</clipPath>
			<g class="st11">
				<g>
					<defs>
						<rect id="SVGID_25_" x="264.8" y="33" width="30.7" height="37.2"/>
					</defs>
					<clipPath id="SVGID_26_">
						<use xlink:href="#SVGID_25_"  style="overflow:visible;"/>
					</clipPath>
					<g class="st12">
						<defs>
							<path id="SVGID_27_" d="M274.7,61h15c0.7,0,1.3,0,1.7,0.1c0.4,0,0.8,0.2,1.3,0.5c0.9,0.5,1.3,1.7,1.3,3.8
								c0,2.3-0.6,3.6-1.8,4c-0.6,0.2-1.4,0.3-2.5,0.3h-19.3c-2.3,0-3.6-0.6-4-1.8c-0.2-0.5-0.3-1.3-0.3-2.5V38.4
								c0-1.6,0.3-2.8,0.9-3.4c0.6-0.6,1.8-0.9,3.5-0.9h19.2c0.7,0,1.3,0,1.7,0.1c0.4,0,0.8,0.2,1.3,0.5c0.9,0.5,1.3,1.7,1.3,3.8
								c0,2.3-0.6,3.6-1.8,4c-0.6,0.2-1.4,0.3-2.5,0.3h-15v4.9h9.7c0.7,0,1.3,0,1.7,0.1c0.4,0.1,0.8,0.2,1.3,0.5
								c0.9,0.5,1.3,1.7,1.3,3.8c0,2.3-0.6,3.6-1.9,4c-0.6,0.2-1.4,0.3-2.5,0.3h-9.6V61z"/>
						</defs>
						<clipPath id="SVGID_28_">
							<use xlink:href="#SVGID_27_"  style="overflow:visible;"/>
						</clipPath>
						<g class="st13">
							<defs>
								<rect id="SVGID_29_" x="264.8" y="33" width="30.7" height="37.2"/>
							</defs>
							<clipPath id="SVGID_30_">
								<use xlink:href="#SVGID_29_"  style="overflow:visible;"/>
							</clipPath>
							<rect x="258" y="26" class="st14" width="44.1" height="51.7"/>
						</g>
					</g>
				</g>
			</g>
		</g>
	</g>
	<g>
		<defs>
			<path id="SVGID_31_" d="M106.2,10.9c0.1-0.2,0.3-0.4,0.6-0.5c0.3-0.1,0.6-0.1,1-0.1c0.4,0,0.8,0,1,0.1c0.2,0.1,0.4,0.2,0.6,0.3
				c0.1,0.1,0.2,0.2,0.3,0.4c0.1,0.2,0.1,0.6,0.1,1.1v12c0,0.3,0,0.6,0,0.7c0,0.2-0.1,0.4-0.2,0.6c-0.2,0.4-0.8,0.6-1.7,0.6
				c-1,0-1.6-0.3-1.8-0.8c-0.1-0.2-0.1-0.6-0.1-1.1v-4.4h-5.8v4.4c0,0.3,0,0.6,0,0.7c0,0.2-0.1,0.4-0.2,0.6
				c-0.2,0.4-0.8,0.6-1.7,0.6c-1,0-1.6-0.3-1.8-0.8c-0.1-0.2-0.1-0.6-0.1-1.1v-12c0-0.3,0-0.6,0-0.7c0-0.2,0.1-0.4,0.2-0.6
				c0.2-0.4,0.8-0.6,1.7-0.6c1,0,1.6,0.3,1.8,0.8c0.1,0.2,0.1,0.6,0.1,1.1v4.4h5.8v-4.4c0-0.3,0-0.6,0-0.7
				C106,11.3,106.1,11.1,106.2,10.9"/>
		</defs>
		<clipPath id="SVGID_32_">
			<use xlink:href="#SVGID_31_"  style="overflow:visible;"/>
		</clipPath>
		<g class="st15">
			<defs>
				<rect id="SVGID_33_" x="-76.4" y="-3075.5" width="2328.9" height="3444.9"/>
			</defs>
			<clipPath id="SVGID_34_">
				<use xlink:href="#SVGID_33_"  style="overflow:visible;"/>
			</clipPath>
			<rect x="88.2" y="2.2" class="st16" width="29.6" height="31.9"/>
		</g>
	</g>
	<g>
		<defs>
			<path id="SVGID_35_" d="M119.3,10.1c2.1,0,4,0.8,5.6,2.3c1.6,1.5,2.4,3.4,2.4,5.7c0,2.3-0.8,4.2-2.3,5.8
				c-1.5,1.6-3.4,2.4-5.6,2.4c-2.2,0-4.1-0.8-5.6-2.4c-1.5-1.6-2.3-3.5-2.3-5.6c0-1.2,0.2-2.3,0.7-3.4c0.4-1,1-1.9,1.7-2.6
				c0.7-0.7,1.6-1.3,2.5-1.7C117.3,10.3,118.3,10.1,119.3,10.1 M115.3,18.3c0,1.3,0.4,2.3,1.2,3.1c0.8,0.8,1.8,1.2,2.8,1.2
				c1,0,2-0.4,2.8-1.2c0.8-0.8,1.2-1.8,1.2-3.1c0-1.3-0.4-2.4-1.2-3.1c-0.8-0.8-1.8-1.2-2.8-1.2c-1,0-2,0.4-2.8,1.2
				C115.7,15.9,115.3,17,115.3,18.3"/>
		</defs>
		<clipPath id="SVGID_36_">
			<use xlink:href="#SVGID_35_"  style="overflow:visible;"/>
		</clipPath>
		<g class="st17">
			<defs>
				<rect id="SVGID_37_" x="-76.4" y="-3075.5" width="2328.9" height="3444.9"/>
			</defs>
			<clipPath id="SVGID_38_">
				<use xlink:href="#SVGID_37_"  style="overflow:visible;"/>
			</clipPath>
			<rect x="103.4" y="2" class="st18" width="31.9" height="32.4"/>
		</g>
	</g>
	<g>
		<defs>
			<path id="SVGID_39_" d="M145.8,10.9c0.1,0.2,0.2,0.4,0.2,0.6c0,0.2,0,0.4,0,0.8v12c0,1-0.3,1.6-0.8,1.7c-0.3,0.1-0.6,0.1-1,0.1
				c-0.4,0-0.8,0-1-0.1c-0.2-0.1-0.4-0.2-0.6-0.3c-0.1-0.1-0.2-0.2-0.3-0.4c-0.1-0.2-0.1-0.6-0.1-1.1V17c-0.4,0.4-0.9,1.2-1.6,2.1
				c-0.7,1-1.1,1.6-1.3,1.8c-0.2,0.2-0.3,0.4-0.4,0.5c-0.1,0.1-0.2,0.2-0.5,0.4c-0.3,0.2-0.6,0.2-0.9,0.2c-0.3,0-0.6-0.1-0.9-0.2
				c-0.3-0.1-0.5-0.3-0.6-0.4l-0.2-0.2c-0.3-0.4-0.9-1.1-1.7-2.3c-0.9-1.2-1.3-1.8-1.4-1.9v7.3c0,0.3,0,0.6,0,0.7
				c0,0.2-0.1,0.3-0.2,0.5c-0.2,0.4-0.8,0.6-1.7,0.6c-0.9,0-1.4-0.2-1.7-0.6c-0.1-0.2-0.2-0.4-0.2-0.6c0-0.2,0-0.4,0-0.8v-12
				c0-0.3,0-0.6,0-0.7c0-0.2,0.1-0.4,0.2-0.6c0.2-0.4,0.8-0.6,1.7-0.6c0.4,0,0.7,0,1,0.1c0.3,0.1,0.5,0.2,0.6,0.3l0.1,0.1l4.9,6.4
				c2.5-3.2,4.1-5.4,4.9-6.4c0.2-0.4,0.8-0.6,1.7-0.6C145,10.3,145.6,10.5,145.8,10.9"/>
		</defs>
		<clipPath id="SVGID_40_">
			<use xlink:href="#SVGID_39_"  style="overflow:visible;"/>
		</clipPath>
		<g class="st19">
			<defs>
				<rect id="SVGID_41_" x="-76.4" y="-3075.5" width="2328.9" height="3444.9"/>
			</defs>
			<clipPath id="SVGID_42_">
				<use xlink:href="#SVGID_41_"  style="overflow:visible;"/>
			</clipPath>
			<rect x="120.8" y="2.3" class="st20" width="33.3" height="31.9"/>
		</g>
	</g>
	<g>
		<defs>
			<path id="SVGID_43_" d="M152.2,22.3h6.7c0.3,0,0.6,0,0.7,0c0.2,0,0.4,0.1,0.6,0.2c0.4,0.2,0.6,0.8,0.6,1.7c0,1-0.3,1.6-0.8,1.8
				c-0.2,0.1-0.6,0.1-1.1,0.1h-8.6c-1,0-1.6-0.3-1.8-0.8c-0.1-0.2-0.1-0.6-0.1-1.1v-12c0-0.7,0.1-1.2,0.4-1.5
				c0.3-0.3,0.8-0.4,1.6-0.4h8.6c0.3,0,0.6,0,0.7,0c0.2,0,0.4,0.1,0.6,0.2c0.4,0.2,0.6,0.8,0.6,1.7c0,1-0.3,1.6-0.8,1.8
				c-0.2,0.1-0.6,0.1-1.1,0.1h-6.7v2.2h4.3c0.3,0,0.6,0,0.7,0c0.2,0,0.4,0.1,0.6,0.2c0.4,0.2,0.6,0.8,0.6,1.7c0,1-0.3,1.6-0.8,1.8
				c-0.2,0.1-0.6,0.1-1.1,0.1h-4.3V22.3z"/>
		</defs>
		<clipPath id="SVGID_44_">
			<use xlink:href="#SVGID_43_"  style="overflow:visible;"/>
		</clipPath>
		<g class="st21">
			<defs>
				<rect id="SVGID_45_" x="-76.4" y="-3075.5" width="2328.9" height="3444.9"/>
			</defs>
			<clipPath id="SVGID_46_">
				<use xlink:href="#SVGID_45_"  style="overflow:visible;"/>
			</clipPath>
			<rect x="140.3" y="2.2" class="st22" width="28.6" height="32"/>
		</g>
	</g>
	<g>
		<defs>
			<path id="SVGID_47_" d="M162.4,23.9c-0.4-0.5-0.6-0.9-0.6-1.2c0-0.4,0.3-0.9,0.9-1.5c0.4-0.3,0.7-0.5,1.2-0.5
				c0.4,0,1,0.4,1.7,1.1c0.2,0.2,0.5,0.5,0.9,0.7c0.4,0.2,0.7,0.3,1,0.3c1.3,0,2-0.5,2-1.6c0-0.3-0.2-0.6-0.6-0.8
				c-0.4-0.2-0.8-0.4-1.4-0.5c-0.6-0.1-1.1-0.3-1.8-0.5c-0.6-0.2-1.2-0.5-1.8-0.8s-1-0.8-1.4-1.4c-0.4-0.7-0.6-1.4-0.6-2.4
				c0-1.3,0.5-2.4,1.4-3.3c0.9-0.9,2.2-1.4,3.9-1.4c0.9,0,1.7,0.1,2.4,0.3c0.7,0.2,1.2,0.4,1.5,0.7l0.5,0.4c0.4,0.4,0.7,0.8,0.7,1.1
				c0,0.3-0.2,0.7-0.5,1.2c-0.5,0.7-1,1.1-1.5,1.1c-0.3,0-0.7-0.1-1.1-0.4c0,0-0.1-0.1-0.2-0.2c-0.1-0.1-0.2-0.2-0.3-0.3
				c-0.3-0.2-0.7-0.3-1.2-0.3c-0.5,0-0.9,0.1-1.2,0.3c-0.3,0.2-0.5,0.5-0.5,0.9c0,0.4,0.2,0.7,0.6,1c0.4,0.2,0.8,0.4,1.4,0.5
				c0.5,0.1,1.2,0.2,1.8,0.4c0.7,0.2,1.3,0.4,1.8,0.7c0.5,0.3,1,0.7,1.4,1.3c0.4,0.6,0.6,1.4,0.6,2.4c0,0.9-0.2,1.8-0.6,2.5
				c-0.4,0.7-0.9,1.3-1.5,1.6c-1.2,0.8-2.4,1.1-3.8,1.1c-0.7,0-1.3-0.1-1.9-0.2c-0.6-0.2-1.1-0.4-1.5-0.6c-0.8-0.5-1.3-0.9-1.6-1.3
				L162.4,23.9z"/>
		</defs>
		<clipPath id="SVGID_48_">
			<use xlink:href="#SVGID_47_"  style="overflow:visible;"/>
		</clipPath>
		<g class="st23">
			<defs>
				<rect id="SVGID_49_" x="-76.4" y="-3075.5" width="2328.9" height="3444.9"/>
			</defs>
			<clipPath id="SVGID_50_">
				<use xlink:href="#SVGID_49_"  style="overflow:visible;"/>
			</clipPath>
			<rect x="153.8" y="2" class="st24" width="27.7" height="32.4"/>
		</g>
	</g>
	<g>
		<defs>
			<path id="SVGID_51_" d="M189.1,10.3c0.3,0,0.6,0,0.7,0c0.2,0,0.4,0.1,0.6,0.2c0.2,0.1,0.4,0.3,0.4,0.6c0.1,0.3,0.1,0.6,0.1,1.1
				c0,0.5,0,0.8-0.1,1.1c-0.1,0.3-0.2,0.5-0.5,0.6c-0.2,0.1-0.4,0.2-0.6,0.2c-0.2,0-0.4,0-0.8,0h-6.6v2.2h4.3c0.3,0,0.6,0,0.8,0
				c0.2,0,0.4,0.1,0.6,0.2c0.4,0.2,0.6,0.8,0.6,1.7c0,1-0.3,1.6-0.8,1.8c-0.2,0.1-0.6,0.1-1.1,0.1h-4.3v4.1c0,0.3,0,0.6,0,0.8
				c0,0.2-0.1,0.3-0.2,0.6c-0.2,0.4-0.8,0.6-1.7,0.6c-1,0-1.6-0.3-1.8-0.8c-0.1-0.2-0.1-0.6-0.1-1.1v-12c0-0.7,0.1-1.2,0.4-1.5
				c0.3-0.3,0.8-0.4,1.6-0.4H189.1z"/>
		</defs>
		<clipPath id="SVGID_52_">
			<use xlink:href="#SVGID_51_"  style="overflow:visible;"/>
		</clipPath>
		<g class="st25">
			<defs>
				<rect id="SVGID_53_" x="-76.4" y="-3075.5" width="2328.9" height="3444.9"/>
			</defs>
			<clipPath id="SVGID_54_">
				<use xlink:href="#SVGID_53_"  style="overflow:visible;"/>
			</clipPath>
			<rect x="170.5" y="2.2" class="st26" width="28.6" height="32"/>
		</g>
	</g>
	<g>
		<defs>
			<path id="SVGID_55_" d="M204.4,23.5c0.2,0.5,0.3,0.9,0.3,1.1c0,0.5-0.4,1-1.3,1.4c-0.5,0.2-0.8,0.3-1.1,0.3
				c-0.3,0-0.5-0.1-0.7-0.2c-0.2-0.1-0.3-0.3-0.4-0.4c-0.1-0.3-0.7-1.6-1.7-3.9l-0.7,0h-2.7v2.4c0,0.3,0,0.6,0,0.7
				c0,0.2-0.1,0.4-0.2,0.6c-0.2,0.4-0.8,0.6-1.7,0.6c-1,0-1.6-0.3-1.8-0.8c-0.1-0.2-0.1-0.6-0.1-1.1v-12c0-0.3,0-0.6,0-0.7
				c0-0.2,0.1-0.4,0.2-0.6c0.2-0.4,0.8-0.6,1.7-0.6h4.7c1.3,0,2.5,0.5,3.7,1.4c0.6,0.4,1.1,1,1.4,1.8c0.4,0.8,0.6,1.6,0.6,2.5
				c0,1.6-0.5,3-1.6,4C203.3,20.8,203.8,22,204.4,23.5z M196.1,18h2.8c0.4,0,0.8-0.2,1.3-0.5c0.4-0.3,0.6-0.8,0.6-1.4
				c0-0.6-0.2-1.1-0.6-1.4c-0.4-0.3-0.9-0.5-1.3-0.5h-2.7V18z"/>
		</defs>
		<clipPath id="SVGID_56_">
			<use xlink:href="#SVGID_55_"  style="overflow:visible;"/>
		</clipPath>
		<g class="st27">
			<defs>
				<rect id="SVGID_57_" x="-76.4" y="-3075.5" width="2328.9" height="3444.9"/>
			</defs>
			<clipPath id="SVGID_58_">
				<use xlink:href="#SVGID_57_"  style="overflow:visible;"/>
			</clipPath>
			<rect x="184.2" y="2.2" class="st28" width="28.7" height="32.1"/>
		</g>
	</g>
	<g>
		<defs>
			<path id="SVGID_59_" d="M213.6,10.1c2.1,0,4,0.8,5.6,2.3c1.6,1.5,2.4,3.4,2.4,5.7c0,2.3-0.8,4.2-2.3,5.8
				c-1.5,1.6-3.4,2.4-5.6,2.4c-2.2,0-4.1-0.8-5.6-2.4c-1.5-1.6-2.3-3.5-2.3-5.6c0-1.2,0.2-2.3,0.7-3.4c0.4-1,1-1.9,1.7-2.6
				c0.7-0.7,1.6-1.3,2.5-1.7C211.6,10.3,212.6,10.1,213.6,10.1 M209.6,18.3c0,1.3,0.4,2.3,1.2,3.1c0.8,0.8,1.8,1.2,2.8,1.2
				c1,0,2-0.4,2.8-1.2c0.8-0.8,1.2-1.8,1.2-3.1c0-1.3-0.4-2.4-1.2-3.1c-0.8-0.8-1.8-1.2-2.8-1.2s-2,0.4-2.8,1.2
				C210,15.9,209.6,17,209.6,18.3"/>
		</defs>
		<clipPath id="SVGID_60_">
			<use xlink:href="#SVGID_59_"  style="overflow:visible;"/>
		</clipPath>
		<g class="st29">
			<defs>
				<rect id="SVGID_61_" x="-76.4" y="-3075.5" width="2328.9" height="3444.9"/>
			</defs>
			<clipPath id="SVGID_62_">
				<use xlink:href="#SVGID_61_"  style="overflow:visible;"/>
			</clipPath>
			<rect x="197.7" y="2" class="st30" width="31.9" height="32.4"/>
		</g>
	</g>
	<g>
		<defs>
			<path id="SVGID_63_" d="M240.1,10.9c0.1,0.2,0.2,0.4,0.2,0.6c0,0.2,0,0.4,0,0.8v12c0,1-0.3,1.6-0.8,1.7c-0.3,0.1-0.6,0.1-1,0.1
				c-0.4,0-0.8,0-1-0.1c-0.2-0.1-0.4-0.2-0.6-0.3c-0.1-0.1-0.2-0.2-0.3-0.4c-0.1-0.2-0.1-0.6-0.1-1.1V17c-0.4,0.4-0.9,1.2-1.6,2.1
				c-0.7,1-1.1,1.6-1.3,1.8c-0.2,0.2-0.3,0.4-0.4,0.5c-0.1,0.1-0.2,0.2-0.5,0.4c-0.3,0.2-0.6,0.2-0.9,0.2c-0.3,0-0.6-0.1-0.9-0.2
				c-0.3-0.1-0.5-0.3-0.6-0.4l-0.2-0.2c-0.3-0.4-0.9-1.1-1.7-2.3c-0.9-1.2-1.3-1.8-1.4-1.9v7.3c0,0.3,0,0.6,0,0.7
				c0,0.2-0.1,0.3-0.2,0.5c-0.2,0.4-0.8,0.6-1.7,0.6c-0.9,0-1.4-0.2-1.7-0.6c-0.1-0.2-0.2-0.4-0.2-0.6c0-0.2,0-0.4,0-0.8v-12
				c0-0.3,0-0.6,0-0.7c0-0.2,0.1-0.4,0.2-0.6c0.2-0.4,0.8-0.6,1.7-0.6c0.4,0,0.7,0,1,0.1c0.3,0.1,0.5,0.2,0.6,0.3l0.1,0.1l4.9,6.4
				c2.5-3.2,4.1-5.4,4.9-6.4c0.2-0.4,0.8-0.6,1.7-0.6C239.4,10.3,239.9,10.5,240.1,10.9"/>
		</defs>
		<clipPath id="SVGID_64_">
			<use xlink:href="#SVGID_63_"  style="overflow:visible;"/>
		</clipPath>
		<g class="st31">
			<defs>
				<rect id="SVGID_65_" x="-76.4" y="-3075.5" width="2328.9" height="3444.9"/>
			</defs>
			<clipPath id="SVGID_66_">
				<use xlink:href="#SVGID_65_"  style="overflow:visible;"/>
			</clipPath>
			<rect x="215.1" y="2.3" class="st32" width="33.3" height="31.9"/>
		</g>
	</g>
	<g>
		<defs>
			<path id="SVGID_67_" d="M248.6,10.3h12.1c0.5,0,0.8,0.1,1,0.2c0.2,0.1,0.4,0.3,0.4,0.5c0.1,0.2,0.1,0.5,0.1,0.9
				c0,0.4,0,0.7-0.1,0.9c-0.1,0.2-0.2,0.4-0.4,0.5c-0.3,0.1-0.6,0.2-1.1,0.2h-4.1v10.8c0,0.3,0,0.6,0,0.7c0,0.2-0.1,0.3-0.2,0.5
				c-0.1,0.2-0.3,0.4-0.6,0.4c-0.3,0.1-0.6,0.1-1.1,0.1c-0.4,0-0.8,0-1.1-0.1c-0.3-0.1-0.5-0.2-0.6-0.4c-0.1-0.2-0.2-0.4-0.2-0.6
				c0-0.2,0-0.4,0-0.7V13.4h-4.2c-0.5,0-0.8-0.1-1-0.2c-0.2-0.1-0.4-0.3-0.4-0.5c-0.1-0.2-0.1-0.5-0.1-0.9c0-0.4,0-0.7,0.1-0.9
				c0.1-0.2,0.2-0.4,0.4-0.5C247.8,10.4,248.2,10.3,248.6,10.3"/>
		</defs>
		<clipPath id="SVGID_68_">
			<use xlink:href="#SVGID_67_"  style="overflow:visible;"/>
		</clipPath>
		<g class="st33">
			<defs>
				<rect id="SVGID_69_" x="-76.4" y="-3075.5" width="2328.9" height="3444.9"/>
			</defs>
			<clipPath id="SVGID_70_">
				<use xlink:href="#SVGID_69_"  style="overflow:visible;"/>
			</clipPath>
			<rect x="239" y="2.2" class="st34" width="31.4" height="32"/>
		</g>
	</g>
	<g>
		<defs>
			<path id="SVGID_71_" d="M273.2,10.9c0.1-0.2,0.3-0.4,0.6-0.5c0.3-0.1,0.6-0.1,1-0.1c0.4,0,0.8,0,1,0.1c0.2,0.1,0.4,0.2,0.6,0.3
				c0.1,0.1,0.2,0.2,0.3,0.4c0.1,0.2,0.1,0.6,0.1,1.1v12c0,0.3,0,0.6,0,0.7c0,0.2-0.1,0.4-0.2,0.6c-0.2,0.4-0.8,0.6-1.7,0.6
				c-1,0-1.6-0.3-1.8-0.8c-0.1-0.2-0.1-0.6-0.1-1.1v-4.4h-5.8v4.4c0,0.3,0,0.6,0,0.7c0,0.2-0.1,0.4-0.2,0.6
				c-0.2,0.4-0.8,0.6-1.7,0.6c-1,0-1.6-0.3-1.8-0.8c-0.1-0.2-0.1-0.6-0.1-1.1v-12c0-0.3,0-0.6,0-0.7c0-0.2,0.1-0.4,0.2-0.6
				c0.2-0.4,0.8-0.6,1.7-0.6c1,0,1.6,0.3,1.8,0.8c0.1,0.2,0.1,0.6,0.1,1.1v4.4h5.8v-4.4c0-0.3,0-0.6,0-0.7
				C273,11.3,273.1,11.1,273.2,10.9"/>
		</defs>
		<clipPath id="SVGID_72_">
			<use xlink:href="#SVGID_71_"  style="overflow:visible;"/>
		</clipPath>
		<g class="st35">
			<defs>
				<rect id="SVGID_73_" x="-76.4" y="-3075.5" width="2328.9" height="3444.9"/>
			</defs>
			<clipPath id="SVGID_74_">
				<use xlink:href="#SVGID_73_"  style="overflow:visible;"/>
			</clipPath>
			<rect x="255.3" y="2.2" class="st36" width="29.6" height="31.9"/>
		</g>
	</g>
	<g>
		<defs>
			<path id="SVGID_75_" d="M283,22.3h6.7c0.3,0,0.6,0,0.7,0c0.2,0,0.4,0.1,0.6,0.2c0.4,0.2,0.6,0.8,0.6,1.7c0,1-0.3,1.6-0.8,1.8
				c-0.2,0.1-0.6,0.1-1.1,0.1H281c-1,0-1.6-0.3-1.8-0.8c-0.1-0.2-0.1-0.6-0.1-1.1v-12c0-0.7,0.1-1.2,0.4-1.5
				c0.3-0.3,0.8-0.4,1.6-0.4h8.6c0.3,0,0.6,0,0.7,0c0.2,0,0.4,0.1,0.6,0.2c0.4,0.2,0.6,0.8,0.6,1.7c0,1-0.3,1.6-0.8,1.8
				c-0.2,0.1-0.6,0.1-1.1,0.1H283v2.2h4.3c0.3,0,0.6,0,0.7,0c0.2,0,0.4,0.1,0.6,0.2c0.4,0.2,0.6,0.8,0.6,1.7c0,1-0.3,1.6-0.8,1.8
				c-0.2,0.1-0.6,0.1-1.1,0.1H283V22.3z"/>
		</defs>
		<clipPath id="SVGID_76_">
			<use xlink:href="#SVGID_75_"  style="overflow:visible;"/>
		</clipPath>
		<g class="st37">
			<defs>
				<rect id="SVGID_77_" x="-76.4" y="-3075.5" width="2328.9" height="3444.9"/>
			</defs>
			<clipPath id="SVGID_78_">
				<use xlink:href="#SVGID_77_"  style="overflow:visible;"/>
			</clipPath>
			<rect x="271" y="2.2" class="st38" width="28.6" height="32"/>
		</g>
	</g>
	<g>
		<defs>
			<path id="SVGID_79_" d="M45.3,58.4c-2.5,0-4-1.6-5.2-2.8c-0.6-0.6-1.2-1.3-1.8-1.5c-2.2-1-5.2-0.6-7.4-0.2
				c-1.8,0.3-3.8-0.3-5.4-1.6c-1.4-1.2-2.2-2.8-2.1-4.3c0-0.9,0.2-1.8,0.4-2.6c0.4-1.8,0.7-3.4-0.2-5.3c-1.5-3-2.5-5.7-0.7-8.5
				c1.3-2,3-2.3,4.2-2.4c0.3,0,0.6-0.1,0.8-0.1c0.4-0.3,1.4-1.3,2-2.7c0.6-1.4,1.9-4.5,5.3-4.2c2.4,0.2,4.1,0.9,6,2.5
				c1.2,1,2.7,1.8,5.4,1.2c0.8-0.2,1.4-0.4,2-0.6c1.5-0.6,2.8-1.1,5.3,0.1c3.1,1.4,2.6,4.4,2.4,6c-0.1,0.3-0.1,0.6-0.1,0.9
				c0,1,1.2,3.8,2.4,5.3c1.7,2,2.7,5.9,0.2,8c-0.7,0.6-1.6,1-2.5,1.5c-1.5,0.8-3,1.5-3.5,3c-0.2,0.6-0.4,1.3-0.5,2
				c-0.5,2.4-1.1,5.2-5.2,6.3C46.5,58.4,45.8,58.4,45.3,58.4z M34.9,51c1.5,0,3.1,0.2,4.5,0.9c1,0.5,1.8,1.3,2.6,2.1
				c1.5,1.6,2.4,2.4,4.6,1.8c2.7-0.7,3-2.2,3.4-4.4c0.1-0.7,0.3-1.5,0.6-2.3c0.8-2.5,3-3.6,4.7-4.5c0.8-0.4,1.5-0.7,2-1.1
				c1.2-1,0.5-3.4-0.5-4.6c-1.4-1.6-3-5-3-6.8c0-0.4,0.1-0.8,0.1-1.3c0.3-1.9,0.2-2.8-1-3.4c-1.5-0.7-2-0.5-3.3,0
				c-0.6,0.2-1.4,0.5-2.4,0.7c-3,0.7-5.3,0.1-7.6-1.7c-1.5-1.2-2.7-1.7-4.6-1.9c-1-0.1-1.8,0.3-2.8,2.7c-1,2.3-2.9,3.8-2.9,3.8
				l-0.4,0.2c-0.5,0.2-1,0.2-1.4,0.3c-1,0.1-1.7,0.2-2.4,1.4c-1,1.5-0.8,2.8,0.8,6.1c1.3,2.6,0.8,4.8,0.5,6.8
				c-0.1,0.8-0.3,1.5-0.3,2.3c0,0.8,0.4,1.7,1.2,2.4c1,0.8,2.3,1.3,3.3,1.1C31.7,51.3,33.3,51,34.9,51z M28.4,30.2L28.4,30.2
				L28.4,30.2z M28.4,30.2L28.4,30.2L28.4,30.2z"/>
		</defs>
		<clipPath id="SVGID_80_">
			<use xlink:href="#SVGID_79_"  style="overflow:visible;"/>
		</clipPath>
		<g class="st39">
			<defs>
				<rect id="SVGID_81_" x="-76.4" y="-3075.5" width="2328.9" height="3444.9"/>
			</defs>
			<clipPath id="SVGID_82_">
				<use xlink:href="#SVGID_81_"  style="overflow:visible;"/>
			</clipPath>
			<rect x="13.8" y="14.1" class="st40" width="54.5" height="52.5"/>
		</g>
	</g>
	<g>
		<defs>
			<path id="SVGID_83_" d="M68.8,47.7L68.8,47.7c-0.7,0-1.3-0.6-1.2-1.3c0,0,0.1-1.9,0-4.2c0-0.6-0.1-0.9-0.3-1.1
				c-0.3-0.2-1.1-0.3-2.4-0.2c-2.7,0.2-5.6,1-5.6,1c-0.7,0.2-1.3-0.2-1.5-0.9c-0.2-0.7,0.2-1.3,0.9-1.5c0.1,0,3.2-0.8,6.1-1.1
				c1.9-0.2,3.3-0.1,4.3,0.8c0.7,0.6,1.1,1.6,1.1,2.8c0.1,2.3,0,4.2,0,4.3C70,47.2,69.4,47.7,68.8,47.7"/>
		</defs>
		<clipPath id="SVGID_84_">
			<use xlink:href="#SVGID_83_"  style="overflow:visible;"/>
		</clipPath>
		<g class="st41">
			<defs>
				<rect id="SVGID_85_" x="-76.4" y="-3075.5" width="2328.9" height="3444.9"/>
			</defs>
			<clipPath id="SVGID_86_">
				<use xlink:href="#SVGID_85_"  style="overflow:visible;"/>
			</clipPath>
			<rect x="49.6" y="30.4" class="st42" width="28.6" height="25.4"/>
		</g>
	</g>
	<g>
		<defs>
			<path id="SVGID_87_" d="M14.4,24.7c-1,0-1.1,0-1.2,0c-0.7-0.1-1.1-0.8-1-1.4c0.1-0.7,0.8-1.1,1.4-1c0,0,0.1,0,0.5,0
				c0.4,0,1.1,0,2.1,0c0.3,0,0.4-0.1,0.5-0.1c0.4-0.5,0.4-2,0.3-3.1c0-0.5,0-0.9,0-1.3c0.1-2.7,4.4-2.9,8.2-3c0.9,0,1.6-0.1,2.2-0.1
				c2.8-0.3,6.2,0.2,7.2,2.2c0.7,1.5,0.5,5.5,0.4,6.7c0,0.7-0.7,1.2-1.3,1.1c-0.7,0-1.2-0.6-1.1-1.3c0.2-2.2,0.1-4.9-0.2-5.5
				c-0.2-0.4-2-1.1-4.7-0.8c-0.6,0.1-1.5,0.1-2.4,0.1c-1.5,0-5.1,0.2-5.8,0.7c0,0.3,0,0.7,0,1c0.1,1.7,0.2,3.6-1,4.8
				c-0.4,0.4-1.1,0.9-2.2,0.9C15.5,24.7,14.8,24.7,14.4,24.7"/>
		</defs>
		<clipPath id="SVGID_88_">
			<use xlink:href="#SVGID_87_"  style="overflow:visible;"/>
		</clipPath>
		<g class="st43">
			<defs>
				<rect id="SVGID_89_" x="-76.4" y="-3075.5" width="2328.9" height="3444.9"/>
			</defs>
			<clipPath id="SVGID_90_">
				<use xlink:href="#SVGID_89_"  style="overflow:visible;"/>
			</clipPath>
			<rect x="4.1" y="6.5" class="st44" width="39.2" height="26.3"/>
		</g>
	</g>
	<g>
		<defs>
			<path id="SVGID_91_" d="M55.4,35.4c-0.3,0-0.5-0.1-0.7-0.3c-0.5-0.4-0.6-1.2-0.2-1.7c0.3-0.4,3-3.7,6.1-4.1
				c1.3-0.2,2.9-0.2,4.5-0.2c1.5,0,3.5-0.1,4-0.3c1.1-0.4,1.8-0.6,1.7-2.6c-0.1-2.7-0.2-6.4-0.2-6.4l2.5-0.1c0,0,0.1,3.7,0.2,6.4
				c0.1,3.3-1.6,4.3-3.4,5c-0.9,0.3-2.4,0.4-4.8,0.4c-1.5,0-3.1,0.1-4.2,0.2C59,32,57,34.1,56.4,34.9C56.2,35.3,55.8,35.4,55.4,35.4
				"/>
		</defs>
		<clipPath id="SVGID_92_">
			<use xlink:href="#SVGID_91_"  style="overflow:visible;"/>
		</clipPath>
		<g class="st45">
			<defs>
				<rect id="SVGID_93_" x="-76.4" y="-3075.5" width="2328.9" height="3444.9"/>
			</defs>
			<clipPath id="SVGID_94_">
				<use xlink:href="#SVGID_93_"  style="overflow:visible;"/>
			</clipPath>
			<rect x="46.1" y="11.7" class="st46" width="35.2" height="31.9"/>
		</g>
	</g>
	<g>
		<defs>
			<path id="SVGID_95_" d="M36,58.3c-0.5,0-1.2-0.1-1.9-0.4c-0.6-0.3-0.9-1-0.7-1.6c0.3-0.6,1-0.9,1.6-0.7c0.4,0.2,0.7,0.2,0.8,0.2
				v0c0-0.3-0.4-1.9-0.7-3.2c-0.2-0.7,0.2-1.3,0.9-1.5c0.7-0.2,1.3,0.2,1.5,0.9c0.2,0.9,0.8,3.1,0.8,3.6c0.1,0.9-0.3,1.8-0.9,2.2
				C37,58.2,36.5,58.3,36,58.3"/>
		</defs>
		<clipPath id="SVGID_96_">
			<use xlink:href="#SVGID_95_"  style="overflow:visible;"/>
		</clipPath>
		<g class="st47">
			<defs>
				<rect id="SVGID_97_" x="-76.4" y="-3075.5" width="2328.9" height="3444.9"/>
			</defs>
			<clipPath id="SVGID_98_">
				<use xlink:href="#SVGID_97_"  style="overflow:visible;"/>
			</clipPath>
			<rect x="25.2" y="43" class="st48" width="21.1" height="23.4"/>
		</g>
	</g>
	<g>
		<defs>
			<path id="SVGID_99_" d="M32,63.1c-2.4,0-4.3-1.9-4.3-4.3c0-2.4,1.9-4.3,4.3-4.3c2.4,0,4.3,1.9,4.3,4.3
				C36.3,61.2,34.4,63.1,32,63.1 M32,56.9c-1,0-1.9,0.8-1.9,1.9s0.8,1.9,1.9,1.9c1,0,1.9-0.8,1.9-1.9S33,56.9,32,56.9"/>
		</defs>
		<clipPath id="SVGID_100_">
			<use xlink:href="#SVGID_99_"  style="overflow:visible;"/>
		</clipPath>
		<g class="st49">
			<defs>
				<rect id="SVGID_101_" x="-76.4" y="-3075.5" width="2328.9" height="3444.9"/>
			</defs>
			<clipPath id="SVGID_102_">
				<use xlink:href="#SVGID_101_"  style="overflow:visible;"/>
			</clipPath>
			<rect x="19.6" y="46.4" class="st50" width="24.9" height="24.8"/>
		</g>
	</g>
	<g>
		<defs>
			<path id="SVGID_103_" d="M30.8,67.9c-4.2,0-7.7-3.4-7.7-7.6c0-0.7,0.5-1.2,1.2-1.2c0.7,0,1.2,0.5,1.2,1.2c0,2.9,2.4,5.2,5.2,5.2
				c0.9,0,1.8-0.2,2.5-0.6c0.6-0.3,1.3-0.1,1.7,0.5c0.3,0.6,0.1,1.3-0.5,1.7C33.4,67.6,32.1,67.9,30.8,67.9"/>
		</defs>
		<clipPath id="SVGID_104_">
			<use xlink:href="#SVGID_103_"  style="overflow:visible;"/>
		</clipPath>
		<g class="st51">
			<defs>
				<rect id="SVGID_105_" x="-76.4" y="-3075.5" width="2328.9" height="3444.9"/>
			</defs>
			<clipPath id="SVGID_106_">
				<use xlink:href="#SVGID_105_"  style="overflow:visible;"/>
			</clipPath>
			<rect x="15.1" y="50.9" class="st52" width="28.2" height="25"/>
		</g>
	</g>
	<g>
		<defs>
			<path id="SVGID_107_" d="M29.3,72.8c-5.4,0-9.7-4.3-9.7-9.7c0-0.7,0.5-1.2,1.2-1.2c0.7,0,1.2,0.5,1.2,1.2c0,4,3.3,7.2,7.3,7.2
				c1.2,0,2.4-0.3,3.5-0.9c0.6-0.3,1.3-0.1,1.7,0.5c0.3,0.6,0.1,1.3-0.5,1.7C32.5,72.4,30.9,72.8,29.3,72.8"/>
		</defs>
		<clipPath id="SVGID_108_">
			<use xlink:href="#SVGID_107_"  style="overflow:visible;"/>
		</clipPath>
		<g class="st53">
			<defs>
				<rect id="SVGID_109_" x="-76.4" y="-3075.5" width="2328.9" height="3444.9"/>
			</defs>
			<clipPath id="SVGID_110_">
				<use xlink:href="#SVGID_109_"  style="overflow:visible;"/>
			</clipPath>
			<rect x="11.4" y="53.8" class="st54" width="31.3" height="27.1"/>
		</g>
	</g>
	<g>
		<defs>
			<path id="SVGID_111_" d="M11.7,32.9H8.8c-1.5,0-2.7-1.2-2.7-2.7V16.6c0-2.3,1.9-4.2,4.2-4.2c2.3,0,4.2,1.9,4.2,4.2v13.5
				C14.5,31.6,13.2,32.9,11.7,32.9 M10.2,14.9c-1,0-1.7,0.8-1.7,1.7v13.5c0,0.2,0.1,0.3,0.3,0.3h2.9c0.2,0,0.3-0.1,0.3-0.3V16.6
				C12,15.7,11.2,14.9,10.2,14.9"/>
		</defs>
		<clipPath id="SVGID_112_">
			<use xlink:href="#SVGID_111_"  style="overflow:visible;"/>
		</clipPath>
		<g class="st55">
			<defs>
				<rect id="SVGID_113_" x="-76.4" y="-3075.5" width="2328.9" height="3444.9"/>
			</defs>
			<clipPath id="SVGID_114_">
				<use xlink:href="#SVGID_113_"  style="overflow:visible;"/>
			</clipPath>
			<rect x="-2" y="4.4" class="st56" width="24.6" height="36.6"/>
		</g>
	</g>
	<g>
		<defs>
			<path id="SVGID_115_" d="M11.7,43H8.8C7.3,43,6,41.7,6,40.2v-2.6c0-1.5,1.2-2.7,2.7-2.7h2.9c1.5,0,2.7,1.2,2.7,2.7v2.6
				C14.5,41.7,13.2,43,11.7,43z M8.8,37.3c-0.2,0-0.3,0.1-0.3,0.3v2.6c0,0.2,0.1,0.3,0.3,0.3h2.9c0.2,0,0.3-0.1,0.3-0.3v-2.6
				c0-0.1-0.1-0.3-0.3-0.3H8.8z"/>
		</defs>
		<clipPath id="SVGID_116_">
			<use xlink:href="#SVGID_115_"  style="overflow:visible;"/>
		</clipPath>
		<g class="st57">
			<defs>
				<rect id="SVGID_117_" x="-76.4" y="-3075.5" width="2328.9" height="3444.9"/>
			</defs>
			<clipPath id="SVGID_118_">
				<use xlink:href="#SVGID_117_"  style="overflow:visible;"/>
			</clipPath>
			<rect x="-2" y="26.8" class="st58" width="24.6" height="24.3"/>
		</g>
	</g>
	<g>
		<defs>
			<path id="SVGID_119_" d="M11.7,51.2H8.8C7.3,51.2,6,50,6,48.5v-0.8C6,46.2,7.3,45,8.8,45h2.9c1.5,0,2.7,1.2,2.7,2.7v0.8
				C14.5,50,13.2,51.2,11.7,51.2z M8.8,47.4c-0.2,0-0.3,0.1-0.3,0.3v0.8c0,0.2,0.1,0.3,0.3,0.3h2.9c0.2,0,0.3-0.1,0.3-0.3v-0.8
				c0-0.1-0.1-0.3-0.3-0.3H8.8z"/>
		</defs>
		<clipPath id="SVGID_120_">
			<use xlink:href="#SVGID_119_"  style="overflow:visible;"/>
		</clipPath>
		<g class="st59">
			<defs>
				<rect id="SVGID_121_" x="-76.4" y="-3075.5" width="2328.9" height="3444.9"/>
			</defs>
			<clipPath id="SVGID_122_">
				<use xlink:href="#SVGID_121_"  style="overflow:visible;"/>
			</clipPath>
			<rect x="-2" y="36.9" class="st60" width="24.6" height="22.5"/>
		</g>
	</g>
	<g>
		<defs>
			<path id="SVGID_123_" d="M77,21H67c-3.4,0-6.2-2.7-6.2-6.1c0-3.4,2.8-6.1,6.2-6.1h10c3.4,0,6.2,2.7,6.2,6.1
				C83.2,18.3,80.4,21,77,21z M67,11.2c-2,0-3.7,1.6-3.7,3.7c0,2,1.7,3.7,3.7,3.7h10c2,0,3.7-1.6,3.7-3.7c0-2-1.7-3.7-3.7-3.7H67z"
				/>
		</defs>
		<clipPath id="SVGID_124_">
			<use xlink:href="#SVGID_123_"  style="overflow:visible;"/>
		</clipPath>
		<g class="st61">
			<defs>
				<rect id="SVGID_125_" x="-76.4" y="-3075.5" width="2328.9" height="3444.9"/>
			</defs>
			<clipPath id="SVGID_126_">
				<use xlink:href="#SVGID_125_"  style="overflow:visible;"/>
			</clipPath>
			<rect x="52.8" y="0.7" class="st62" width="38.5" height="28.4"/>
		</g>
	</g>
	<g>
		<defs>
			<path id="SVGID_127_" d="M66.7,55.9c-0.2,0-0.3,0-0.5-0.1c-0.6-0.2-0.9-0.9-0.7-1.5c0.1-0.2,1.5-5-2-6.8c-0.6-0.3-0.8-1-0.6-1.6
				c0.3-0.6,0.9-0.9,1.5-0.7c0.2,0.1,4.5,1.4,6.2-1.8c0.3-0.5,0.9-0.8,1.5-0.6c0.6,0.2,0.9,0.8,0.8,1.4c0,0.1-0.9,5.5,2,6.9
				c0.6,0.3,0.8,1,0.6,1.6c-0.3,0.6-0.9,0.9-1.6,0.7c-0.2-0.1-4.4-1.5-6.2,1.9C67.6,55.7,67.2,55.9,66.7,55.9 M67.4,48.1
				c0.6,1,0.8,2.2,0.9,3.3c1-0.5,2-0.7,3-0.8c-0.5-1.1-0.8-2.3-0.8-3.4C69.5,47.7,68.5,48,67.4,48.1"/>
		</defs>
		<clipPath id="SVGID_128_">
			<use xlink:href="#SVGID_127_"  style="overflow:visible;"/>
		</clipPath>
		<g class="st63">
			<defs>
				<rect id="SVGID_129_" x="-76.4" y="-3075.5" width="2328.9" height="3444.9"/>
			</defs>
			<clipPath id="SVGID_130_">
				<use xlink:href="#SVGID_129_"  style="overflow:visible;"/>
			</clipPath>
			<rect x="54.8" y="34.7" class="st64" width="29" height="29.3"/>
		</g>
	</g>
</g>
</svg>
