<?xml version="1.0" encoding="utf-8"?>
<!-- Generator: Adobe Illustrator 21.0.1, SVG Export Plug-In . SVG Version: 6.00 Build 0)  -->
<svg version="1.1" id="Layer_1" xmlns="http://www.w3.org/2000/svg" xmlns:xlink="http://www.w3.org/1999/xlink" x="0px" y="0px"
	 viewBox="0 0 200 200" style="enable-background:new 0 0 200 200;" xml:space="preserve">
<style type="text/css">
	.st0{clip-path:url(#SVGID_2_);}
	.st1{clip-path:url(#SVGID_4_);fill:#FFC857;}
	.st2{clip-path:url(#SVGID_6_);}
	.st3{clip-path:url(#SVGID_8_);fill:#0C0C0C;}
	.st4{clip-path:url(#SVGID_10_);}
	.st5{clip-path:url(#SVGID_12_);fill:#FFC857;}
	.st6{clip-path:url(#SVGID_14_);}
	.st7{clip-path:url(#SVGID_16_);fill:#0C0C0C;}
	.st8{clip-path:url(#SVGID_18_);}
	.st9{clip-path:url(#SVGID_20_);fill:#0C0C0C;}
	.st10{clip-path:url(#SVGID_22_);}
	.st11{clip-path:url(#SVGID_24_);fill:#0C0C0C;}
	.st12{clip-path:url(#SVGID_26_);}
	.st13{clip-path:url(#SVGID_28_);fill:#0C0C0C;}
	.st14{clip-path:url(#SVGID_30_);}
	.st15{clip-path:url(#SVGID_32_);fill:#FFC857;}
	.st16{clip-path:url(#SVGID_34_);}
	.st17{clip-path:url(#SVGID_36_);fill:#0C0C0C;}
	.st18{clip-path:url(#SVGID_38_);}
	.st19{clip-path:url(#SVGID_40_);fill:#FFC857;}
	.st20{clip-path:url(#SVGID_42_);}
	.st21{clip-path:url(#SVGID_44_);fill:#0C0C0C;}
	.st22{clip-path:url(#SVGID_46_);}
	.st23{clip-path:url(#SVGID_48_);fill:#FFC857;}
	.st24{clip-path:url(#SVGID_50_);}
	.st25{clip-path:url(#SVGID_52_);fill:#0C0C0C;}
	.st26{clip-path:url(#SVGID_54_);}
	.st27{clip-path:url(#SVGID_56_);fill:#0C0C0C;}
	.st28{clip-path:url(#SVGID_58_);}
	.st29{clip-path:url(#SVGID_60_);fill:#FFC857;}
	.st30{clip-path:url(#SVGID_62_);}
	.st31{clip-path:url(#SVGID_64_);fill:#0C0C0C;}
</style>
<g>
	<g>
		<defs>
			<circle id="SVGID_37_" cx="-577.6" cy="99" r="70"/>
		</defs>
		<clipPath id="SVGID_2_">
			<use xlink:href="#SVGID_37_"  style="overflow:visible;"/>
		</clipPath>
		<g class="st0">
			<defs>
				<rect id="SVGID_39_" x="-4945.6" y="-6985" width="5040" height="7455"/>
			</defs>
			<clipPath id="SVGID_4_">
				<use xlink:href="#SVGID_39_"  style="overflow:visible;"/>
			</clipPath>
		</g>
	</g>
	<g>
		<defs>
			<path id="SVGID_41_" d="M-568.3,143.1c-19,0.5-26-13.3-26-23V92.4h-8.7V81.2c13-4.8,16.2-16.5,16.8-23c0.5-0.5,0.5-0.5,1.1-0.5
				h12.5v21.9h17.3v12.8h-17.3v26.7c0,3.7,1.6,8.5,8.1,8.5c2.2,0,5.4-0.5,7-1.6l4.3,12.3C-554.7,140.4-561.8,143.1-568.3,143.1z
				 M-578,15c-47.7,0-86.7,38.4-86.7,85.4s39,85.4,86.7,85.4c47.7,0,86.7-38.4,86.7-85.4S-530.3,15-578,15z"/>
		</defs>
		<clipPath id="SVGID_6_">
			<use xlink:href="#SVGID_41_"  style="overflow:visible;"/>
		</clipPath>
		<g class="st2">
			<defs>
				<rect id="SVGID_43_" x="-4945.6" y="-6985" width="5040" height="7455"/>
			</defs>
			<clipPath id="SVGID_8_">
				<use xlink:href="#SVGID_43_"  style="overflow:visible;"/>
			</clipPath>
		</g>
	</g>
</g>
<g>
	<g>
		<defs>
			<circle id="SVGID_45_" cx="-220.8" cy="99" r="70"/>
		</defs>
		<clipPath id="SVGID_10_">
			<use xlink:href="#SVGID_45_"  style="overflow:visible;"/>
		</clipPath>
		<g class="st4">
			<defs>
				<rect id="SVGID_47_" x="-4795.3" y="-6985" width="5040" height="7455"/>
			</defs>
			<clipPath id="SVGID_12_">
				<use xlink:href="#SVGID_47_"  style="overflow:visible;"/>
			</clipPath>
		</g>
	</g>
	<g>
		<defs>
			<path id="SVGID_49_" d="M-180.7,103.6c0,6.9-1.1,13.9-1.1,13.9s-1.1,5.9-3.2,8.5c-3.2,3.2-7,3.2-8.7,3.7
				c-11.9,1.1-30.3,1.1-30.3,1.1s-22.7,0-29.2-1.1c-2.2-0.5-6.5,0-9.7-3.7c-2.7-2.7-3.2-8.5-3.2-8.5s-1.1-6.9-1.1-13.9v-6.4
				c0-6.9,1.1-13.9,1.1-13.9s1.1-5.9,3.2-8.5c3.2-3.2,7-3.2,8.7-3.7C-242.4,70-224,70-224,70s18.4,0,30.3,1.1c1.6,0,5.4,0,8.7,3.7
				c2.7,2.7,3.2,8.5,3.2,8.5s1.1,6.9,1.1,13.9V103.6z M-224,15c-47.7,0-86.7,38.4-86.7,85.4s39,85.4,86.7,85.4s86.7-38.4,86.7-85.4
				S-176.3,15-224,15z"/>
		</defs>
		<clipPath id="SVGID_14_">
			<use xlink:href="#SVGID_49_"  style="overflow:visible;"/>
		</clipPath>
		<g class="st6">
			<defs>
				<rect id="SVGID_51_" x="-4795.3" y="-6985" width="5040" height="7455"/>
			</defs>
			<clipPath id="SVGID_16_">
				<use xlink:href="#SVGID_51_"  style="overflow:visible;"/>
			</clipPath>
		</g>
	</g>
	<g>
		<defs>
			<polygon id="SVGID_53_" points="-233.2,111.6 -209.4,99.3 -233.2,87.6 			"/>
		</defs>
		<clipPath id="SVGID_18_">
			<use xlink:href="#SVGID_53_"  style="overflow:visible;"/>
		</clipPath>
		<g class="st8">
			<defs>
				<rect id="SVGID_55_" x="-4795.3" y="-6985" width="5040" height="7455"/>
			</defs>
			<clipPath id="SVGID_20_">
				<use xlink:href="#SVGID_55_"  style="overflow:visible;"/>
			</clipPath>
		</g>
	</g>
</g>
<g>
	<g>
		<defs>
			<circle id="SVGID_57_" cx="106.4" cy="99" r="70"/>
		</defs>
		<clipPath id="SVGID_22_">
			<use xlink:href="#SVGID_57_"  style="overflow:visible;"/>
		</clipPath>
		<g class="st10">
			<defs>
				<rect id="SVGID_59_" x="-4678.1" y="-6985" width="5040" height="7455"/>
			</defs>
			<clipPath id="SVGID_24_">
				<use xlink:href="#SVGID_59_"  style="overflow:visible;"/>
			</clipPath>
			<rect x="18.9" y="11.5" style="clip-path:url(#SVGID_24_);fill:#FFC857;" width="175" height="175"/>
		</g>
	</g>
	<g>
		<defs>
			<path id="SVGID_61_" d="M106.5,119.6c-5.4,0-10.3-2.7-11.9-5.9c0,0-2.7,11.2-3.2,13.3c-2.2,7.5-8.7,15.5-9.2,16
				c-0.5,0.5-1.1,0.5-1.1-0.5c0-1.1-1.6-10.7,0-18.7c1.1-3.7,6.5-26.7,6.5-26.7s-1.6-3.2-1.6-8c0-7.5,4.3-12.8,9.7-12.8
				c4.3,0,6.5,3.2,6.5,7.5c0,4.3-2.7,11.2-4.3,17.6c-1.1,5.3,2.7,9.6,8.1,9.6c9.2,0,15.7-11.7,15.7-26.2c0-10.7-7.6-18.7-20.6-18.7
				c-15.2,0-24.4,11.2-24.4,23.5c0,4.3,1.1,7.5,3.2,9.6c1.1,1.1,1.1,1.6,0.5,2.7c0,1.1-0.5,3.2-1.1,3.7c-0.5,1.1-1.1,1.6-2.7,1.1
				c-7-2.7-10.3-10.1-10.3-18.7c0-13.9,11.9-30.4,35.7-30.4c19,0,31.4,13.3,31.4,28.3C133.6,105.2,122.7,119.6,106.5,119.6z M100,15
				c-47.7,0-86.7,38.4-86.7,85.4s39,85.4,86.7,85.4s86.7-38.4,86.7-85.4S147.7,15,100,15z"/>
		</defs>
		<clipPath id="SVGID_26_">
			<use xlink:href="#SVGID_61_"  style="overflow:visible;"/>
		</clipPath>
		<g class="st12">
			<defs>
				<rect id="SVGID_63_" x="-4678.1" y="-6985" width="5040" height="7455"/>
			</defs>
			<clipPath id="SVGID_28_">
				<use xlink:href="#SVGID_63_"  style="overflow:visible;"/>
			</clipPath>
			<rect x="-4.2" y="-2.5" class="st13" width="208.3" height="205.8"/>
		</g>
	</g>
</g>
</svg>
