<?xml version="1.0" encoding="utf-8"?>
<!-- Generator: Adobe Illustrator 21.0.1, SVG Export Plug-In . SVG Version: 6.00 Build 0)  -->
<svg version="1.1" id="Layer_1" xmlns="http://www.w3.org/2000/svg" xmlns:xlink="http://www.w3.org/1999/xlink" x="0px" y="0px"
	 viewBox="0 0 200 200" style="enable-background:new 0 0 200 200;" xml:space="preserve">
<style type="text/css">
	.st0{clip-path:url(#SVGID_2_);}
	.st1{clip-path:url(#SVGID_4_);fill:#F7F6F9;}
	.st2{clip-path:url(#SVGID_6_);}
	.st3{clip-path:url(#SVGID_8_);fill:#0C0C0C;}
	.st4{clip-path:url(#SVGID_10_);}
	.st5{clip-path:url(#SVGID_12_);fill:#F7F6F9;}
	.st6{clip-path:url(#SVGID_14_);}
	.st7{clip-path:url(#SVGID_16_);fill:#0C0C0C;}
	.st8{clip-path:url(#SVGID_18_);}
	.st9{clip-path:url(#SVGID_20_);fill:#0C0C0C;}
	.st10{clip-path:url(#SVGID_22_);}
	.st11{clip-path:url(#SVGID_24_);fill:#0C0C0C;}
	.st12{clip-path:url(#SVGID_26_);}
	.st13{clip-path:url(#SVGID_28_);fill:#0C0C0C;}
	.st14{clip-path:url(#SVGID_30_);}
	.st15{clip-path:url(#SVGID_32_);fill:#F7F6F9;}
	.st16{clip-path:url(#SVGID_34_);}
	.st17{clip-path:url(#SVGID_36_);fill:#0C0C0C;}
	.st18{clip-path:url(#SVGID_38_);}
	.st19{clip-path:url(#SVGID_40_);fill:#F7F6F9;}
	.st20{clip-path:url(#SVGID_42_);}
	.st21{clip-path:url(#SVGID_44_);fill:#0C0C0C;}
	.st22{clip-path:url(#SVGID_46_);}
	.st23{clip-path:url(#SVGID_48_);fill:#F7F6F9;}
	.st24{clip-path:url(#SVGID_50_);}
	.st25{clip-path:url(#SVGID_52_);fill:#0C0C0C;}
	.st26{clip-path:url(#SVGID_54_);}
	.st27{clip-path:url(#SVGID_56_);fill:#0C0C0C;}
	.st28{clip-path:url(#SVGID_58_);}
	.st29{clip-path:url(#SVGID_60_);fill:#F7F6F9;}
	.st30{clip-path:url(#SVGID_62_);}
	.st31{clip-path:url(#SVGID_64_);fill:#0C0C0C;}
</style>
<g>
	<defs>
		<circle id="SVGID_1_" cx="-788.8" cy="99" r="70"/>
	</defs>
	<clipPath id="SVGID_2_">
		<use xlink:href="#SVGID_1_"  style="overflow:visible;"/>
	</clipPath>
	<g class="st0">
		<defs>
			<rect id="SVGID_3_" x="-4537.3" y="-6985" width="5040" height="7455"/>
		</defs>
		<clipPath id="SVGID_4_">
			<use xlink:href="#SVGID_3_"  style="overflow:visible;"/>
		</clipPath>
	</g>
</g>
<g>
	<defs>
		<path id="SVGID_5_" d="M-764.3,72.1h-8.1c-6.5,0-7.6,3.2-7.6,7.5v9.6h15.2l-2.2,14.9h-13v39h-15.7v-39h-13.5V89.2h13.5V78
			c-0.5-13.3,7.6-20.3,19.5-20.3c5.4,0,10.3,0.5,11.9,0.5V72.1z M-787,15c-47.7,0-86.7,38.4-86.7,85.4s39,85.4,86.7,85.4
			c47.7,0,86.7-38.4,86.7-85.4S-739.3,15-787,15z"/>
	</defs>
	<clipPath id="SVGID_6_">
		<use xlink:href="#SVGID_5_"  style="overflow:visible;"/>
	</clipPath>
	<g class="st2">
		<defs>
			<rect id="SVGID_7_" x="-4537.3" y="-6985" width="5040" height="7455"/>
		</defs>
		<clipPath id="SVGID_8_">
			<use xlink:href="#SVGID_7_"  style="overflow:visible;"/>
		</clipPath>
	</g>
</g>
<g>
	<defs>
		<circle id="SVGID_9_" cx="-488.5" cy="97.6" r="70"/>
	</defs>
	<clipPath id="SVGID_10_">
		<use xlink:href="#SVGID_9_"  style="overflow:visible;"/>
	</clipPath>
	<g class="st4">
		<defs>
			<rect id="SVGID_11_" x="-4447.1" y="-6986.4" width="5040" height="7455"/>
		</defs>
		<clipPath id="SVGID_12_">
			<use xlink:href="#SVGID_11_"  style="overflow:visible;"/>
		</clipPath>
	</g>
</g>
<g>
	<defs>
		<ellipse id="SVGID_13_" cx="-490" cy="99" rx="16.8" ry="16.5"/>
	</defs>
	<clipPath id="SVGID_14_">
		<use xlink:href="#SVGID_13_"  style="overflow:visible;"/>
	</clipPath>
	<g class="st6">
		<defs>
			<rect id="SVGID_15_" x="-4447.1" y="-6986.4" width="5040" height="7455"/>
		</defs>
		<clipPath id="SVGID_16_">
			<use xlink:href="#SVGID_15_"  style="overflow:visible;"/>
		</clipPath>
	</g>
</g>
<g>
	<defs>
		<path id="SVGID_17_" d="M-470.5,82.4h11.9c1.1,0,2.2-1.1,2.2-2.1V68.6c0-1.1-1.1-2.1-2.2-2.1h-11.9c-1.1,0-2.2,1.1-2.2,2.1v11.7
			C-473.2,81.4-472.1,82.4-470.5,82.4z"/>
	</defs>
	<clipPath id="SVGID_18_">
		<use xlink:href="#SVGID_17_"  style="overflow:visible;"/>
	</clipPath>
	<g class="st8">
		<defs>
			<rect id="SVGID_19_" x="-4447.1" y="-6986.4" width="5040" height="7455"/>
		</defs>
		<clipPath id="SVGID_20_">
			<use xlink:href="#SVGID_19_"  style="overflow:visible;"/>
		</clipPath>
	</g>
</g>
<g>
	<defs>
		<path id="SVGID_21_" d="M-446.7,131.6c0,5.3-4.9,10.1-10.3,10.1H-523c-5.4,0-10.3-4.3-10.3-10.1V66.4c0-5.9,4.9-10.1,10.3-10.1
			h66.1c5.4,0,10.3,4.3,10.3,10.1V131.6z M-490,13.6c-47.7,0-86.7,38.4-86.7,85.4s39,85.4,86.7,85.4s86.7-38.4,86.7-85.4
			S-442.3,13.6-490,13.6z"/>
	</defs>
	<clipPath id="SVGID_22_">
		<use xlink:href="#SVGID_21_"  style="overflow:visible;"/>
	</clipPath>
	<g class="st10">
		<defs>
			<rect id="SVGID_23_" x="-4447.1" y="-6986.4" width="5040" height="7455"/>
		</defs>
		<clipPath id="SVGID_24_">
			<use xlink:href="#SVGID_23_"  style="overflow:visible;"/>
		</clipPath>
	</g>
</g>
<g>
	<defs>
		<path id="SVGID_25_" d="M-463.5,99c0,14.4-11.9,26.2-26.5,26.2c-14.6,0-26.5-11.7-26.5-26.2c0-2.1,0.5-4.8,1.1-6.9h-8.1v37.4
			c0,1.1,1.1,2.1,2.2,2.1h62.3c1.1,0,2.2-1.1,2.2-2.1V92.1h-8.1C-464,94.2-463.5,96.9-463.5,99z"/>
	</defs>
	<clipPath id="SVGID_26_">
		<use xlink:href="#SVGID_25_"  style="overflow:visible;"/>
	</clipPath>
	<g class="st12">
		<defs>
			<rect id="SVGID_27_" x="-4447.1" y="-6986.4" width="5040" height="7455"/>
		</defs>
		<clipPath id="SVGID_28_">
			<use xlink:href="#SVGID_27_"  style="overflow:visible;"/>
		</clipPath>
	</g>
</g>
<g>
	<defs>
		<circle id="SVGID_29_" cx="-211.8" cy="99" r="70"/>
	</defs>
	<clipPath id="SVGID_30_">
		<use xlink:href="#SVGID_29_"  style="overflow:visible;"/>
	</clipPath>
	<g class="st14">
		<defs>
			<rect id="SVGID_31_" x="-4369.8" y="-6985" width="5040" height="7455"/>
		</defs>
		<clipPath id="SVGID_32_">
			<use xlink:href="#SVGID_31_"  style="overflow:visible;"/>
		</clipPath>
	</g>
</g>
<g>
	<defs>
		<path id="SVGID_33_" d="M-174.3,82.8v2.1c0,23-17.9,49.6-50.4,49.6c-10.3,0-19.5-2.7-27.1-8h4.3c8.1,0,16.2-2.7,22.2-7.5
			c-7.6,0-14.1-5.3-16.8-12.3c1.1,0,2.2,0.5,3.2,0.5c1.6,0,3.2,0,4.9-0.5c-8.1-1.6-14.1-8.5-14.1-17.1c2.2,1.1,4.9,2.1,8.1,2.1
			c-4.9-3.2-8.1-8.5-8.1-14.4c0-3.2,1.1-6.4,2.2-9.1c8.7,10.7,21.7,17.6,36.8,18.1c-0.5-1.1-0.5-2.7-0.5-3.7
			c0-9.6,8.1-17.6,17.9-17.6c4.9,0,9.7,2.1,13,5.3c3.8-0.5,8.1-2.1,11.4-4.3c-1.1,4.3-4.3,7.5-7.6,9.6c3.8-0.5,7-1.6,10.3-2.7
			C-167.8,77.4-171.1,80.7-174.3,82.8z M-209,15c-47.7,0-86.7,38.4-86.7,85.4s39,85.4,86.7,85.4s86.7-38.4,86.7-85.4
			S-161.3,15-209,15z"/>
	</defs>
	<clipPath id="SVGID_34_">
		<use xlink:href="#SVGID_33_"  style="overflow:visible;"/>
	</clipPath>
	<g class="st16">
		<defs>
			<rect id="SVGID_35_" x="-4369.8" y="-6985" width="5040" height="7455"/>
		</defs>
		<clipPath id="SVGID_36_">
			<use xlink:href="#SVGID_35_"  style="overflow:visible;"/>
		</clipPath>
	</g>
</g>
<g>
	<defs>
		<circle id="SVGID_37_" cx="100.4" cy="99" r="70"/>
	</defs>
	<clipPath id="SVGID_38_">
		<use xlink:href="#SVGID_37_"  style="overflow:visible;"/>
	</clipPath>
	<g class="st18">
		<defs>
			<rect id="SVGID_39_" x="-4267.6" y="-6985" width="5040" height="7455"/>
		</defs>
		<clipPath id="SVGID_40_">
			<use xlink:href="#SVGID_39_"  style="overflow:visible;"/>
		</clipPath>
		<rect x="12.9" y="11.5" class="st19" width="175" height="175"/>
	</g>
</g>
<g>
	<defs>
		<path id="SVGID_41_" d="M109.7,143.1c-19,0.5-26-13.3-26-23V92.4h-8.7V81.2c13-4.8,16.2-16.5,16.8-23c0.5-0.5,0.5-0.5,1.1-0.5
			h12.5v21.9h17.3v12.8h-17.3v26.7c0,3.7,1.6,8.5,8.1,8.5c2.2,0,5.4-0.5,7-1.6l4.3,12.3C123.3,140.4,116.2,143.1,109.7,143.1z
			 M100,15c-47.7,0-86.7,38.4-86.7,85.4s39,85.4,86.7,85.4s86.7-38.4,86.7-85.4S147.7,15,100,15z"/>
	</defs>
	<clipPath id="SVGID_42_">
		<use xlink:href="#SVGID_41_"  style="overflow:visible;"/>
	</clipPath>
	<g class="st20">
		<defs>
			<rect id="SVGID_43_" x="-4267.6" y="-6985" width="5040" height="7455"/>
		</defs>
		<clipPath id="SVGID_44_">
			<use xlink:href="#SVGID_43_"  style="overflow:visible;"/>
		</clipPath>
		<rect x="-4.2" y="-2.5" class="st21" width="208.3" height="205.8"/>
	</g>
</g>
<g>
	<defs>
		<circle id="SVGID_45_" cx="457.2" cy="99" r="70"/>
	</defs>
	<clipPath id="SVGID_46_">
		<use xlink:href="#SVGID_45_"  style="overflow:visible;"/>
	</clipPath>
	<g class="st22">
		<defs>
			<rect id="SVGID_47_" x="-4117.3" y="-6985" width="5040" height="7455"/>
		</defs>
		<clipPath id="SVGID_48_">
			<use xlink:href="#SVGID_47_"  style="overflow:visible;"/>
		</clipPath>
	</g>
</g>
<g>
	<defs>
		<path id="SVGID_49_" d="M497.3,103.6c0,6.9-1.1,13.9-1.1,13.9s-1.1,5.9-3.2,8.5c-3.2,3.2-7,3.2-8.7,3.7
			c-11.9,1.1-30.3,1.1-30.3,1.1s-22.7,0-29.2-1.1c-2.2-0.5-6.5,0-9.7-3.7c-2.7-2.7-3.2-8.5-3.2-8.5s-1.1-6.9-1.1-13.9v-6.4
			c0-6.9,1.1-13.9,1.1-13.9s1.1-5.9,3.2-8.5c3.2-3.2,7-3.2,8.7-3.7C435.6,70,454,70,454,70s18.4,0,30.3,1.1c1.6,0,5.4,0,8.7,3.7
			c2.7,2.7,3.2,8.5,3.2,8.5s1.1,6.9,1.1,13.9V103.6z M454,15c-47.7,0-86.7,38.4-86.7,85.4s39,85.4,86.7,85.4s86.7-38.4,86.7-85.4
			S501.7,15,454,15z"/>
	</defs>
	<clipPath id="SVGID_50_">
		<use xlink:href="#SVGID_49_"  style="overflow:visible;"/>
	</clipPath>
	<g class="st24">
		<defs>
			<rect id="SVGID_51_" x="-4117.3" y="-6985" width="5040" height="7455"/>
		</defs>
		<clipPath id="SVGID_52_">
			<use xlink:href="#SVGID_51_"  style="overflow:visible;"/>
		</clipPath>
	</g>
</g>
<g>
	<defs>
		<polygon id="SVGID_53_" points="444.8,111.6 468.6,99.3 444.8,87.6 		"/>
	</defs>
	<clipPath id="SVGID_54_">
		<use xlink:href="#SVGID_53_"  style="overflow:visible;"/>
	</clipPath>
	<g class="st26">
		<defs>
			<rect id="SVGID_55_" x="-4117.3" y="-6985" width="5040" height="7455"/>
		</defs>
		<clipPath id="SVGID_56_">
			<use xlink:href="#SVGID_55_"  style="overflow:visible;"/>
		</clipPath>
	</g>
</g>
<g>
	<defs>
		<circle id="SVGID_57_" cx="784.4" cy="99" r="70"/>
	</defs>
	<clipPath id="SVGID_58_">
		<use xlink:href="#SVGID_57_"  style="overflow:visible;"/>
	</clipPath>
	<g class="st28">
		<defs>
			<rect id="SVGID_59_" x="-4000.1" y="-6985" width="5040" height="7455"/>
		</defs>
		<clipPath id="SVGID_60_">
			<use xlink:href="#SVGID_59_"  style="overflow:visible;"/>
		</clipPath>
	</g>
</g>
<g>
	<defs>
		<path id="SVGID_61_" d="M784.5,119.6c-5.4,0-10.3-2.7-11.9-5.9c0,0-2.7,11.2-3.2,13.3c-2.2,7.5-8.7,15.5-9.2,16
			c-0.5,0.5-1.1,0.5-1.1-0.5c0-1.1-1.6-10.7,0-18.7c1.1-3.7,6.5-26.7,6.5-26.7s-1.6-3.2-1.6-8c0-7.5,4.3-12.8,9.7-12.8
			c4.3,0,6.5,3.2,6.5,7.5c0,4.3-2.7,11.2-4.3,17.6c-1.1,5.3,2.7,9.6,8.1,9.6c9.2,0,15.7-11.7,15.7-26.2c0-10.7-7.6-18.7-20.6-18.7
			c-15.2,0-24.4,11.2-24.4,23.5c0,4.3,1.1,7.5,3.2,9.6c1.1,1.1,1.1,1.6,0.5,2.7c0,1.1-0.5,3.2-1.1,3.7c-0.5,1.1-1.1,1.6-2.7,1.1
			c-7-2.7-10.3-10.1-10.3-18.7c0-13.9,11.9-30.4,35.7-30.4c19,0,31.4,13.3,31.4,28.3C811.6,105.2,800.7,119.6,784.5,119.6z M778,15
			c-47.7,0-86.7,38.4-86.7,85.4s39,85.4,86.7,85.4c47.7,0,86.7-38.4,86.7-85.4S825.7,15,778,15z"/>
	</defs>
	<clipPath id="SVGID_62_">
		<use xlink:href="#SVGID_61_"  style="overflow:visible;"/>
	</clipPath>
	<g class="st30">
		<defs>
			<rect id="SVGID_63_" x="-4000.1" y="-6985" width="5040" height="7455"/>
		</defs>
		<clipPath id="SVGID_64_">
			<use xlink:href="#SVGID_63_"  style="overflow:visible;"/>
		</clipPath>
	</g>
</g>
</svg>
